<svg width="150.705mm" height="104.987mm" viewBox="0 0 150.705 104.987" xmlns="http://www.w3.org/2000/svg"><g id="svgGroup" stroke-linecap="round" fill-rule="evenodd" font-size="9pt" stroke="#000" stroke-width="0.25mm" fill="none" style="stroke:#000;stroke-width:0.25mm;fill:none"><path d="M 119.551 82.306 L 136.67 87.868 L 131.108 104.987 L 113.989 99.425 L 119.551 82.306 Z M 131.972 58.607 L 149.972 58.607 L 149.972 76.607 L 131.972 76.607 L 131.972 58.607 Z M 4.975 59.579 L 22.644 63.014 L 19.21 80.683 L 1.54 77.249 L 4.975 59.579 Z M 8.6 40.928 L 26.269 44.363 L 22.835 62.032 L 5.166 58.598 L 8.6 40.928 Z M 12.226 22.277 L 29.895 25.712 L 26.46 43.381 L 8.791 39.947 L 12.226 22.277 Z M 15.851 3.627 L 33.52 7.061 L 30.086 24.73 L 12.416 21.296 L 15.851 3.627 Z M 23.626 63.205 L 41.295 66.639 L 37.86 84.308 L 20.191 80.874 L 23.626 63.205 Z M 27.251 44.554 L 44.92 47.988 L 41.486 65.658 L 23.817 62.223 L 27.251 44.554 Z M 30.876 25.903 L 48.546 29.337 L 45.111 47.007 L 27.442 43.572 L 30.876 25.903 Z M 34.502 7.252 L 52.171 10.686 L 48.737 28.356 L 31.067 24.921 L 34.502 7.252 Z M 42.849 63.885 L 60.518 67.32 L 57.084 84.989 L 39.415 81.554 L 42.849 63.885 Z M 46.474 45.234 L 64.144 48.669 L 60.709 66.338 L 43.04 62.903 L 46.474 45.234 Z M 50.1 26.583 L 67.769 30.018 L 64.335 47.687 L 46.665 44.253 L 50.1 26.583 Z M 53.725 7.932 L 71.394 11.367 L 67.96 29.036 L 50.291 25.602 L 53.725 7.932 Z M 62.072 64.566 L 79.742 68 L 76.307 85.669 L 58.638 82.235 L 62.072 64.566 Z M 65.698 45.915 L 83.367 49.349 L 79.933 67.019 L 62.263 63.584 L 65.698 45.915 Z M 69.323 27.264 L 86.992 30.698 L 83.558 48.368 L 65.889 44.933 L 69.323 27.264 Z M 72.949 8.613 L 90.618 12.047 L 87.183 29.717 L 69.514 26.282 L 72.949 8.613 Z M 80.151 71.136 L 97.82 74.57 L 94.386 92.24 L 76.716 88.805 L 80.151 71.136 Z M 83.776 52.485 L 101.446 55.92 L 98.011 73.589 L 80.342 70.154 L 83.776 52.485 Z M 87.402 33.834 L 105.071 37.269 L 101.636 54.938 L 83.967 51.503 L 87.402 33.834 Z M 91.027 15.183 L 108.696 18.618 L 105.262 36.287 L 87.592 32.852 L 91.027 15.183 Z M 101.855 59.055 L 119.524 62.49 L 116.09 80.159 L 98.42 76.724 L 101.855 59.055 Z M 105.48 40.404 L 123.149 43.839 L 119.715 61.508 L 102.046 58.074 L 105.48 40.404 Z M 109.106 21.753 L 126.775 25.188 L 123.34 42.857 L 105.671 39.423 L 109.106 21.753 Z M 98.229 77.706 L 115.899 81.141 L 112.464 98.81 L 94.795 95.375 L 98.229 77.706 Z M 15.537 0 L 16.519 0.191 L 16.328 1.172 L 15.346 0.982 L 15.537 0 Z M 149.487 0.06 L 150.468 0.251 L 150.278 1.232 L 149.296 1.042 L 149.487 0.06 Z M 0.191 81.57 L 1.172 81.761 L 0.982 82.743 L 0 82.552 L 0.191 81.57 Z M 149.723 80.075 L 150.705 80.266 L 150.514 81.248 L 149.533 81.057 L 149.723 80.075 Z M 83.265 48.565 L 84.246 48.756 L 84.056 49.738 L 83.074 49.547 L 83.265 48.565 Z M 117.723 11.805 L 118.723 11.805 L 118.723 12.805 L 117.723 12.805 L 117.723 11.805 Z" vector-effect="non-scaling-stroke"/></g></svg>