<svg width="157.789mm" height="111.657mm" viewBox="0 0 157.789 111.657" xmlns="http://www.w3.org/2000/svg"><g id="svgGroup" stroke-linecap="round" fill-rule="evenodd" font-size="9pt" stroke="#000" stroke-width="0.25mm" fill="none" style="stroke:#000;stroke-width:0.25mm;fill:none"><path d="M 0 88.519 L 17.173 0.172 L 157.789 0 L 157.789 85 L 136.186 111.657 L 0 88.519 Z M 20.036 3.785 m -2.2 0 a 2.2 2.2 0 0 1 4.4 0 a 2.2 2.2 0 0 1 -4.4 0 z M 153.986 3.845 m -2.2 0 a 2.2 2.2 0 0 1 4.4 0 a 2.2 2.2 0 0 1 -4.4 0 z M 4.69 85.355 m -2.2 0 a 2.2 2.2 0 0 1 4.4 0 a 2.2 2.2 0 0 1 -4.4 0 z M 154.222 83.86 m -2.2 0 a 2.2 2.2 0 0 1 4.4 0 a 2.2 2.2 0 0 1 -4.4 0 z M 87.764 52.35 m -2.2 0 a 2.2 2.2 0 0 1 4.4 0 a 2.2 2.2 0 0 1 -4.4 0 z M 122.326 15.504 m -2.2 0 a 2.2 2.2 0 0 1 4.4 0 a 2.2 2.2 0 0 1 -4.4 0 z" vector-effect="non-scaling-stroke"/></g></svg>