0
SECTION
2
HEADER
9
$INSUNITS
70
4
0
ENDSEC
0
SECTION
2
TABLES
0
TABLE
2
LTYPE
0
LTYPE
72
65
70
64
2
CONTINUOUS
3
______
73
0
40
0
0
ENDTAB
0
TABLE
2
LAYER
0
ENDTAB
0
ENDSEC
0
SECTION
2
ENTITIES
0
LINE
8
0
10
120.160128
20
-177.6913385
11
137.3329375
21
-89.344892
0
LINE
8
0
10
137.3329375
20
-89.344892
11
250.9865385
21
-89.2056361
0
LINE
8
0
10
277.9493318
20
-170.1766713
11
277.9493318
21
-174.1725995
0
LINE
8
0
10
277.9493318
20
-174.1725995
11
256.3464297
21
-200.8298337
0
LINE
8
0
10
256.3464297
20
-200.8298337
11
120.160128
21
-177.6913385
0
LINE
8
0
10
128.14879
20
-168.0382934
11
141.8915706
21
-170.7096194
0
LINE
8
0
10
141.8915706
20
-170.7096194
11
144.5628966
21
-156.9668388
0
LINE
8
0
10
144.5628966
20
-156.9668388
11
130.820116
21
-154.2955128
0
LINE
8
0
10
130.820116
20
-154.2955128
11
128.14879
21
-168.0382934
0
LINE
8
0
10
131.7741609
20
-149.387377
11
145.5169415
21
-152.058703
0
LINE
8
0
10
145.5169415
20
-152.058703
11
148.1882675
21
-138.3159224
0
LINE
8
0
10
148.1882675
20
-138.3159224
11
134.4454869
21
-135.6445964
0
LINE
8
0
10
134.4454869
20
-135.6445964
11
131.7741609
21
-149.387377
0
LINE
8
0
10
135.3995318
20
-130.7364605
11
149.1423124
21
-133.4077865
0
LINE
8
0
10
149.1423124
20
-133.4077865
11
151.8136384
21
-119.6650059
0
LINE
8
0
10
151.8136384
20
-119.6650059
11
138.0708578
21
-116.9936799
0
LINE
8
0
10
138.0708578
20
-116.9936799
11
135.3995318
21
-130.7364605
0
LINE
8
0
10
139.0249027
20
-112.085544
11
152.7676833
21
-114.75687
0
LINE
8
0
10
152.7676833
20
-114.75687
11
155.4390093
21
-101.0140894
0
LINE
8
0
10
155.4390093
20
-101.0140894
11
141.6962287
21
-98.3427634
0
LINE
8
0
10
141.6962287
20
-98.3427634
11
139.0249027
21
-112.085544
0
LINE
8
0
10
146.7997065
20
-171.6636643
11
160.5424871
21
-174.3349903
0
LINE
8
0
10
160.5424871
20
-174.3349903
11
163.2138131
21
-160.5922097
0
LINE
8
0
10
163.2138131
20
-160.5922097
11
149.4710325
21
-157.9208837
0
LINE
8
0
10
149.4710325
20
-157.9208837
11
146.7997065
21
-171.6636643
0
LINE
8
0
10
150.4250774
20
-153.0127479
11
164.167858
21
-155.6840739
0
LINE
8
0
10
164.167858
20
-155.6840739
11
166.839184
21
-141.9412933
0
LINE
8
0
10
166.839184
20
-141.9412933
11
153.0964034
21
-139.2699673
0
LINE
8
0
10
153.0964034
20
-139.2699673
11
150.4250774
21
-153.0127479
0
LINE
8
0
10
154.0504483
20
-134.3618314
11
167.7932289
21
-137.0331574
0
LINE
8
0
10
167.7932289
20
-137.0331574
11
170.4645549
21
-123.2903768
0
LINE
8
0
10
170.4645549
20
-123.2903768
11
156.7217743
21
-120.6190508
0
LINE
8
0
10
156.7217743
20
-120.6190508
11
154.0504483
21
-134.3618314
0
LINE
8
0
10
157.6758192
20
-115.7109149
11
171.4185998
21
-118.3822409
0
LINE
8
0
10
171.4185998
20
-118.3822409
11
174.0899258
21
-104.6394603
0
LINE
8
0
10
174.0899258
20
-104.6394603
11
160.3471452
21
-101.9681343
0
LINE
8
0
10
160.3471452
20
-101.9681343
11
157.6758192
21
-115.7109149
0
LINE
8
0
10
166.0230499
20
-172.3441537
11
179.7658305
21
-175.0154797
0
LINE
8
0
10
179.7658305
20
-175.0154797
11
182.4371565
21
-161.2726991
0
LINE
8
0
10
182.4371565
20
-161.2726991
11
168.6943759
21
-158.6013731
0
LINE
8
0
10
168.6943759
20
-158.6013731
11
166.0230499
21
-172.3441537
0
LINE
8
0
10
169.6484209
20
-153.6932372
11
183.3912015
21
-156.3645632
0
LINE
8
0
10
183.3912015
20
-156.3645632
11
186.0625275
21
-142.6217826
0
LINE
8
0
10
186.0625275
20
-142.6217826
11
172.3197469
21
-139.9504566
0
LINE
8
0
10
172.3197469
20
-139.9504566
11
169.6484209
21
-153.6932372
0
LINE
8
0
10
173.2737918
20
-135.0423207
11
187.0165724
21
-137.7136467
0
LINE
8
0
10
187.0165724
20
-137.7136467
11
189.6878984
21
-123.9708661
0
LINE
8
0
10
189.6878984
20
-123.9708661
11
175.9451178
21
-121.2995401
0
LINE
8
0
10
175.9451178
20
-121.2995401
11
173.2737918
21
-135.0423207
0
LINE
8
0
10
176.8991627
20
-116.3914043
11
190.6419433
21
-119.0627303
0
LINE
8
0
10
190.6419433
20
-119.0627303
11
193.3132693
21
-105.3199497
0
LINE
8
0
10
193.3132693
20
-105.3199497
11
179.5704887
21
-102.6486237
0
LINE
8
0
10
179.5704887
20
-102.6486237
11
176.8991627
21
-116.3914043
0
LINE
8
0
10
185.2463934
20
-173.024643
11
198.989174
21
-175.695969
0
LINE
8
0
10
198.989174
20
-175.695969
11
201.6605
21
-161.9531884
0
LINE
8
0
10
201.6605
20
-161.9531884
11
187.9177194
21
-159.2818624
0
LINE
8
0
10
187.9177194
20
-159.2818624
11
185.2463934
21
-173.024643
0
LINE
8
0
10
188.8717643
20
-154.3737266
11
202.6145449
21
-157.0450526
0
LINE
8
0
10
202.6145449
20
-157.0450526
11
205.2858709
21
-143.302272
0
LINE
8
0
10
205.2858709
20
-143.302272
11
191.5430903
21
-140.630946
0
LINE
8
0
10
191.5430903
20
-140.630946
11
188.8717643
21
-154.3737266
0
LINE
8
0
10
192.4971352
20
-135.7228101
11
206.2399158
21
-138.3941361
0
LINE
8
0
10
206.2399158
20
-138.3941361
11
208.9112418
21
-124.6513555
0
LINE
8
0
10
208.9112418
20
-124.6513555
11
195.1684612
21
-121.9800295
0
LINE
8
0
10
195.1684612
20
-121.9800295
11
192.4971352
21
-135.7228101
0
LINE
8
0
10
196.1225061
20
-117.0718936
11
209.8652867
21
-119.7432196
0
LINE
8
0
10
209.8652867
20
-119.7432196
11
212.5366127
21
-106.000439
0
LINE
8
0
10
212.5366127
20
-106.000439
11
198.7938321
21
-103.329113
0
LINE
8
0
10
198.7938321
20
-103.329113
11
196.1225061
21
-117.0718936
0
LINE
8
0
10
203.3248829
20
-179.5948955
11
217.0676635
21
-182.2662215
0
LINE
8
0
10
217.0676635
20
-182.2662215
11
219.7389895
21
-168.5234409
0
LINE
8
0
10
219.7389895
20
-168.5234409
11
205.9962089
21
-165.8521149
0
LINE
8
0
10
205.9962089
20
-165.8521149
11
203.3248829
21
-179.5948955
0
LINE
8
0
10
206.9502538
20
-160.943979
11
220.6930344
21
-163.615305
0
LINE
8
0
10
220.6930344
20
-163.615305
11
223.3643604
21
-149.8725244
0
LINE
8
0
10
223.3643604
20
-149.8725244
11
209.6215798
21
-147.2011984
0
LINE
8
0
10
209.6215798
20
-147.2011984
11
206.9502538
21
-160.943979
0
LINE
8
0
10
210.5756247
20
-142.2930626
11
224.3184053
21
-144.9643886
0
LINE
8
0
10
224.3184053
20
-144.9643886
11
226.9897313
21
-131.221608
0
LINE
8
0
10
226.9897313
20
-131.221608
11
213.2469507
21
-128.550282
0
LINE
8
0
10
213.2469507
20
-128.550282
11
210.5756247
21
-142.2930626
0
LINE
8
0
10
214.2009956
20
-123.6421461
11
227.9437762
21
-126.3134721
0
LINE
8
0
10
227.9437762
20
-126.3134721
11
230.6151022
21
-112.5706915
0
LINE
8
0
10
230.6151022
20
-112.5706915
11
216.8723216
21
-109.8993655
0
LINE
8
0
10
216.8723216
20
-109.8993655
11
214.2009956
21
-123.6421461
0
LINE
8
0
10
225.0287434
20
-167.5142315
11
238.771524
21
-170.1855575
0
LINE
8
0
10
238.771524
20
-170.1855575
11
241.44285
21
-156.4427769
0
LINE
8
0
10
241.44285
20
-156.4427769
11
227.7000694
21
-153.7714509
0
LINE
8
0
10
227.7000694
20
-153.7714509
11
225.0287434
21
-167.5142315
0
LINE
8
0
10
228.6541143
20
-148.863315
11
242.3968949
21
-151.534641
0
LINE
8
0
10
242.3968949
20
-151.534641
11
245.0682209
21
-137.7918604
0
LINE
8
0
10
245.0682209
20
-137.7918604
11
231.3254403
21
-135.1205344
0
LINE
8
0
10
231.3254403
20
-135.1205344
11
228.6541143
21
-148.863315
0
LINE
8
0
10
232.2794852
20
-130.2123986
11
246.0222658
21
-132.8837246
0
LINE
8
0
10
246.0222658
20
-132.8837246
11
248.6935918
21
-119.140944
0
LINE
8
0
10
248.6935918
20
-119.140944
11
234.9508112
21
-116.469618
0
LINE
8
0
10
234.9508112
20
-116.469618
11
232.2794852
21
-130.2123986
0
LINE
8
0
10
221.4033725
20
-186.165148
11
235.1461531
21
-188.836474
0
LINE
8
0
10
235.1461531
20
-188.836474
11
237.8174791
21
-175.0936934
0
LINE
8
0
10
237.8174791
20
-175.0936934
11
224.0746985
21
-172.4223674
0
LINE
8
0
10
224.0746985
20
-172.4223674
11
221.4033725
21
-186.165148
0
LINE
8
0
10
240.7724974
20
-190.5122453
11
254.0872887
21
-194.8384832
0
LINE
8
0
10
254.0872887
20
-194.8384832
11
258.4135266
21
-181.5236919
0
LINE
8
0
10
258.4135266
20
-181.5236919
11
245.0987353
21
-177.197454
0
LINE
8
0
10
245.0987353
20
-177.197454
11
240.7724974
21
-190.5122453
0
CIRCLE
8
0
10
140.1962057
20
-92.957605
40
1.2
0
CIRCLE
8
0
10
124.8498727
20
-174.5280658
40
1.2
0
CIRCLE
8
0
10
274.3825249
20
-173.0327681
40
1.2
0
CIRCLE
8
0
10
207.9238523
20
-141.5229311
40
1.2
0
LINE
8
0
10
250.9865385
20
-170.1766713
11
277.9493318
21
-170.1766713
0
LINE
8
0
10
250.9865385
20
-89.2056361
11
250.9865385
21
-170.1766713
0
ENDSEC
0
EOF