<svg width="157.789mm" height="111.624mm" viewBox="0 0 157.789 111.624" xmlns="http://www.w3.org/2000/svg"><g id="svgGroup" stroke-linecap="round" fill-rule="evenodd" font-size="9pt" stroke="#000" stroke-width="0.25mm" fill="none" style="stroke:#000;stroke-width:0.25mm;fill:none"><path d="M 0 88.486 L 17.173 0.139 L 130.826 0 L 130.826 80.971 L 157.789 80.971 L 157.789 84.967 L 136.186 111.624 L 0 88.486 Z M 120.612 101.307 L 133.927 105.633 L 138.253 92.318 L 124.939 87.992 L 120.612 101.307 Z M 7.989 78.833 L 21.731 81.504 L 24.403 67.761 L 10.66 65.09 L 7.989 78.833 Z M 11.614 60.182 L 25.357 62.853 L 28.028 49.11 L 14.285 46.439 L 11.614 60.182 Z M 15.239 41.531 L 28.982 44.202 L 31.654 30.459 L 17.911 27.788 L 15.239 41.531 Z M 26.64 82.458 L 40.382 85.129 L 43.054 71.387 L 29.311 68.715 L 26.64 82.458 Z M 30.265 63.807 L 44.008 66.478 L 46.679 52.736 L 32.936 50.064 L 30.265 63.807 Z M 33.89 45.156 L 47.633 47.828 L 50.304 34.085 L 36.562 31.413 L 33.89 45.156 Z M 45.863 83.139 L 59.606 85.81 L 62.277 72.067 L 48.534 69.396 L 45.863 83.139 Z M 49.488 64.488 L 63.231 67.159 L 65.902 53.416 L 52.16 50.745 L 49.488 64.488 Z M 53.114 45.837 L 66.856 48.508 L 69.528 34.765 L 55.785 32.094 L 53.114 45.837 Z M 65.086 83.819 L 78.829 86.49 L 81.5 72.748 L 67.758 70.076 L 65.086 83.819 Z M 68.712 65.168 L 82.454 67.839 L 85.126 54.097 L 71.383 51.425 L 68.712 65.168 Z M 72.337 46.517 L 86.08 49.189 L 88.751 35.446 L 75.008 32.774 L 72.337 46.517 Z M 83.165 90.389 L 96.908 93.061 L 99.579 79.318 L 85.836 76.646 L 83.165 90.389 Z M 86.79 71.738 L 100.533 74.41 L 103.204 60.667 L 89.461 57.996 L 86.79 71.738 Z M 90.415 53.087 L 104.158 55.759 L 106.83 42.016 L 93.087 39.345 L 90.415 53.087 Z M 104.869 78.309 L 118.611 80.98 L 121.283 67.237 L 107.54 64.566 L 104.869 78.309 Z M 108.494 59.658 L 122.237 62.329 L 124.908 48.586 L 111.165 45.915 L 108.494 59.658 Z M 112.119 41.007 L 125.862 43.678 L 128.533 29.935 L 114.791 27.264 L 112.119 41.007 Z M 101.243 96.96 L 114.986 99.631 L 117.657 85.888 L 103.915 83.217 L 101.243 96.96 Z M 18.865 22.88 L 32.608 25.551 L 35.279 11.808 L 21.536 9.137 L 18.865 22.88 Z M 37.516 26.505 L 51.258 29.177 L 53.93 15.434 L 40.187 12.762 L 37.516 26.505 Z M 56.739 27.186 L 70.482 29.857 L 73.153 16.114 L 59.41 13.443 L 56.739 27.186 Z M 75.962 27.866 L 89.705 30.538 L 92.376 16.795 L 78.634 14.123 L 75.962 27.866 Z M 94.041 34.437 L 107.784 37.108 L 110.455 23.365 L 96.712 20.694 L 94.041 34.437 Z M 20.036 3.752 m -1.2 0 a 1.2 1.2 0 0 1 2.4 0 a 1.2 1.2 0 0 1 -2.4 0 z M 4.69 85.322 m -1.2 0 a 1.2 1.2 0 0 1 2.4 0 a 1.2 1.2 0 0 1 -2.4 0 z M 154.222 83.827 m -1.2 0 a 1.2 1.2 0 0 1 2.4 0 a 1.2 1.2 0 0 1 -2.4 0 z M 87.764 52.317 m -1.2 0 a 1.2 1.2 0 0 1 2.4 0 a 1.2 1.2 0 0 1 -2.4 0 z" vector-effect="non-scaling-stroke"/></g></svg>