%TF.GenerationSoftware,KiCad,Pcbnew,10.0.0*%
%TF.CreationDate,2026-04-11T15:31:52-04:00*%
%TF.ProjectId,pseudo-kb,70736575-646f-42d6-9b62-2e6b69636164,v1.0.0*%
%TF.SameCoordinates,Original*%
%TF.FileFunction,Copper,L1,Top*%
%TF.FilePolarity,Positive*%
%FSLAX46Y46*%
G04 Gerber Fmt 4.6, Leading zero omitted, Abs format (unit mm)*
G04 Created by KiCad (PCBNEW 10.0.0) date 2026-04-11 15:31:52*
%MOMM*%
%LPD*%
G01*
G04 APERTURE LIST*
G04 Aperture macros list*
%AMRotRect*
0 Rectangle, with rotation*
0 The origin of the aperture is its center*
0 $1 length*
0 $2 width*
0 $3 Rotation angle, in degrees counterclockwise*
0 Add horizontal line*
21,1,$1,$2,0,0,$3*%
%AMOutline5P*
0 Free polygon, 5 corners , with rotation*
0 The origin of the aperture is its center*
0 number of corners: always 5*
0 $1 to $10 corner X, Y*
0 $11 Rotation angle, in degrees counterclockwise*
0 create outline with 5 corners*
4,1,5,$1,$2,$3,$4,$5,$6,$7,$8,$9,$10,$1,$2,$11*%
%AMOutline6P*
0 Free polygon, 6 corners , with rotation*
0 The origin of the aperture is its center*
0 number of corners: always 6*
0 $1 to $12 corner X, Y*
0 $13 Rotation angle, in degrees counterclockwise*
0 create outline with 6 corners*
4,1,6,$1,$2,$3,$4,$5,$6,$7,$8,$9,$10,$11,$12,$1,$2,$13*%
%AMOutline7P*
0 Free polygon, 7 corners , with rotation*
0 The origin of the aperture is its center*
0 number of corners: always 7*
0 $1 to $14 corner X, Y*
0 $15 Rotation angle, in degrees counterclockwise*
0 create outline with 7 corners*
4,1,7,$1,$2,$3,$4,$5,$6,$7,$8,$9,$10,$11,$12,$13,$14,$1,$2,$15*%
%AMOutline8P*
0 Free polygon, 8 corners , with rotation*
0 The origin of the aperture is its center*
0 number of corners: always 8*
0 $1 to $16 corner X, Y*
0 $17 Rotation angle, in degrees counterclockwise*
0 create outline with 8 corners*
4,1,8,$1,$2,$3,$4,$5,$6,$7,$8,$9,$10,$11,$12,$13,$14,$15,$16,$1,$2,$17*%
%AMFreePoly0*
4,1,6,0.250000,0.000000,-0.250000,-0.625000,-0.500000,-0.625000,-0.500000,0.625000,-0.250000,0.625000,0.250000,0.000000,0.250000,0.000000,$1*%
%AMFreePoly1*
4,1,6,0.500000,-0.625000,-0.650000,-0.625000,-0.150000,0.000000,-0.650000,0.625000,0.500000,0.625000,0.500000,-0.625000,0.500000,-0.625000,$1*%
G04 Aperture macros list end*
%TA.AperFunction,ComponentPad*%
%ADD10RotRect,1.778000X1.778000X349.000000*%
%TD*%
%TA.AperFunction,SMDPad,CuDef*%
%ADD11RotRect,0.900000X1.200000X349.000000*%
%TD*%
%TA.AperFunction,ComponentPad*%
%ADD12C,1.905000*%
%TD*%
%TA.AperFunction,SMDPad,CuDef*%
%ADD13FreePoly0,180.000000*%
%TD*%
%TA.AperFunction,ComponentPad*%
%ADD14C,1.700000*%
%TD*%
%TA.AperFunction,SMDPad,CuDef*%
%ADD15FreePoly0,0.000000*%
%TD*%
%TA.AperFunction,ComponentPad*%
%ADD16C,0.800000*%
%TD*%
%TA.AperFunction,SMDPad,CuDef*%
%ADD17FreePoly1,180.000000*%
%TD*%
%TA.AperFunction,SMDPad,CuDef*%
%ADD18FreePoly1,0.000000*%
%TD*%
%TA.AperFunction,ComponentPad*%
%ADD19C,3.800000*%
%TD*%
%TA.AperFunction,ComponentPad*%
%ADD20Outline6P,-1.300000X0.540000X-0.940000X0.900000X0.940000X0.900000X1.300000X0.540000X1.300000X-0.900000X-1.300000X-0.900000X270.000000*%
%TD*%
%TA.AperFunction,ComponentPad*%
%ADD21Outline6P,-1.300000X0.900000X1.300000X0.900000X1.300000X-0.540000X0.940000X-0.900000X-0.940000X-0.900000X-1.300000X-0.540000X270.000000*%
%TD*%
%TA.AperFunction,ComponentPad*%
%ADD22O,1.600000X1.100000*%
%TD*%
%TA.AperFunction,ComponentPad*%
%ADD23RotRect,1.778000X1.778000X342.000000*%
%TD*%
%TA.AperFunction,SMDPad,CuDef*%
%ADD24RotRect,0.900000X1.200000X342.000000*%
%TD*%
%TA.AperFunction,ComponentPad*%
%ADD25O,1.700000X1.700000*%
%TD*%
%TA.AperFunction,SMDPad,CuDef*%
%ADD26R,1.200000X0.600000*%
%TD*%
%TA.AperFunction,ComponentPad*%
%ADD27C,1.900000*%
%TD*%
%TA.AperFunction,SMDPad,CuDef*%
%ADD28Outline5P,-1.300000X1.300000X1.300000X1.300000X1.300000X-0.117000X0.117000X-1.300000X-1.300000X-1.300000X349.000000*%
%TD*%
%TA.AperFunction,SMDPad,CuDef*%
%ADD29RotRect,2.600000X2.600000X349.000000*%
%TD*%
%TA.AperFunction,SMDPad,CuDef*%
%ADD30Outline5P,-1.300000X1.300000X1.300000X1.300000X1.300000X-0.117000X0.117000X-1.300000X-1.300000X-1.300000X342.000000*%
%TD*%
%TA.AperFunction,SMDPad,CuDef*%
%ADD31RotRect,2.600000X2.600000X342.000000*%
%TD*%
%TA.AperFunction,ViaPad*%
%ADD32C,0.600000*%
%TD*%
%TA.AperFunction,Conductor*%
%ADD33C,0.200000*%
%TD*%
%TA.AperFunction,Conductor*%
%ADD34C,0.250000*%
%TD*%
G04 APERTURE END LIST*
D10*
%TO.P,D9,1*%
%TO.N,R0*%
X168868227Y-174425276D03*
D11*
X170988542Y-174837423D03*
%TO.P,D9,2*%
%TO.N,ring_utils*%
X174227912Y-175467093D03*
D12*
X176348227Y-175879240D03*
%TD*%
D10*
%TO.P,D5,1*%
%TO.N,R0*%
X149644883Y-173744786D03*
D11*
X151765198Y-174156933D03*
%TO.P,D5,2*%
%TO.N,pinky_utils*%
X155004568Y-174786603D03*
D12*
X157124883Y-175198750D03*
%TD*%
D10*
%TO.P,D14,1*%
%TO.N,R1*%
X191716941Y-156454848D03*
D11*
X193837256Y-156866995D03*
%TO.P,D14,2*%
%TO.N,middle_bottom*%
X197076626Y-157496665D03*
D12*
X199196941Y-157908812D03*
%TD*%
D13*
%TO.P,MCU1,1*%
%TO.N,MCU1_1*%
X270486539Y-112976671D03*
D14*
X272606539Y-112976671D03*
D13*
%TO.P,MCU1,2*%
%TO.N,MCU1_2*%
X270486539Y-115516671D03*
D14*
X272606539Y-115516671D03*
D13*
%TO.P,MCU1,3*%
%TO.N,MCU1_3*%
X270486539Y-118056671D03*
D14*
X272606539Y-118056671D03*
D13*
%TO.P,MCU1,4*%
%TO.N,MCU1_4*%
X270486539Y-120596671D03*
D14*
X272606539Y-120596671D03*
D13*
%TO.P,MCU1,5*%
%TO.N,MCU1_5*%
X270486539Y-123136671D03*
D14*
X272606539Y-123136671D03*
D13*
%TO.P,MCU1,6*%
%TO.N,MCU1_6*%
X270486539Y-125676671D03*
D14*
X272606539Y-125676671D03*
D13*
%TO.P,MCU1,7*%
%TO.N,MCU1_7*%
X270486539Y-128216671D03*
D14*
X272606539Y-128216671D03*
D13*
%TO.P,MCU1,8*%
%TO.N,MCU1_8*%
X270486539Y-130756671D03*
D14*
X272606539Y-130756671D03*
D13*
%TO.P,MCU1,9*%
%TO.N,MCU1_9*%
X270486539Y-133296671D03*
D14*
X272606539Y-133296671D03*
D13*
%TO.P,MCU1,10*%
%TO.N,MCU1_10*%
X270486539Y-135836671D03*
D14*
X272606539Y-135836671D03*
D13*
%TO.P,MCU1,11*%
%TO.N,MCU1_11*%
X270486539Y-138376671D03*
D14*
X272606539Y-138376671D03*
D13*
%TO.P,MCU1,12*%
%TO.N,MCU1_12*%
X270486539Y-140916671D03*
D14*
X272606539Y-140916671D03*
%TO.P,MCU1,13*%
%TO.N,MCU1_13*%
X257366539Y-140916671D03*
D15*
X259486539Y-140916671D03*
D14*
%TO.P,MCU1,14*%
%TO.N,MCU1_14*%
X257366539Y-138376671D03*
D15*
X259486539Y-138376671D03*
D14*
%TO.P,MCU1,15*%
%TO.N,MCU1_15*%
X257366539Y-135836671D03*
D15*
X259486539Y-135836671D03*
D14*
%TO.P,MCU1,16*%
%TO.N,MCU1_16*%
X257366539Y-133296671D03*
D15*
X259486539Y-133296671D03*
D14*
%TO.P,MCU1,17*%
%TO.N,MCU1_17*%
X257366539Y-130756671D03*
D15*
X259486539Y-130756671D03*
D14*
%TO.P,MCU1,18*%
%TO.N,MCU1_18*%
X257366539Y-128216671D03*
D15*
X259486539Y-128216671D03*
D14*
%TO.P,MCU1,19*%
%TO.N,MCU1_19*%
X257366539Y-125676671D03*
D15*
X259486539Y-125676671D03*
D14*
%TO.P,MCU1,20*%
%TO.N,MCU1_20*%
X257366539Y-123136671D03*
D15*
X259486539Y-123136671D03*
D14*
%TO.P,MCU1,21*%
%TO.N,MCU1_21*%
X257366539Y-120596671D03*
D15*
X259486539Y-120596671D03*
D14*
%TO.P,MCU1,22*%
%TO.N,MCU1_22*%
X257366539Y-118056671D03*
D15*
X259486539Y-118056671D03*
D14*
%TO.P,MCU1,23*%
%TO.N,MCU1_23*%
X257366539Y-115516671D03*
D15*
X259486539Y-115516671D03*
D14*
%TO.P,MCU1,24*%
%TO.N,MCU1_24*%
X257366539Y-112976671D03*
D15*
X259486539Y-112976671D03*
D16*
%TO.P,MCU1,101*%
%TO.N,P1*%
X268386539Y-112976671D03*
D17*
X269761539Y-112976671D03*
D16*
%TO.P,MCU1,102*%
%TO.N,DISP_CS*%
X268386539Y-115516671D03*
D17*
X269761539Y-115516671D03*
D16*
%TO.P,MCU1,103*%
%TO.N,GND*%
X268386539Y-118056671D03*
D17*
X269761539Y-118056671D03*
D16*
%TO.P,MCU1,104*%
X268386539Y-120596671D03*
D17*
X269761539Y-120596671D03*
D16*
%TO.P,MCU1,105*%
%TO.N,P2*%
X268386539Y-123136671D03*
D17*
X269761539Y-123136671D03*
D16*
%TO.P,MCU1,106*%
%TO.N,DISP_SCK*%
X268386539Y-125676671D03*
D17*
X269761539Y-125676671D03*
D16*
%TO.P,MCU1,107*%
%TO.N,DISP_MOSI*%
X268386539Y-128216671D03*
D17*
X269761539Y-128216671D03*
D16*
%TO.P,MCU1,108*%
%TO.N,R0*%
X268386539Y-130756671D03*
D17*
X269761539Y-130756671D03*
D16*
%TO.P,MCU1,109*%
%TO.N,ENC_A*%
X268386539Y-133296671D03*
D17*
X269761539Y-133296671D03*
D16*
%TO.P,MCU1,110*%
%TO.N,ENC_B*%
X268386539Y-135836671D03*
D17*
X269761539Y-135836671D03*
D16*
%TO.P,MCU1,111*%
%TO.N,C6*%
X268386539Y-138376671D03*
D17*
X269761539Y-138376671D03*
D16*
%TO.P,MCU1,112*%
%TO.N,R1*%
X268386539Y-140916671D03*
D17*
X269761539Y-140916671D03*
D18*
%TO.P,MCU1,113*%
%TO.N,R2*%
X260211539Y-140916671D03*
D16*
X261586539Y-140916671D03*
D18*
%TO.P,MCU1,114*%
%TO.N,R3*%
X260211539Y-138376671D03*
D16*
X261586539Y-138376671D03*
D18*
%TO.P,MCU1,115*%
%TO.N,C5*%
X260211539Y-135836671D03*
D16*
X261586539Y-135836671D03*
D18*
%TO.P,MCU1,116*%
%TO.N,C4*%
X260211539Y-133296671D03*
D16*
X261586539Y-133296671D03*
D18*
%TO.P,MCU1,117*%
%TO.N,C3*%
X260211539Y-130756671D03*
D16*
X261586539Y-130756671D03*
D18*
%TO.P,MCU1,118*%
%TO.N,C2*%
X260211539Y-128216671D03*
D16*
X261586539Y-128216671D03*
D18*
%TO.P,MCU1,119*%
%TO.N,C1*%
X260211539Y-125676671D03*
D16*
X261586539Y-125676671D03*
D18*
%TO.P,MCU1,120*%
%TO.N,C0*%
X260211539Y-123136671D03*
D16*
X261586539Y-123136671D03*
D18*
%TO.P,MCU1,121*%
%TO.N,VCC*%
X260211539Y-120596671D03*
D16*
X261586539Y-120596671D03*
D18*
%TO.P,MCU1,122*%
%TO.N,RST*%
X260211539Y-118056671D03*
D16*
X261586539Y-118056671D03*
D18*
%TO.P,MCU1,123*%
%TO.N,GND*%
X260211539Y-115516671D03*
D16*
X261586539Y-115516671D03*
D18*
%TO.P,MCU1,124*%
%TO.N,RAW*%
X260211539Y-112976671D03*
D16*
X261586539Y-112976671D03*
%TD*%
D10*
%TO.P,D7,1*%
%TO.N,R2*%
X156895625Y-136442953D03*
D11*
X159015940Y-136855100D03*
%TO.P,D7,2*%
%TO.N,pinky_home*%
X162255310Y-137484770D03*
D12*
X164375625Y-137896917D03*
%TD*%
D10*
%TO.P,D4,1*%
%TO.N,R3*%
X141870079Y-114166666D03*
D11*
X143990394Y-114578813D03*
%TO.P,D4,2*%
%TO.N,outer_top*%
X147229764Y-115208483D03*
D12*
X149350079Y-115620630D03*
%TD*%
D10*
%TO.P,D23,1*%
%TO.N,R3*%
X235124662Y-132293520D03*
D11*
X237244977Y-132705667D03*
%TO.P,D23,2*%
%TO.N,inner_top*%
X240484347Y-133335337D03*
D12*
X242604662Y-133747484D03*
%TD*%
D10*
%TO.P,D17,1*%
%TO.N,R0*%
X206170060Y-181676017D03*
D11*
X208290375Y-182088164D03*
%TO.P,D17,2*%
%TO.N,index_utils*%
X211529745Y-182717834D03*
D12*
X213650060Y-183129981D03*
%TD*%
D19*
%TO.P,H5,*%
%TO.N,*%
X207923852Y-141522931D03*
%TD*%
%TO.P,H1,*%
%TO.N,*%
X140196206Y-92957605D03*
%TD*%
D10*
%TO.P,D8,1*%
%TO.N,R3*%
X160520996Y-117792037D03*
D11*
X162641311Y-118204184D03*
%TO.P,D8,2*%
%TO.N,pinky_top*%
X165880681Y-118833854D03*
D12*
X168000996Y-119246001D03*
%TD*%
D19*
%TO.P,H4,*%
%TO.N,*%
X274382525Y-173032768D03*
%TD*%
D10*
%TO.P,D10,1*%
%TO.N,R1*%
X172493598Y-155774359D03*
D11*
X174613913Y-156186506D03*
%TO.P,D10,2*%
%TO.N,ring_bottom*%
X177853283Y-156816176D03*
D12*
X179973598Y-157228323D03*
%TD*%
D10*
%TO.P,D22,1*%
%TO.N,R2*%
X231499291Y-150944437D03*
D11*
X233619606Y-151356584D03*
%TO.P,D22,2*%
%TO.N,inner_home*%
X236858976Y-151986254D03*
D12*
X238979291Y-152398401D03*
%TD*%
D10*
%TO.P,D16,1*%
%TO.N,R3*%
X198967683Y-119153015D03*
D11*
X201087998Y-119565162D03*
%TO.P,D16,2*%
%TO.N,middle_top*%
X204327368Y-120194832D03*
D12*
X206447683Y-120606979D03*
%TD*%
D20*
%TO.P,RE1,*%
%TO.N,*%
X259635797Y-159978504D03*
D21*
X270835797Y-159978504D03*
D22*
%TO.P,RE1,A*%
%TO.N,ENC_A*%
X267735797Y-168232504D03*
%TO.P,RE1,B*%
%TO.N,ENC_B*%
X265235797Y-168232504D03*
%TO.P,RE1,C*%
%TO.N,GND*%
X262735797Y-168232504D03*
%TO.P,RE1,S1*%
%TO.N,R1*%
X262735797Y-152978504D03*
%TO.P,RE1,S2*%
%TO.N,C6*%
X267735797Y-152978504D03*
%TD*%
D10*
%TO.P,D24,1*%
%TO.N,R0*%
X224248549Y-188246270D03*
D11*
X226368864Y-188658417D03*
%TO.P,D24,2*%
%TO.N,home_lower*%
X229608234Y-189288087D03*
D12*
X231728549Y-189700234D03*
%TD*%
D10*
%TO.P,D13,1*%
%TO.N,R0*%
X188091570Y-175105765D03*
D11*
X190211885Y-175517912D03*
%TO.P,D13,2*%
%TO.N,middle_utils*%
X193451255Y-176147582D03*
D12*
X195571570Y-176559729D03*
%TD*%
D19*
%TO.P,H3,*%
%TO.N,*%
X124849873Y-174528066D03*
%TD*%
D14*
%TO.P,RST1,1*%
%TO.N,RST*%
X245736539Y-104676671D03*
%TO.P,RST1,2*%
%TO.N,GND*%
X239236539Y-104676671D03*
%TD*%
D10*
%TO.P,D2,1*%
%TO.N,R1*%
X134619338Y-151468499D03*
D11*
X136739653Y-151880646D03*
%TO.P,D2,2*%
%TO.N,outer_bottom*%
X139979023Y-152510316D03*
D12*
X142099338Y-152922463D03*
%TD*%
D10*
%TO.P,D1,1*%
%TO.N,R0*%
X130993967Y-170119415D03*
D11*
X133114282Y-170531562D03*
%TO.P,D1,2*%
%TO.N,outer_utils*%
X136353652Y-171161232D03*
D12*
X138473967Y-171573379D03*
%TD*%
D10*
%TO.P,D3,1*%
%TO.N,R2*%
X138244709Y-132817582D03*
D11*
X140365024Y-133229729D03*
%TO.P,D3,2*%
%TO.N,outer_home*%
X143604394Y-133859399D03*
D12*
X145724709Y-134271546D03*
%TD*%
D10*
%TO.P,D12,1*%
%TO.N,R3*%
X179744339Y-118472526D03*
D11*
X181864654Y-118884673D03*
%TO.P,D12,2*%
%TO.N,ring_top*%
X185104024Y-119514343D03*
D12*
X187224339Y-119926490D03*
%TD*%
D10*
%TO.P,D11,1*%
%TO.N,R2*%
X176118969Y-137123443D03*
D11*
X178239284Y-137535590D03*
%TO.P,D11,2*%
%TO.N,ring_home*%
X181478654Y-138165260D03*
D12*
X183598969Y-138577407D03*
%TD*%
D10*
%TO.P,D6,1*%
%TO.N,R1*%
X153270254Y-155093870D03*
D11*
X155390569Y-155506017D03*
%TO.P,D6,2*%
%TO.N,pinky_bottom*%
X158629939Y-156135687D03*
D12*
X160750254Y-156547834D03*
%TD*%
D10*
%TO.P,D21,1*%
%TO.N,R1*%
X227873920Y-169595353D03*
D11*
X229994235Y-170007500D03*
%TO.P,D21,2*%
%TO.N,inner_bottom*%
X233233605Y-170637170D03*
D12*
X235353920Y-171049317D03*
%TD*%
D10*
%TO.P,D18,1*%
%TO.N,R1*%
X209795431Y-163025101D03*
D11*
X211915746Y-163437248D03*
%TO.P,D18,2*%
%TO.N,index_bottom*%
X215155116Y-164066918D03*
D12*
X217275431Y-164479065D03*
%TD*%
D10*
%TO.P,D20,1*%
%TO.N,R3*%
X217046172Y-125723268D03*
D11*
X219166487Y-126135415D03*
%TO.P,D20,2*%
%TO.N,index_top*%
X222405857Y-126765085D03*
D12*
X224526172Y-127177232D03*
%TD*%
D10*
%TO.P,D15,1*%
%TO.N,R2*%
X195342312Y-137803932D03*
D11*
X197462627Y-138216079D03*
%TO.P,D15,2*%
%TO.N,middle_home*%
X200701997Y-138845749D03*
D12*
X202822312Y-139257896D03*
%TD*%
D23*
%TO.P,D25,1*%
%TO.N,R0*%
X243342843Y-192924594D03*
D24*
X245397125Y-193592071D03*
%TO.P,D25,2*%
%TO.N,far_lower*%
X248535611Y-194611827D03*
D12*
X250589893Y-195279304D03*
%TD*%
D19*
%TO.P,H2,*%
%TO.N,*%
X274145810Y-93017495D03*
%TD*%
D10*
%TO.P,D19,1*%
%TO.N,R2*%
X213420802Y-144374184D03*
D11*
X215541117Y-144786331D03*
%TO.P,D19,2*%
%TO.N,index_home*%
X218780487Y-145416001D03*
D12*
X220900802Y-145828148D03*
%TD*%
D25*
%TO.P,DISP1,1*%
%TO.N,DISP1_1*%
X259906539Y-146376671D03*
%TO.P,DISP1,2*%
%TO.N,DISP1_2*%
X262446539Y-146376671D03*
%TO.P,DISP1,3*%
%TO.N,VCC*%
X264986539Y-146376671D03*
%TO.P,DISP1,4*%
%TO.N,DISP1_4*%
X267526539Y-146376671D03*
D14*
%TO.P,DISP1,5*%
%TO.N,DISP1_5*%
X270066539Y-146376671D03*
D26*
%TO.P,DISP1,10*%
%TO.N,DISP1_1*%
X259906539Y-144626671D03*
%TO.P,DISP1,11*%
%TO.N,DISP1_2*%
X262446539Y-144626671D03*
%TO.P,DISP1,12*%
%TO.N,DISP1_4*%
X267526539Y-144626671D03*
%TO.P,DISP1,13*%
%TO.N,DISP1_5*%
X270066539Y-144626671D03*
%TO.P,DISP1,14*%
%TO.N,DISP_CS*%
X259906539Y-143726671D03*
%TO.P,DISP1,15*%
%TO.N,GND*%
X262446539Y-143726671D03*
%TO.P,DISP1,16*%
%TO.N,DISP_SCK*%
X267526539Y-143726671D03*
%TO.P,DISP1,17*%
%TO.N,DISP_MOSI*%
X270066539Y-143726671D03*
%TD*%
D27*
%TO.P,S11,*%
%TO.N,*%
X175590043Y-133607928D03*
X185406315Y-135516018D03*
D28*
%TO.P,S11,1*%
%TO.N,C2*%
X185830988Y-124290811D03*
D29*
%TO.P,S11,2*%
%TO.N,ring_home*%
X174073414Y-124246547D03*
%TD*%
D27*
%TO.P,S17,*%
%TO.N,*%
X205641134Y-178160503D03*
X215457406Y-180068593D03*
D28*
%TO.P,S17,1*%
%TO.N,C4*%
X215882079Y-168843386D03*
D29*
%TO.P,S17,2*%
%TO.N,index_utils*%
X204124505Y-168799122D03*
%TD*%
D27*
%TO.P,S1,*%
%TO.N,*%
X130465041Y-166603901D03*
X140281313Y-168511991D03*
D28*
%TO.P,S1,1*%
%TO.N,C0*%
X140705986Y-157286784D03*
D29*
%TO.P,S1,2*%
%TO.N,outer_utils*%
X128948412Y-157242520D03*
%TD*%
D27*
%TO.P,S24,*%
%TO.N,*%
X223719624Y-184730756D03*
X233535896Y-186638846D03*
D28*
%TO.P,S24,1*%
%TO.N,C5*%
X233960569Y-175413639D03*
D29*
%TO.P,S24,2*%
%TO.N,home_lower*%
X222202995Y-175369375D03*
%TD*%
D27*
%TO.P,S13,*%
%TO.N,*%
X187562645Y-171590251D03*
X197378917Y-173498341D03*
D28*
%TO.P,S13,1*%
%TO.N,C3*%
X197803590Y-162273134D03*
D29*
%TO.P,S13,2*%
%TO.N,middle_utils*%
X186046016Y-162228870D03*
%TD*%
D27*
%TO.P,S20,*%
%TO.N,*%
X216517247Y-122207754D03*
X226333519Y-124115844D03*
D28*
%TO.P,S20,1*%
%TO.N,C4*%
X226758192Y-112890637D03*
D29*
%TO.P,S20,2*%
%TO.N,index_top*%
X215000618Y-112846373D03*
%TD*%
D27*
%TO.P,S23,*%
%TO.N,*%
X234595737Y-128778006D03*
X244412009Y-130686096D03*
D28*
%TO.P,S23,1*%
%TO.N,C5*%
X244836682Y-119460889D03*
D29*
%TO.P,S23,2*%
%TO.N,inner_top*%
X233079108Y-119416625D03*
%TD*%
D27*
%TO.P,S10,*%
%TO.N,*%
X171964672Y-152258845D03*
X181780944Y-154166935D03*
D28*
%TO.P,S10,1*%
%TO.N,C2*%
X182205617Y-142941728D03*
D29*
%TO.P,S10,2*%
%TO.N,ring_bottom*%
X170448043Y-142897464D03*
%TD*%
D27*
%TO.P,S6,*%
%TO.N,*%
X152741329Y-151578356D03*
X162557601Y-153486446D03*
D28*
%TO.P,S6,1*%
%TO.N,C1*%
X162982274Y-142261239D03*
D29*
%TO.P,S6,2*%
%TO.N,pinky_bottom*%
X151224700Y-142216975D03*
%TD*%
D27*
%TO.P,S7,*%
%TO.N,*%
X156366700Y-132927439D03*
X166182972Y-134835529D03*
D28*
%TO.P,S7,1*%
%TO.N,C1*%
X166607645Y-123610322D03*
D29*
%TO.P,S7,2*%
%TO.N,pinky_home*%
X154850071Y-123566058D03*
%TD*%
D27*
%TO.P,S21,*%
%TO.N,*%
X227344995Y-166079839D03*
X237161267Y-167987929D03*
D28*
%TO.P,S21,1*%
%TO.N,C5*%
X237585940Y-156762722D03*
D29*
%TO.P,S21,2*%
%TO.N,inner_bottom*%
X225828366Y-156718458D03*
%TD*%
D27*
%TO.P,S18,*%
%TO.N,*%
X209266505Y-159509587D03*
X219082777Y-161417677D03*
D28*
%TO.P,S18,1*%
%TO.N,C4*%
X219507450Y-150192470D03*
D29*
%TO.P,S18,2*%
%TO.N,index_bottom*%
X207749876Y-150148206D03*
%TD*%
D27*
%TO.P,S12,*%
%TO.N,*%
X179215414Y-114957012D03*
X189031686Y-116865102D03*
D28*
%TO.P,S12,1*%
%TO.N,C2*%
X189456359Y-105639895D03*
D29*
%TO.P,S12,2*%
%TO.N,ring_top*%
X177698785Y-105595631D03*
%TD*%
D27*
%TO.P,S15,*%
%TO.N,*%
X194813387Y-134288418D03*
X204629659Y-136196508D03*
D28*
%TO.P,S15,1*%
%TO.N,C3*%
X205054332Y-124971301D03*
D29*
%TO.P,S15,2*%
%TO.N,middle_home*%
X193296758Y-124927037D03*
%TD*%
D27*
%TO.P,S22,*%
%TO.N,*%
X230970366Y-147428923D03*
X240786638Y-149337013D03*
D28*
%TO.P,S22,1*%
%TO.N,C5*%
X241211311Y-138111806D03*
D29*
%TO.P,S22,2*%
%TO.N,inner_home*%
X229453737Y-138067542D03*
%TD*%
D27*
%TO.P,S2,*%
%TO.N,*%
X134090412Y-147952985D03*
X143906684Y-149861075D03*
D28*
%TO.P,S2,1*%
%TO.N,C0*%
X144331357Y-138635868D03*
D29*
%TO.P,S2,2*%
%TO.N,outer_bottom*%
X132573783Y-138591604D03*
%TD*%
D27*
%TO.P,S14,*%
%TO.N,*%
X191188016Y-152939334D03*
X201004288Y-154847424D03*
D28*
%TO.P,S14,1*%
%TO.N,C3*%
X201428961Y-143622217D03*
D29*
%TO.P,S14,2*%
%TO.N,middle_bottom*%
X189671387Y-143577953D03*
%TD*%
D27*
%TO.P,S19,*%
%TO.N,*%
X212891876Y-140858670D03*
X222708148Y-142766760D03*
D28*
%TO.P,S19,1*%
%TO.N,C4*%
X223132821Y-131541553D03*
D29*
%TO.P,S19,2*%
%TO.N,index_home*%
X211375247Y-131497289D03*
%TD*%
D27*
%TO.P,S25,*%
%TO.N,*%
X243246292Y-189370825D03*
X252756857Y-192460995D03*
D30*
%TO.P,S25,1*%
%TO.N,C6*%
X254546373Y-181371213D03*
D31*
%TO.P,S25,2*%
%TO.N,far_lower*%
X242881833Y-179894391D03*
%TD*%
D27*
%TO.P,S9,*%
%TO.N,*%
X168339301Y-170909761D03*
X178155573Y-172817851D03*
D28*
%TO.P,S9,1*%
%TO.N,C2*%
X178580246Y-161592644D03*
D29*
%TO.P,S9,2*%
%TO.N,ring_utils*%
X166822672Y-161548380D03*
%TD*%
D27*
%TO.P,S3,*%
%TO.N,*%
X137715783Y-129302068D03*
X147532055Y-131210158D03*
D28*
%TO.P,S3,1*%
%TO.N,C0*%
X147956728Y-119984951D03*
D29*
%TO.P,S3,2*%
%TO.N,outer_home*%
X136199154Y-119940687D03*
%TD*%
D27*
%TO.P,S8,*%
%TO.N,*%
X159992071Y-114276523D03*
X169808343Y-116184613D03*
D28*
%TO.P,S8,1*%
%TO.N,C1*%
X170233016Y-104959406D03*
D29*
%TO.P,S8,2*%
%TO.N,pinky_top*%
X158475442Y-104915142D03*
%TD*%
D27*
%TO.P,S5,*%
%TO.N,*%
X149115958Y-170229272D03*
X158932230Y-172137362D03*
D28*
%TO.P,S5,1*%
%TO.N,C1*%
X159356903Y-160912155D03*
D29*
%TO.P,S5,2*%
%TO.N,pinky_utils*%
X147599329Y-160867891D03*
%TD*%
D27*
%TO.P,S16,*%
%TO.N,*%
X198438757Y-115637501D03*
X208255029Y-117545591D03*
D28*
%TO.P,S16,1*%
%TO.N,C3*%
X208679702Y-106320384D03*
D29*
%TO.P,S16,2*%
%TO.N,middle_top*%
X196922128Y-106276120D03*
%TD*%
D27*
%TO.P,S4,*%
%TO.N,*%
X141341154Y-110651152D03*
X151157426Y-112559242D03*
D28*
%TO.P,S4,1*%
%TO.N,C0*%
X151582099Y-101334035D03*
D29*
%TO.P,S4,2*%
%TO.N,outer_top*%
X139824525Y-101289771D03*
%TD*%
D32*
%TO.N,C0*%
X137095228Y-158698761D03*
X147971341Y-102746011D03*
X140720599Y-140047844D03*
X144345970Y-121396928D03*
%TO.N,outer_utils*%
X136942581Y-159484063D03*
%TO.N,GND*%
X260873364Y-116710888D03*
X264386539Y-143000000D03*
%TO.N,outer_bottom*%
X140567952Y-140833146D03*
%TO.N,outer_home*%
X144193323Y-122182230D03*
%TO.N,outer_top*%
X147818694Y-103531313D03*
%TO.N,C1*%
X162996887Y-125022299D03*
X159371516Y-143673215D03*
X155746145Y-162324132D03*
X166622257Y-106371382D03*
%TO.N,pinky_utils*%
X155593497Y-163109433D03*
%TO.N,pinky_bottom*%
X159218868Y-144458517D03*
%TO.N,pinky_home*%
X162844239Y-125807601D03*
%TO.N,pinky_top*%
X166469610Y-107156684D03*
%TO.N,C2*%
X182220230Y-125702788D03*
X174969488Y-163004621D03*
X178594859Y-144353705D03*
X185845601Y-107051872D03*
%TO.N,ring_utils*%
X174816841Y-163789923D03*
%TO.N,ring_bottom*%
X178442212Y-145139006D03*
%TO.N,ring_home*%
X182067583Y-126488090D03*
%TO.N,ring_top*%
X185692954Y-107837173D03*
%TO.N,C3*%
X201443573Y-126383278D03*
X205068944Y-107732361D03*
X194192832Y-163685110D03*
X197818203Y-145034194D03*
%TO.N,middle_utils*%
X194040184Y-164470412D03*
%TO.N,middle_bottom*%
X197665555Y-145819496D03*
%TO.N,middle_home*%
X201290926Y-127168579D03*
%TO.N,middle_top*%
X204916297Y-108517663D03*
%TO.N,C4*%
X212271321Y-170255363D03*
X215896692Y-151604446D03*
X219522063Y-132953530D03*
X223147434Y-114302614D03*
%TO.N,index_utils*%
X212118674Y-171040665D03*
%TO.N,index_bottom*%
X215744045Y-152389748D03*
%TO.N,index_home*%
X219369416Y-133738832D03*
%TO.N,index_top*%
X222994787Y-115087915D03*
%TO.N,C5*%
X230349811Y-176825615D03*
X241225923Y-120872866D03*
X233975182Y-158174699D03*
X237600553Y-139523782D03*
%TO.N,inner_bottom*%
X233822534Y-158960001D03*
%TO.N,inner_home*%
X237447905Y-140309084D03*
%TO.N,inner_top*%
X241073276Y-121658168D03*
%TO.N,home_lower*%
X230197164Y-177610917D03*
%TO.N,C6*%
X250790453Y-182332625D03*
%TO.N,far_lower*%
X250543239Y-183093470D03*
%TO.N,VCC*%
X265000000Y-119000000D03*
%TO.N,DISP_CS*%
X265000000Y-149500000D03*
%TO.N,DISP_SCK*%
X265586539Y-143000000D03*
%TO.N,DISP_MOSI*%
X265000000Y-148500000D03*
%TD*%
%TO.N,C0*%
D33*
X140705986Y-157286784D02*
X138273181Y-158927732D01*
D34*
X260211539Y-123136671D02*
X260211539Y-122506671D01*
D33*
X149149294Y-102974982D02*
X147971341Y-102746011D01*
D34*
X259666539Y-121961671D02*
X254961671Y-121961671D01*
X254000000Y-117500000D02*
X244500000Y-108000000D01*
X260211539Y-122506671D02*
X259666539Y-121961671D01*
D33*
X141898552Y-140276815D02*
X140720599Y-140047844D01*
D34*
X225000000Y-100000000D02*
X152916134Y-100000000D01*
D33*
X147956728Y-119984951D02*
X145523923Y-121625899D01*
X145523923Y-121625899D02*
X144345970Y-121396928D01*
X151582099Y-101334034D02*
X149149294Y-102974982D01*
D34*
X254000000Y-121000000D02*
X254000000Y-117500000D01*
X244500000Y-108000000D02*
X233000000Y-108000000D01*
X260211539Y-123136671D02*
X261586539Y-123136671D01*
D33*
X144331357Y-138635867D02*
X141898552Y-140276815D01*
D34*
X254961671Y-121961671D02*
X254000000Y-121000000D01*
X152916134Y-100000000D02*
X151582099Y-101334035D01*
X233000000Y-108000000D02*
X225000000Y-100000000D01*
D33*
X138273181Y-158927732D02*
X137095228Y-158698761D01*
%TO.N,outer_utils*%
X134603192Y-160230398D02*
X135985495Y-159298024D01*
X138473967Y-171573379D02*
X136765799Y-171573379D01*
X128948412Y-157242520D02*
X130414589Y-159416216D01*
X135985495Y-159298024D02*
X136942581Y-159484063D01*
X136765799Y-171573379D02*
X136353652Y-171161232D01*
X130414589Y-159416216D02*
X134603192Y-160230398D01*
%TO.N,GND*%
D34*
X260211539Y-116049063D02*
X260873364Y-116710888D01*
X269761539Y-120596671D02*
X268386538Y-120596671D01*
X269443329Y-118056671D02*
X268250000Y-119250000D01*
D33*
X264400000Y-141773210D02*
X264400000Y-118751471D01*
D34*
X247500000Y-102500000D02*
X241413210Y-102500000D01*
D33*
X264386539Y-143000000D02*
X263973144Y-142586605D01*
D34*
X247500000Y-104771833D02*
X247500000Y-102500000D01*
X260211539Y-115516671D02*
X260211539Y-115293363D01*
X256879838Y-114151671D02*
X247500000Y-104771833D01*
X259069847Y-114151671D02*
X256879838Y-114151671D01*
X260211539Y-115516671D02*
X261586539Y-115516671D01*
D33*
X268250000Y-119250000D02*
X269596671Y-120596671D01*
X269596671Y-120596671D02*
X269761539Y-120596671D01*
D34*
X269761539Y-118056671D02*
X268386538Y-118056671D01*
D33*
X263973144Y-142586605D02*
X263586605Y-142586605D01*
X264400000Y-118751471D02*
X265151471Y-118000000D01*
D34*
X241413210Y-102500000D02*
X239236539Y-104676671D01*
D33*
X267000000Y-118000000D02*
X268250000Y-119250000D01*
X265151471Y-118000000D02*
X267000000Y-118000000D01*
X262446539Y-143726671D02*
X263586605Y-142586605D01*
D34*
X260211539Y-115293363D02*
X259069847Y-114151671D01*
X269761539Y-118056671D02*
X269443329Y-118056671D01*
D33*
X263586605Y-142586605D02*
X264400000Y-141773210D01*
D34*
X260211539Y-115516671D02*
X260211539Y-116049063D01*
%TO.N,outer_bottom*%
D33*
X142099338Y-152922463D02*
X140391170Y-152922463D01*
X139610865Y-140647107D02*
X140567952Y-140833146D01*
X134039960Y-140765300D02*
X138228563Y-141579482D01*
X132573783Y-138591603D02*
X134039960Y-140765300D01*
X138228563Y-141579482D02*
X139610865Y-140647107D01*
X140391170Y-152922463D02*
X139979023Y-152510316D01*
%TO.N,outer_home*%
X137665331Y-122114384D02*
X141853934Y-122928566D01*
X136199154Y-119940687D02*
X137665331Y-122114384D01*
X143604394Y-133859399D02*
X144016541Y-134271546D01*
X144016541Y-134271546D02*
X145724709Y-134271546D01*
X143236236Y-121996191D02*
X144193323Y-122182230D01*
X141853934Y-122928566D02*
X143236236Y-121996191D01*
%TO.N,outer_top*%
X147641911Y-115620630D02*
X149350079Y-115620630D01*
X139824525Y-101289770D02*
X141290702Y-103463467D01*
X141290702Y-103463467D02*
X145479305Y-104277649D01*
X146861607Y-103345274D02*
X147818694Y-103531313D01*
X145479305Y-104277649D02*
X146861607Y-103345274D01*
X147229764Y-115208483D02*
X147641911Y-115620630D01*
%TO.N,C1*%
D34*
X244000000Y-109000000D02*
X232500000Y-109000000D01*
D33*
X156924097Y-162553103D02*
X155746145Y-162324132D01*
D34*
X224500000Y-101000000D02*
X174192422Y-101000000D01*
X174192422Y-101000000D02*
X170233016Y-104959406D01*
D33*
X170233015Y-104959405D02*
X167800210Y-106600353D01*
X164174839Y-125251270D02*
X162996887Y-125022299D01*
X167800210Y-106600353D02*
X166622257Y-106371382D01*
X159356902Y-160912155D02*
X156924097Y-162553103D01*
D34*
X260211539Y-125676671D02*
X261586539Y-125676671D01*
D33*
X166607644Y-123610322D02*
X164174839Y-125251270D01*
D34*
X253000000Y-123000000D02*
X253000000Y-118000000D01*
D33*
X162982273Y-142261238D02*
X160549468Y-143902186D01*
D34*
X232500000Y-109000000D02*
X224500000Y-101000000D01*
X259664868Y-124500000D02*
X254500000Y-124500000D01*
X260211539Y-125046671D02*
X259664868Y-124500000D01*
X260211539Y-125676671D02*
X260211539Y-125046671D01*
X254500000Y-124500000D02*
X253000000Y-123000000D01*
X253000000Y-118000000D02*
X244000000Y-109000000D01*
D33*
X160549468Y-143902186D02*
X159371516Y-143673215D01*
%TO.N,pinky_utils*%
X157124883Y-175198750D02*
X155416715Y-175198750D01*
X153254109Y-163855769D02*
X154636411Y-162923395D01*
X149065506Y-163041587D02*
X153254109Y-163855769D01*
X154636411Y-162923395D02*
X155593497Y-163109433D01*
X147599329Y-160867891D02*
X149065506Y-163041587D01*
X155416715Y-175198750D02*
X155004568Y-174786603D01*
%TO.N,pinky_bottom*%
X156879480Y-145204853D02*
X158261782Y-144272478D01*
X159042086Y-156547834D02*
X160750254Y-156547834D01*
X151224700Y-142216974D02*
X152690876Y-144390671D01*
X158261782Y-144272478D02*
X159218868Y-144458517D01*
X158629939Y-156135687D02*
X159042086Y-156547834D01*
X152690876Y-144390671D02*
X156879480Y-145204853D01*
%TO.N,pinky_home*%
X154850070Y-123566058D02*
X156316247Y-125739754D01*
X156316247Y-125739754D02*
X160504851Y-126553936D01*
X161887153Y-125621562D02*
X162844239Y-125807601D01*
X164375625Y-137896917D02*
X162667457Y-137896917D01*
X160504851Y-126553936D02*
X161887153Y-125621562D01*
X162667457Y-137896917D02*
X162255310Y-137484770D01*
%TO.N,pinky_top*%
X166292828Y-119246001D02*
X168000996Y-119246001D01*
X159941618Y-107088838D02*
X164130221Y-107903020D01*
X165880681Y-118833854D02*
X166292828Y-119246001D01*
X158475441Y-104915141D02*
X159941618Y-107088838D01*
X164130221Y-107903020D02*
X165512524Y-106970645D01*
X165512524Y-106970645D02*
X166469610Y-107156684D01*
%TO.N,C2*%
D34*
X232000000Y-110000000D02*
X224000000Y-102000000D01*
X259069847Y-126851671D02*
X255351671Y-126851671D01*
D33*
X176147441Y-163233592D02*
X174969488Y-163004621D01*
X189456359Y-105639895D02*
X187023554Y-107280843D01*
D34*
X260211539Y-127993363D02*
X259069847Y-126851671D01*
X260211539Y-128216671D02*
X261586539Y-128216671D01*
X252000000Y-123500000D02*
X252000000Y-118500000D01*
X252000000Y-118500000D02*
X243500000Y-110000000D01*
D33*
X182205617Y-142941728D02*
X179772812Y-144582675D01*
D34*
X193096254Y-102000000D02*
X189456359Y-105639895D01*
X243500000Y-110000000D02*
X232000000Y-110000000D01*
D33*
X183398183Y-125931759D02*
X182220230Y-125702788D01*
X187023554Y-107280843D02*
X185845601Y-107051872D01*
X178580246Y-161592644D02*
X176147441Y-163233592D01*
X179772812Y-144582675D02*
X178594859Y-144353705D01*
D34*
X260211539Y-128216671D02*
X260211539Y-127993363D01*
D33*
X185830988Y-124290811D02*
X183398183Y-125931759D01*
D34*
X224000000Y-102000000D02*
X193096254Y-102000000D01*
X255351671Y-126851671D02*
X252000000Y-123500000D01*
%TO.N,ring_utils*%
D33*
X172477452Y-164536259D02*
X173859754Y-163603884D01*
X168288849Y-163722077D02*
X172477452Y-164536259D01*
X173859754Y-163603884D02*
X174816841Y-163789923D01*
X166822672Y-161548380D02*
X168288849Y-163722077D01*
X174227912Y-175467093D02*
X174640059Y-175879240D01*
X174640059Y-175879240D02*
X176348227Y-175879240D01*
%TO.N,ring_bottom*%
X176102823Y-145885342D02*
X177485125Y-144952968D01*
X170448043Y-142897464D02*
X171914220Y-145071160D01*
X171914220Y-145071160D02*
X176102823Y-145885342D01*
X177485125Y-144952968D02*
X178442212Y-145139006D01*
X178265430Y-157228323D02*
X179973598Y-157228323D01*
X177853283Y-156816176D02*
X178265430Y-157228323D01*
%TO.N,ring_home*%
X181110496Y-126302051D02*
X182067583Y-126488090D01*
X179728194Y-127234426D02*
X181110496Y-126302051D01*
X175539591Y-126420244D02*
X179728194Y-127234426D01*
X174073414Y-124246547D02*
X175539591Y-126420244D01*
X181890801Y-138577407D02*
X181478654Y-138165260D01*
X183598969Y-138577407D02*
X181890801Y-138577407D01*
%TO.N,ring_top*%
X177698785Y-105595631D02*
X179164962Y-107769327D01*
X183353565Y-108583509D02*
X184735867Y-107651135D01*
X185104024Y-119514343D02*
X185516171Y-119926490D01*
X185516171Y-119926490D02*
X187224339Y-119926490D01*
X179164962Y-107769327D02*
X183353565Y-108583509D01*
X184735867Y-107651135D02*
X185692954Y-107837173D01*
%TO.N,C3*%
D34*
X254891671Y-129391671D02*
X251000000Y-125500000D01*
D33*
X197803589Y-162273133D02*
X195370784Y-163914081D01*
D34*
X251000000Y-125500000D02*
X251000000Y-119000000D01*
D33*
X195370784Y-163914081D02*
X194192832Y-163685110D01*
D34*
X259476539Y-129391671D02*
X254891671Y-129391671D01*
D33*
X205054331Y-124971301D02*
X202621526Y-126612248D01*
X208679702Y-106320384D02*
X206246897Y-107961332D01*
X198996155Y-145263165D02*
X197818203Y-145034194D01*
D34*
X225820384Y-106320384D02*
X208679702Y-106320384D01*
D33*
X206246897Y-107961332D02*
X205068944Y-107732361D01*
X201428960Y-143622217D02*
X198996155Y-145263165D01*
D34*
X251000000Y-119000000D02*
X243500000Y-111500000D01*
X260211539Y-130756671D02*
X261586539Y-130756671D01*
D33*
X202621526Y-126612248D02*
X201443573Y-126383278D01*
D34*
X231000000Y-111500000D02*
X225820384Y-106320384D01*
X243500000Y-111500000D02*
X231000000Y-111500000D01*
X260211539Y-130126671D02*
X259476539Y-129391671D01*
X260211539Y-130756671D02*
X260211539Y-130126671D01*
%TO.N,middle_utils*%
D33*
X187512192Y-164402566D02*
X191700796Y-165216748D01*
X195571570Y-176559729D02*
X193863402Y-176559729D01*
X191700796Y-165216748D02*
X193083098Y-164284373D01*
X193083098Y-164284373D02*
X194040184Y-164470412D01*
X186046016Y-162228869D02*
X187512192Y-164402566D01*
X193863402Y-176559729D02*
X193451255Y-176147582D01*
%TO.N,middle_bottom*%
X189671386Y-143577953D02*
X191137563Y-145751650D01*
X191137563Y-145751650D02*
X195326167Y-146565832D01*
X196708469Y-145633457D02*
X197665555Y-145819496D01*
X197488773Y-157908812D02*
X199196941Y-157908812D01*
X195326167Y-146565832D02*
X196708469Y-145633457D01*
X197076626Y-157496665D02*
X197488773Y-157908812D01*
%TO.N,middle_home*%
X193296757Y-124927036D02*
X194762934Y-127100733D01*
X201114144Y-139257896D02*
X200701997Y-138845749D01*
X202822312Y-139257896D02*
X201114144Y-139257896D01*
X198951537Y-127914915D02*
X200333840Y-126982540D01*
X200333840Y-126982540D02*
X201290926Y-127168579D01*
X194762934Y-127100733D02*
X198951537Y-127914915D01*
%TO.N,middle_top*%
X198388305Y-108449817D02*
X202576908Y-109263999D01*
X204327368Y-120194832D02*
X204739515Y-120606979D01*
X204739515Y-120606979D02*
X206447683Y-120606979D01*
X203959211Y-108331624D02*
X204916297Y-108517663D01*
X196922128Y-106276120D02*
X198388305Y-108449817D01*
X202576908Y-109263999D02*
X203959211Y-108331624D01*
%TO.N,C4*%
X224325386Y-114531584D02*
X223147434Y-114302614D01*
D34*
X256000000Y-132000000D02*
X250000000Y-126000000D01*
X260211539Y-133296671D02*
X261586539Y-133296671D01*
D33*
X219507450Y-150192469D02*
X217074645Y-151833417D01*
X213449274Y-170484334D02*
X212271321Y-170255363D01*
D34*
X260211539Y-133296671D02*
X260211539Y-132666671D01*
X243390637Y-112890637D02*
X226758192Y-112890637D01*
X260211539Y-132666671D02*
X259544868Y-132000000D01*
D33*
X215882079Y-168843386D02*
X213449274Y-170484334D01*
X223132821Y-131541553D02*
X220700016Y-133182501D01*
D34*
X250000000Y-126000000D02*
X250000000Y-119500000D01*
X259544868Y-132000000D02*
X256000000Y-132000000D01*
D33*
X226758191Y-112890637D02*
X224325386Y-114531584D01*
D34*
X250000000Y-119500000D02*
X243390637Y-112890637D01*
D33*
X220700016Y-133182501D02*
X219522063Y-132953530D01*
X217074645Y-151833417D02*
X215896692Y-151604446D01*
%TO.N,index_utils*%
X204124505Y-168799122D02*
X205590682Y-170972819D01*
X209779285Y-171787000D02*
X211161587Y-170854626D01*
X211941892Y-183129981D02*
X211529745Y-182717834D01*
X211161587Y-170854626D02*
X212118674Y-171040665D01*
X213650060Y-183129981D02*
X211941892Y-183129981D01*
X205590682Y-170972819D02*
X209779285Y-171787000D01*
%TO.N,index_bottom*%
X207749876Y-150148205D02*
X209216053Y-152321902D01*
X213404656Y-153136084D02*
X214786958Y-152203709D01*
X215567263Y-164479065D02*
X217275431Y-164479065D01*
X215155116Y-164066918D02*
X215567263Y-164479065D01*
X214786958Y-152203709D02*
X215744045Y-152389748D01*
X209216053Y-152321902D02*
X213404656Y-153136084D01*
%TO.N,index_home*%
X218412329Y-133552793D02*
X219369416Y-133738832D01*
X211375247Y-131497289D02*
X212841424Y-133670986D01*
X220900802Y-145828148D02*
X219192634Y-145828148D01*
X219192634Y-145828148D02*
X218780487Y-145416001D01*
X212841424Y-133670986D02*
X217030027Y-134485168D01*
X217030027Y-134485168D02*
X218412329Y-133552793D01*
%TO.N,index_top*%
X220655398Y-115834251D02*
X222037700Y-114901876D01*
X222037700Y-114901876D02*
X222994787Y-115087915D01*
X222818004Y-127177232D02*
X224526172Y-127177232D01*
X215000618Y-112846372D02*
X216466795Y-115020069D01*
X216466795Y-115020069D02*
X220655398Y-115834251D01*
X222405857Y-126765085D02*
X222818004Y-127177232D01*
%TO.N,C5*%
D34*
X249000000Y-126591833D02*
X249000000Y-120500000D01*
X260211539Y-135836671D02*
X261586539Y-135836671D01*
D33*
X238778505Y-139752753D02*
X237600553Y-139523782D01*
X242403876Y-121101837D02*
X241225923Y-120872866D01*
X237585939Y-156762722D02*
X235153134Y-158403670D01*
D34*
X260211539Y-135711539D02*
X259161671Y-134661671D01*
D33*
X233960568Y-175413638D02*
X231527763Y-177054586D01*
D34*
X247960889Y-119460889D02*
X244836682Y-119460889D01*
D33*
X235153134Y-158403670D02*
X233975182Y-158174699D01*
D34*
X259161671Y-134661671D02*
X257069838Y-134661671D01*
X260211539Y-135836671D02*
X260211539Y-135711539D01*
D33*
X241211310Y-138111805D02*
X238778505Y-139752753D01*
D34*
X257069838Y-134661671D02*
X249000000Y-126591833D01*
D33*
X244836681Y-119460889D02*
X242403876Y-121101837D01*
D34*
X249000000Y-120500000D02*
X247960889Y-119460889D01*
D33*
X231527763Y-177054586D02*
X230349811Y-176825615D01*
%TO.N,inner_bottom*%
X233645752Y-171049317D02*
X235353920Y-171049317D01*
X233233605Y-170637170D02*
X233645752Y-171049317D01*
X232865448Y-158773962D02*
X233822534Y-158960001D01*
X225828366Y-156718458D02*
X227294542Y-158892155D01*
X231483146Y-159706337D02*
X232865448Y-158773962D01*
X227294542Y-158892155D02*
X231483146Y-159706337D01*
%TO.N,inner_home*%
X230919913Y-140241238D02*
X235108516Y-141055420D01*
X236490819Y-140123045D02*
X237447905Y-140309084D01*
X229453736Y-138067541D02*
X230919913Y-140241238D01*
X237271123Y-152398401D02*
X236858976Y-151986254D01*
X235108516Y-141055420D02*
X236490819Y-140123045D01*
X238979291Y-152398401D02*
X237271123Y-152398401D01*
%TO.N,inner_top*%
X234545284Y-121590322D02*
X238733887Y-122404504D01*
X240484347Y-133335337D02*
X240896494Y-133747484D01*
X240896494Y-133747484D02*
X242604662Y-133747484D01*
X238733887Y-122404504D02*
X240116190Y-121472129D01*
X233079107Y-119416625D02*
X234545284Y-121590322D01*
X240116190Y-121472129D02*
X241073276Y-121658168D01*
%TO.N,home_lower*%
X227857775Y-178357253D02*
X229240077Y-177424878D01*
X222202995Y-175369374D02*
X223669172Y-177543071D01*
X223669172Y-177543071D02*
X227857775Y-178357253D01*
X229240077Y-177424878D02*
X230197164Y-177610917D01*
X230020381Y-189700234D02*
X231728549Y-189700234D01*
X229608234Y-189288087D02*
X230020381Y-189700234D01*
%TO.N,C6*%
D34*
X273093240Y-139741671D02*
X273781539Y-140429970D01*
X270496539Y-139741671D02*
X273093240Y-139741671D01*
X266536177Y-154178124D02*
X262776557Y-154178124D01*
D33*
X251931721Y-182703445D02*
X250790453Y-182332625D01*
X254546373Y-181371213D02*
X251931721Y-182703445D01*
D34*
X273781539Y-146932762D02*
X267735797Y-152978504D01*
X273781539Y-140429970D02*
X273781539Y-146932762D01*
X257000000Y-159954681D02*
X257000000Y-178917586D01*
X257000000Y-178917586D02*
X254546373Y-181371213D01*
X269761539Y-138376671D02*
X269761539Y-139006671D01*
X262776557Y-154178124D02*
X257000000Y-159954681D01*
X269761539Y-138376671D02*
X268386538Y-138376671D01*
X267735797Y-152978504D02*
X266536177Y-154178124D01*
X269761539Y-139006671D02*
X270496539Y-139741671D01*
%TO.N,far_lower*%
D33*
X248130332Y-183549143D02*
X249615959Y-182792178D01*
X244072174Y-182230567D02*
X248130332Y-183549143D01*
X250589893Y-195279304D02*
X249203088Y-195279304D01*
X249615959Y-182792178D02*
X250543239Y-183093470D01*
X249203088Y-195279304D02*
X248535611Y-194611827D01*
X242881833Y-179894391D02*
X244072174Y-182230567D01*
%TO.N,R0*%
X132702135Y-170119415D02*
X130993967Y-170119415D01*
D34*
X269761539Y-130756671D02*
X269761539Y-131386671D01*
D33*
X188091570Y-175105765D02*
X187478058Y-174492253D01*
X149644883Y-173744786D02*
X136327506Y-173744786D01*
X133114282Y-170531562D02*
X132702135Y-170119415D01*
D34*
X275131539Y-168368461D02*
X252314005Y-191185995D01*
D33*
X230635041Y-192924594D02*
X226368864Y-188658417D01*
X170576395Y-174425276D02*
X168868227Y-174425276D01*
X152110368Y-173811763D02*
X151765198Y-174156933D01*
X171333712Y-174492253D02*
X170988542Y-174837423D01*
X151353051Y-173744786D02*
X149644883Y-173744786D01*
X136327506Y-173744786D02*
X133114282Y-170531562D01*
X207878228Y-181676017D02*
X206170060Y-181676017D01*
D34*
X275131539Y-133631539D02*
X275131539Y-168368461D01*
D33*
X168868227Y-174425276D02*
X168254714Y-173811763D01*
X187478058Y-174492253D02*
X171333712Y-174492253D01*
X168254714Y-173811763D02*
X152110368Y-173811763D01*
D34*
X273431671Y-131931671D02*
X275131539Y-133631539D01*
D33*
X243342843Y-192924594D02*
X230635041Y-192924594D01*
X151765198Y-174156933D02*
X151353051Y-173744786D01*
X170988542Y-174837423D02*
X170576395Y-174425276D01*
X244729648Y-192924594D02*
X243342843Y-192924594D01*
X196369990Y-181676017D02*
X190211885Y-175517912D01*
X208290375Y-182088164D02*
X207878228Y-181676017D01*
X224248549Y-188248549D02*
X224658417Y-188658417D01*
D34*
X247803201Y-191185995D02*
X245397125Y-193592071D01*
D33*
X189799738Y-175105765D02*
X188091570Y-175105765D01*
D34*
X269761539Y-131386671D02*
X270306539Y-131931671D01*
D33*
X206170060Y-181676017D02*
X196369990Y-181676017D01*
X245397125Y-193592071D02*
X244729648Y-192924594D01*
D34*
X269761539Y-130756671D02*
X268386538Y-130756671D01*
D33*
X224248549Y-188246270D02*
X214448481Y-188246270D01*
X190211885Y-175517912D02*
X189799738Y-175105765D01*
X224658417Y-188658417D02*
X226368864Y-188658417D01*
X224248549Y-188246270D02*
X224248549Y-188248549D01*
D34*
X252314005Y-191185995D02*
X247803201Y-191185995D01*
D33*
X214448481Y-188246270D02*
X208290375Y-182088164D01*
D34*
X270306539Y-131931671D02*
X273431671Y-131931671D01*
D33*
X188091570Y-175105765D02*
X188091570Y-175408430D01*
%TO.N,R1*%
D34*
X269761539Y-141546671D02*
X271214868Y-143000000D01*
D33*
X227873920Y-169595353D02*
X229582088Y-169595353D01*
X172493598Y-155774359D02*
X171615825Y-154896586D01*
X191716941Y-156454848D02*
X191103429Y-155841336D01*
X227873920Y-169595353D02*
X225297786Y-167019219D01*
X153270254Y-155093870D02*
X149711860Y-151535476D01*
X136739653Y-151880646D02*
X136327506Y-151468499D01*
D34*
X271214868Y-143000000D02*
X273000000Y-143000000D01*
D33*
X156000000Y-154896586D02*
X155390569Y-155506017D01*
X211503599Y-163025101D02*
X211915746Y-163437248D01*
X196970261Y-160000000D02*
X193837256Y-156866995D01*
D34*
X246000000Y-169500000D02*
X230501735Y-169500000D01*
D33*
X171615825Y-154896586D02*
X156000000Y-154896586D01*
D34*
X269761539Y-140916671D02*
X269761539Y-141546671D01*
D33*
X215497717Y-167019219D02*
X211915746Y-163437248D01*
D34*
X273000000Y-145104911D02*
X265126407Y-152978504D01*
D33*
X193425109Y-156454848D02*
X193837256Y-156866995D01*
D34*
X269761539Y-140916671D02*
X268386538Y-140916671D01*
D33*
X174959083Y-155841336D02*
X174613913Y-156186506D01*
X229582088Y-169595353D02*
X229994235Y-170007500D01*
X137084823Y-151535476D02*
X136739653Y-151880646D01*
X174201766Y-155774359D02*
X174613913Y-156186506D01*
D34*
X262735797Y-152978504D02*
X262521496Y-152978504D01*
D33*
X154978422Y-155093870D02*
X155390569Y-155506017D01*
X209795431Y-163025101D02*
X206770330Y-160000000D01*
X225297786Y-167019219D02*
X215497717Y-167019219D01*
X153270254Y-155093870D02*
X154978422Y-155093870D01*
X209795431Y-163025101D02*
X211503599Y-163025101D01*
D34*
X262521496Y-152978504D02*
X246000000Y-169500000D01*
D33*
X136327506Y-151468499D02*
X134619338Y-151468499D01*
X172493598Y-155774359D02*
X174201766Y-155774359D01*
D34*
X273000000Y-143000000D02*
X273000000Y-145104911D01*
X230501735Y-169500000D02*
X229994235Y-170007500D01*
D33*
X191103429Y-155841336D02*
X174959083Y-155841336D01*
X149711860Y-151535476D02*
X137084823Y-151535476D01*
X206770330Y-160000000D02*
X196970261Y-160000000D01*
D34*
X265126407Y-152978504D02*
X262735797Y-152978504D01*
D33*
X191716941Y-156454848D02*
X193425109Y-156454848D01*
%TO.N,R2*%
D34*
X259476539Y-139551671D02*
X252448329Y-139551671D01*
D33*
X138244709Y-132817582D02*
X139952877Y-132817582D01*
X202303509Y-140510396D02*
X199756944Y-140510396D01*
X178239284Y-137535590D02*
X177827137Y-137123443D01*
D34*
X260211539Y-140916671D02*
X261586539Y-140916671D01*
D33*
X218254786Y-147500000D02*
X215541117Y-144786331D01*
X156895625Y-136442953D02*
X143578248Y-136442953D01*
X197050480Y-137803932D02*
X195342312Y-137803932D01*
X231499291Y-150944437D02*
X228054854Y-147500000D01*
X143578248Y-136442953D02*
X140365024Y-133229729D01*
D34*
X238476190Y-146500000D02*
X233619606Y-151356584D01*
D33*
X199756944Y-140510396D02*
X197462627Y-138216079D01*
X206167297Y-144374184D02*
X202303509Y-140510396D01*
X177827137Y-137123443D02*
X176118969Y-137123443D01*
X178584454Y-137190420D02*
X178239284Y-137535590D01*
X158603793Y-136442953D02*
X156895625Y-136442953D01*
X194728800Y-137190420D02*
X178584454Y-137190420D01*
X159371040Y-136500000D02*
X159015940Y-136855100D01*
X197462627Y-138216079D02*
X197050480Y-137803932D01*
X176118969Y-137123443D02*
X175495526Y-136500000D01*
X228054854Y-147500000D02*
X218254786Y-147500000D01*
X213420802Y-144374184D02*
X206167297Y-144374184D01*
X175495526Y-136500000D02*
X159371040Y-136500000D01*
X139952877Y-132817582D02*
X140365024Y-133229729D01*
D34*
X260211539Y-140286671D02*
X259476539Y-139551671D01*
X245500000Y-146500000D02*
X238476190Y-146500000D01*
D33*
X195342312Y-137803932D02*
X194728800Y-137190420D01*
D34*
X252448329Y-139551671D02*
X245500000Y-146500000D01*
D33*
X215541117Y-144786331D02*
X215128970Y-144374184D01*
X215128970Y-144374184D02*
X213420802Y-144374184D01*
D34*
X260211539Y-140916671D02*
X260211539Y-140286671D01*
D33*
X233207459Y-150944437D02*
X231499291Y-150944437D01*
X159015940Y-136855100D02*
X158603793Y-136442953D01*
X233619606Y-151356584D02*
X233207459Y-150944437D01*
%TO.N,R3*%
X143578247Y-114166666D02*
X143990394Y-114578813D01*
X198287194Y-118472526D02*
X182276801Y-118472526D01*
X179130827Y-117859014D02*
X162986481Y-117859014D01*
X209000000Y-122500000D02*
X204022836Y-122500000D01*
X217046172Y-125723268D02*
X218754340Y-125723268D01*
D34*
X260211539Y-137746671D02*
X259666539Y-137201671D01*
X240539310Y-136000000D02*
X237244977Y-132705667D01*
D33*
X222531072Y-129500000D02*
X219166487Y-126135415D01*
X204022836Y-122500000D02*
X201087998Y-119565162D01*
X235124662Y-132293520D02*
X236832830Y-132293520D01*
X162986481Y-117859014D02*
X162641311Y-118204184D01*
X232331142Y-129500000D02*
X222531072Y-129500000D01*
X179744339Y-118472526D02*
X181452507Y-118472526D01*
D34*
X260211539Y-138376671D02*
X261586539Y-138376671D01*
D33*
X217046172Y-125723268D02*
X212223268Y-125723268D01*
X236832830Y-132293520D02*
X237244977Y-132705667D01*
D34*
X259666539Y-137201671D02*
X249701671Y-137201671D01*
D33*
X182276801Y-118472526D02*
X181864654Y-118884673D01*
X235124662Y-132293520D02*
X232331142Y-129500000D01*
D34*
X260211539Y-138376671D02*
X260211539Y-137746671D01*
D33*
X147203618Y-117792037D02*
X143990394Y-114578813D01*
D34*
X248500000Y-136000000D02*
X240539310Y-136000000D01*
D33*
X198967683Y-119153015D02*
X198287194Y-118472526D01*
X200675851Y-119153015D02*
X201087998Y-119565162D01*
X160520996Y-117792037D02*
X162229164Y-117792037D01*
X160520996Y-117792037D02*
X147203618Y-117792037D01*
X212223268Y-125723268D02*
X209000000Y-122500000D01*
X218754340Y-125723268D02*
X219166487Y-126135415D01*
X162229164Y-117792037D02*
X162641311Y-118204184D01*
X181452507Y-118472526D02*
X181864654Y-118884673D01*
X141870079Y-114166666D02*
X143578247Y-114166666D01*
X198967683Y-119153015D02*
X200675851Y-119153015D01*
D34*
X249701671Y-137201671D02*
X248500000Y-136000000D01*
D33*
X179744339Y-118472526D02*
X179130827Y-117859014D01*
%TO.N,ENC_A*%
D34*
X274681539Y-161286762D02*
X267735797Y-168232504D01*
X269761539Y-133296671D02*
X268386538Y-133296671D01*
X269761539Y-133926671D02*
X270496539Y-134661671D01*
X274681539Y-136181539D02*
X274681539Y-161286762D01*
X269761539Y-133296671D02*
X269761539Y-133926671D01*
X270496539Y-134661671D02*
X273161671Y-134661671D01*
X273161671Y-134661671D02*
X274681539Y-136181539D01*
%TO.N,ENC_B*%
X270496539Y-137201671D02*
X273093240Y-137201671D01*
X274231539Y-138339970D02*
X274231539Y-159486762D01*
X265485797Y-168232504D02*
X265235797Y-168232504D01*
X269761539Y-135836671D02*
X268386538Y-135836671D01*
X274231539Y-159486762D02*
X265485797Y-168232504D01*
X269761539Y-136466671D02*
X270496539Y-137201671D01*
X273093240Y-137201671D02*
X274231539Y-138339970D01*
X269761539Y-135836671D02*
X269761539Y-136466671D01*
%TO.N,RAW*%
X260211539Y-112976671D02*
X261586539Y-112976671D01*
%TO.N,RST*%
X260211539Y-117426671D02*
X259666539Y-116881671D01*
X245736539Y-105548372D02*
X245736539Y-104676671D01*
X257069838Y-116881671D02*
X245736539Y-105548372D01*
X260211539Y-118056671D02*
X260211539Y-117426671D01*
X260211539Y-118056671D02*
X261586539Y-118056671D01*
X259666539Y-116881671D02*
X257069838Y-116881671D01*
%TO.N,VCC*%
X260211539Y-120596671D02*
X261586539Y-120596671D01*
D33*
X264986539Y-146376671D02*
X264986539Y-119013461D01*
X264986539Y-119013461D02*
X265000000Y-119000000D01*
%TO.N,P1*%
D34*
X269761539Y-112976671D02*
X268386538Y-112976671D01*
%TO.N,DISP_CS*%
D33*
X269761539Y-115738461D02*
X269761539Y-115516671D01*
X265500000Y-117000000D02*
X268500000Y-117000000D01*
X268500000Y-117000000D02*
X269761539Y-115738461D01*
X261056539Y-146613017D02*
X261056539Y-144276671D01*
X265000000Y-149500000D02*
X263943522Y-149500000D01*
X263500000Y-119000000D02*
X265500000Y-117000000D01*
X260506539Y-143726671D02*
X259906539Y-143726671D01*
D34*
X269761539Y-115516671D02*
X268386538Y-115516671D01*
D33*
X263500000Y-140133210D02*
X263500000Y-119000000D01*
X259906539Y-143726671D02*
X263500000Y-140133210D01*
X263943522Y-149500000D02*
X261056539Y-146613017D01*
X261056539Y-144276671D02*
X260506539Y-143726671D01*
%TO.N,P2*%
D34*
X269761539Y-123136671D02*
X268386538Y-123136671D01*
%TO.N,DISP_SCK*%
X269761539Y-125676671D02*
X268386538Y-125676671D01*
D33*
X265586539Y-143000000D02*
X265886407Y-142700132D01*
X266500000Y-128938210D02*
X269761539Y-125676671D01*
X267526539Y-143726671D02*
X266500000Y-142700132D01*
X265886407Y-142700132D02*
X266500000Y-142700132D01*
X266500000Y-142700132D02*
X266500000Y-128938210D01*
%TO.N,DISP_MOSI*%
X267500000Y-130478210D02*
X269761539Y-128216671D01*
X269466539Y-143726671D02*
X270066539Y-143726671D01*
X267029556Y-148500000D02*
X268916539Y-146613017D01*
X267500000Y-141500000D02*
X267500000Y-130478210D01*
X268916539Y-144276671D02*
X269466539Y-143726671D01*
X268916539Y-146613017D02*
X268916539Y-144276671D01*
X265000000Y-148500000D02*
X267029556Y-148500000D01*
D34*
X269761539Y-128216671D02*
X268386538Y-128216671D01*
D33*
X269726671Y-143726671D02*
X267500000Y-141500000D01*
X270066539Y-143726671D02*
X269726671Y-143726671D01*
%TO.N,MCU1_24*%
D34*
X257366539Y-112976671D02*
X259486539Y-112976671D01*
%TO.N,MCU1_1*%
X270486539Y-112976671D02*
X272606539Y-112976671D01*
%TO.N,MCU1_23*%
X257366539Y-115516671D02*
X259486539Y-115516671D01*
%TO.N,MCU1_2*%
X270486539Y-115516671D02*
X272606539Y-115516671D01*
%TO.N,MCU1_22*%
X257366539Y-118056671D02*
X259486539Y-118056671D01*
%TO.N,MCU1_3*%
X270486539Y-118056671D02*
X272606539Y-118056671D01*
%TO.N,MCU1_21*%
X257366539Y-120596671D02*
X259486539Y-120596671D01*
%TO.N,MCU1_4*%
X270486539Y-120596671D02*
X272606539Y-120596671D01*
%TO.N,MCU1_20*%
X257366539Y-123136671D02*
X259486539Y-123136671D01*
%TO.N,MCU1_5*%
X270486539Y-123136671D02*
X272606539Y-123136671D01*
%TO.N,MCU1_19*%
X257366539Y-125676671D02*
X259486539Y-125676671D01*
%TO.N,MCU1_6*%
X270486539Y-125676671D02*
X272606539Y-125676671D01*
%TO.N,MCU1_18*%
X257366539Y-128216671D02*
X259486539Y-128216671D01*
%TO.N,MCU1_7*%
X270486539Y-128216671D02*
X272606539Y-128216671D01*
%TO.N,MCU1_17*%
X257366539Y-130756671D02*
X259486539Y-130756671D01*
%TO.N,MCU1_8*%
X270486539Y-130756671D02*
X272606539Y-130756671D01*
%TO.N,MCU1_16*%
X257366539Y-133296671D02*
X259486539Y-133296671D01*
%TO.N,MCU1_9*%
X270486539Y-133296671D02*
X272606539Y-133296671D01*
%TO.N,MCU1_15*%
X257366539Y-135836671D02*
X259486539Y-135836671D01*
%TO.N,MCU1_10*%
X270486539Y-135836671D02*
X272606539Y-135836671D01*
%TO.N,MCU1_14*%
X257366539Y-138376671D02*
X259486539Y-138376671D01*
%TO.N,MCU1_11*%
X270486539Y-138376671D02*
X272606539Y-138376671D01*
%TO.N,MCU1_13*%
X257366539Y-140916671D02*
X259486539Y-140916671D01*
%TO.N,MCU1_12*%
X270486539Y-140916671D02*
X272606539Y-140916671D01*
%TO.N,DISP1_1*%
X259906539Y-146376671D02*
X259906539Y-144626671D01*
%TO.N,DISP1_2*%
X262446538Y-146376671D02*
X262446538Y-144626671D01*
%TO.N,DISP1_4*%
X267526539Y-146376671D02*
X267526539Y-144626671D01*
%TO.N,DISP1_5*%
X270066539Y-146376671D02*
X270066539Y-144626671D01*
%TD*%
M02*
