%TF.GenerationSoftware,KiCad,Pcbnew,10.0.0*%
%TF.CreationDate,2026-04-11T15:31:52-04:00*%
%TF.ProjectId,pseudo-kb,70736575-646f-42d6-9b62-2e6b69636164,v1.0.0*%
%TF.SameCoordinates,Original*%
%TF.FileFunction,Paste,Top*%
%TF.FilePolarity,Positive*%
%FSLAX46Y46*%
G04 Gerber Fmt 4.6, Leading zero omitted, Abs format (unit mm)*
G04 Created by KiCad (PCBNEW 10.0.0) date 2026-04-11 15:31:52*
%MOMM*%
%LPD*%
G01*
G04 APERTURE LIST*
G04 Aperture macros list*
%AMRotRect*
0 Rectangle, with rotation*
0 The origin of the aperture is its center*
0 $1 length*
0 $2 width*
0 $3 Rotation angle, in degrees counterclockwise*
0 Add horizontal line*
21,1,$1,$2,0,0,$3*%
%AMOutline5P*
0 Free polygon, 5 corners , with rotation*
0 The origin of the aperture is its center*
0 number of corners: always 5*
0 $1 to $10 corner X, Y*
0 $11 Rotation angle, in degrees counterclockwise*
0 create outline with 5 corners*
4,1,5,$1,$2,$3,$4,$5,$6,$7,$8,$9,$10,$1,$2,$11*%
%AMOutline6P*
0 Free polygon, 6 corners , with rotation*
0 The origin of the aperture is its center*
0 number of corners: always 6*
0 $1 to $12 corner X, Y*
0 $13 Rotation angle, in degrees counterclockwise*
0 create outline with 6 corners*
4,1,6,$1,$2,$3,$4,$5,$6,$7,$8,$9,$10,$11,$12,$1,$2,$13*%
%AMOutline7P*
0 Free polygon, 7 corners , with rotation*
0 The origin of the aperture is its center*
0 number of corners: always 7*
0 $1 to $14 corner X, Y*
0 $15 Rotation angle, in degrees counterclockwise*
0 create outline with 7 corners*
4,1,7,$1,$2,$3,$4,$5,$6,$7,$8,$9,$10,$11,$12,$13,$14,$1,$2,$15*%
%AMOutline8P*
0 Free polygon, 8 corners , with rotation*
0 The origin of the aperture is its center*
0 number of corners: always 8*
0 $1 to $16 corner X, Y*
0 $17 Rotation angle, in degrees counterclockwise*
0 create outline with 8 corners*
4,1,8,$1,$2,$3,$4,$5,$6,$7,$8,$9,$10,$11,$12,$13,$14,$15,$16,$1,$2,$17*%
%AMFreePoly0*
4,1,6,0.250000,0.000000,-0.250000,-0.625000,-0.500000,-0.625000,-0.500000,0.625000,-0.250000,0.625000,0.250000,0.000000,0.250000,0.000000,$1*%
%AMFreePoly1*
4,1,6,0.500000,-0.625000,-0.650000,-0.625000,-0.150000,0.000000,-0.650000,0.625000,0.500000,0.625000,0.500000,-0.625000,0.500000,-0.625000,$1*%
G04 Aperture macros list end*
%ADD10RotRect,0.900000X1.200000X349.000000*%
%ADD11FreePoly0,180.000000*%
%ADD12FreePoly0,0.000000*%
%ADD13FreePoly1,180.000000*%
%ADD14FreePoly1,0.000000*%
%ADD15RotRect,0.900000X1.200000X342.000000*%
%ADD16R,1.200000X0.600000*%
%ADD17Outline5P,-1.300000X1.300000X1.300000X1.300000X1.300000X-0.117000X0.117000X-1.300000X-1.300000X-1.300000X349.000000*%
%ADD18RotRect,2.600000X2.600000X349.000000*%
%ADD19Outline5P,-1.300000X1.300000X1.300000X1.300000X1.300000X-0.117000X0.117000X-1.300000X-1.300000X-1.300000X342.000000*%
%ADD20RotRect,2.600000X2.600000X342.000000*%
G04 APERTURE END LIST*
D10*
%TO.C,D9*%
X170988542Y-174837423D03*
X174227912Y-175467093D03*
%TD*%
%TO.C,D5*%
X151765198Y-174156933D03*
X155004568Y-174786603D03*
%TD*%
%TO.C,D14*%
X193837256Y-156866995D03*
X197076626Y-157496665D03*
%TD*%
D11*
%TO.C,MCU1*%
X270486539Y-112976671D03*
X270486539Y-115516671D03*
X270486539Y-118056671D03*
X270486539Y-120596671D03*
X270486539Y-123136671D03*
X270486539Y-125676671D03*
X270486539Y-128216671D03*
X270486539Y-130756671D03*
X270486539Y-133296671D03*
X270486539Y-135836671D03*
X270486539Y-138376671D03*
X270486539Y-140916671D03*
D12*
X259486539Y-140916671D03*
X259486539Y-138376671D03*
X259486539Y-135836671D03*
X259486539Y-133296671D03*
X259486539Y-130756671D03*
X259486539Y-128216671D03*
X259486539Y-125676671D03*
X259486539Y-123136671D03*
X259486539Y-120596671D03*
X259486539Y-118056671D03*
X259486539Y-115516671D03*
X259486539Y-112976671D03*
D13*
X269761539Y-112976671D03*
X269761539Y-115516671D03*
X269761539Y-118056671D03*
X269761539Y-120596671D03*
X269761539Y-123136671D03*
X269761539Y-125676671D03*
X269761539Y-128216671D03*
X269761539Y-130756671D03*
X269761539Y-133296671D03*
X269761539Y-135836671D03*
X269761539Y-138376671D03*
X269761539Y-140916671D03*
D14*
X260211539Y-140916671D03*
X260211539Y-138376671D03*
X260211539Y-135836671D03*
X260211539Y-133296671D03*
X260211539Y-130756671D03*
X260211539Y-128216671D03*
X260211539Y-125676671D03*
X260211539Y-123136671D03*
X260211539Y-120596671D03*
X260211539Y-118056671D03*
X260211539Y-115516671D03*
X260211539Y-112976671D03*
%TD*%
D10*
%TO.C,D7*%
X159015940Y-136855100D03*
X162255310Y-137484770D03*
%TD*%
%TO.C,D4*%
X143990394Y-114578813D03*
X147229764Y-115208483D03*
%TD*%
%TO.C,D23*%
X237244977Y-132705667D03*
X240484347Y-133335337D03*
%TD*%
%TO.C,D17*%
X208290375Y-182088164D03*
X211529745Y-182717834D03*
%TD*%
%TO.C,D8*%
X162641311Y-118204184D03*
X165880681Y-118833854D03*
%TD*%
%TO.C,D10*%
X174613913Y-156186506D03*
X177853283Y-156816176D03*
%TD*%
%TO.C,D22*%
X233619606Y-151356584D03*
X236858976Y-151986254D03*
%TD*%
%TO.C,D16*%
X201087998Y-119565162D03*
X204327368Y-120194832D03*
%TD*%
%TO.C,D24*%
X226368864Y-188658417D03*
X229608234Y-189288087D03*
%TD*%
%TO.C,D13*%
X190211885Y-175517912D03*
X193451255Y-176147582D03*
%TD*%
%TO.C,D2*%
X136739653Y-151880646D03*
X139979023Y-152510316D03*
%TD*%
%TO.C,D1*%
X133114282Y-170531562D03*
X136353652Y-171161232D03*
%TD*%
%TO.C,D3*%
X140365024Y-133229729D03*
X143604394Y-133859399D03*
%TD*%
%TO.C,D12*%
X181864654Y-118884673D03*
X185104024Y-119514343D03*
%TD*%
%TO.C,D11*%
X178239284Y-137535590D03*
X181478654Y-138165260D03*
%TD*%
%TO.C,D6*%
X155390569Y-155506017D03*
X158629939Y-156135687D03*
%TD*%
%TO.C,D21*%
X229994235Y-170007500D03*
X233233605Y-170637170D03*
%TD*%
%TO.C,D18*%
X211915746Y-163437248D03*
X215155116Y-164066918D03*
%TD*%
%TO.C,D20*%
X219166487Y-126135415D03*
X222405857Y-126765085D03*
%TD*%
%TO.C,D15*%
X197462627Y-138216079D03*
X200701997Y-138845749D03*
%TD*%
D15*
%TO.C,D25*%
X245397125Y-193592071D03*
X248535611Y-194611827D03*
%TD*%
D10*
%TO.C,D19*%
X215541117Y-144786331D03*
X218780487Y-145416001D03*
%TD*%
D16*
%TO.C,DISP1*%
X259906539Y-144626671D03*
X262446539Y-144626671D03*
X267526539Y-144626671D03*
X270066539Y-144626671D03*
X259906539Y-143726671D03*
X262446539Y-143726671D03*
X267526539Y-143726671D03*
X270066539Y-143726671D03*
%TD*%
D17*
%TO.C,S11*%
X185830988Y-124290811D03*
D18*
X174073414Y-124246547D03*
%TD*%
D17*
%TO.C,S17*%
X215882079Y-168843386D03*
D18*
X204124505Y-168799122D03*
%TD*%
D17*
%TO.C,S1*%
X140705986Y-157286784D03*
D18*
X128948412Y-157242520D03*
%TD*%
D17*
%TO.C,S24*%
X233960569Y-175413639D03*
D18*
X222202995Y-175369375D03*
%TD*%
D17*
%TO.C,S13*%
X197803590Y-162273134D03*
D18*
X186046016Y-162228870D03*
%TD*%
D17*
%TO.C,S20*%
X226758192Y-112890637D03*
D18*
X215000618Y-112846373D03*
%TD*%
D17*
%TO.C,S23*%
X244836682Y-119460889D03*
D18*
X233079108Y-119416625D03*
%TD*%
D17*
%TO.C,S10*%
X182205617Y-142941728D03*
D18*
X170448043Y-142897464D03*
%TD*%
D17*
%TO.C,S6*%
X162982274Y-142261239D03*
D18*
X151224700Y-142216975D03*
%TD*%
D17*
%TO.C,S7*%
X166607645Y-123610322D03*
D18*
X154850071Y-123566058D03*
%TD*%
D17*
%TO.C,S21*%
X237585940Y-156762722D03*
D18*
X225828366Y-156718458D03*
%TD*%
D17*
%TO.C,S18*%
X219507450Y-150192470D03*
D18*
X207749876Y-150148206D03*
%TD*%
D17*
%TO.C,S12*%
X189456359Y-105639895D03*
D18*
X177698785Y-105595631D03*
%TD*%
D17*
%TO.C,S15*%
X205054332Y-124971301D03*
D18*
X193296758Y-124927037D03*
%TD*%
D17*
%TO.C,S22*%
X241211311Y-138111806D03*
D18*
X229453737Y-138067542D03*
%TD*%
D17*
%TO.C,S2*%
X144331357Y-138635868D03*
D18*
X132573783Y-138591604D03*
%TD*%
D17*
%TO.C,S14*%
X201428961Y-143622217D03*
D18*
X189671387Y-143577953D03*
%TD*%
D17*
%TO.C,S19*%
X223132821Y-131541553D03*
D18*
X211375247Y-131497289D03*
%TD*%
D19*
%TO.C,S25*%
X254546373Y-181371213D03*
D20*
X242881833Y-179894391D03*
%TD*%
D17*
%TO.C,S9*%
X178580246Y-161592644D03*
D18*
X166822672Y-161548380D03*
%TD*%
D17*
%TO.C,S3*%
X147956728Y-119984951D03*
D18*
X136199154Y-119940687D03*
%TD*%
D17*
%TO.C,S8*%
X170233016Y-104959406D03*
D18*
X158475442Y-104915142D03*
%TD*%
D17*
%TO.C,S5*%
X159356903Y-160912155D03*
D18*
X147599329Y-160867891D03*
%TD*%
D17*
%TO.C,S16*%
X208679702Y-106320384D03*
D18*
X196922128Y-106276120D03*
%TD*%
D17*
%TO.C,S4*%
X151582099Y-101334035D03*
D18*
X139824525Y-101289771D03*
%TD*%
M02*
