M48
; DRILL file KiCad 10.0.0 date 2026-04-11T15:31:45
; FORMAT={-:-/ absolute / metric / decimal}
; #@! TF.CreationDate,2026-04-11T15:31:45-04:00
; #@! TF.GenerationSoftware,Kicad,Pcbnew,10.0.0
; #@! TF.FileFunction,Plated,1,2,PTH
FMAT,2
METRIC
; #@! TA.AperFunction,Plated,PTH,ViaDrill
T1C0.300
; #@! TA.AperFunction,Plated,PTH,ComponentDrill
T2C0.400
; #@! TA.AperFunction,Plated,PTH,ComponentDrill
T3C0.500
; #@! TA.AperFunction,Plated,PTH,ComponentDrill
T4C0.991
; #@! TA.AperFunction,Plated,PTH,ComponentDrill
T5C1.000
; #@! TA.AperFunction,Plated,PTH,ComponentDrill
T6C1.500
; #@! TA.AperFunction,Plated,PTH,ComponentDrill
T7C1.600
; #@! TA.AperFunction,Plated,PTH,ComponentDrill
T8C2.200
%
G90
G05
T1
X136.943Y-159.484
X137.095Y-158.699
X140.568Y-140.833
X140.721Y-140.048
X144.193Y-122.182
X144.346Y-121.397
X147.819Y-103.531
X147.971Y-102.746
X155.593Y-163.109
X155.746Y-162.324
X159.219Y-144.459
X159.372Y-143.673
X162.844Y-125.808
X162.997Y-125.022
X166.47Y-107.157
X166.622Y-106.371
X174.817Y-163.79
X174.969Y-163.005
X178.442Y-145.139
X178.595Y-144.354
X182.068Y-126.488
X182.22Y-125.703
X185.693Y-107.837
X185.846Y-107.052
X194.04Y-164.47
X194.193Y-163.685
X197.666Y-145.819
X197.818Y-145.034
X201.291Y-127.169
X201.444Y-126.383
X204.916Y-108.518
X205.069Y-107.732
X212.119Y-171.041
X212.271Y-170.255
X215.744Y-152.39
X215.897Y-151.604
X219.369Y-133.739
X219.522Y-132.954
X222.995Y-115.088
X223.147Y-114.303
X230.197Y-177.611
X230.35Y-176.826
X233.823Y-158.96
X233.975Y-158.175
X237.448Y-140.309
X237.601Y-139.524
X241.073Y-121.658
X241.226Y-120.873
X250.543Y-183.093
X250.79Y-182.333
X260.873Y-116.711
X264.387Y-143.0
X265.0Y-119.0
X265.0Y-148.5
X265.0Y-149.5
X265.587Y-143.0
T2
X261.587Y-112.977
X261.587Y-115.517
X261.587Y-118.057
X261.587Y-120.597
X261.587Y-123.137
X261.587Y-125.677
X261.587Y-128.217
X261.587Y-130.757
X261.587Y-133.297
X261.587Y-135.837
X261.587Y-138.377
X261.587Y-140.917
X268.387Y-112.977
X268.387Y-115.517
X268.387Y-118.057
X268.387Y-120.597
X268.387Y-123.137
X268.387Y-125.677
X268.387Y-128.217
X268.387Y-130.757
X268.387Y-133.297
X268.387Y-135.837
X268.387Y-138.377
X268.387Y-140.917
T4
X130.994Y-170.119
X134.619Y-151.468
X138.245Y-132.818
X138.474Y-171.573
X141.87Y-114.167
X142.099Y-152.922
X145.725Y-134.272
X149.35Y-115.621
X149.645Y-173.745
X153.27Y-155.094
X156.896Y-136.443
X157.125Y-175.199
X160.521Y-117.792
X160.75Y-156.548
X164.376Y-137.897
X168.001Y-119.246
X168.868Y-174.425
X172.494Y-155.774
X176.119Y-137.123
X176.348Y-175.879
X179.744Y-118.473
X179.974Y-157.228
X183.599Y-138.577
X187.224Y-119.926
X188.092Y-175.106
X191.717Y-156.455
X195.342Y-137.804
X195.572Y-176.56
X198.968Y-119.153
X199.197Y-157.909
X202.822Y-139.258
X206.17Y-181.676
X206.448Y-120.607
X209.795Y-163.025
X213.421Y-144.374
X213.65Y-183.13
X217.046Y-125.723
X217.275Y-164.479
X220.901Y-145.828
X224.249Y-188.246
X224.526Y-127.177
X227.874Y-169.595
X231.499Y-150.944
X231.729Y-189.7
X235.125Y-132.294
X235.354Y-171.049
X238.979Y-152.398
X242.605Y-133.747
X243.343Y-192.925
X250.59Y-195.279
T5
X239.237Y-104.677
X245.737Y-104.677
X257.367Y-112.977
X257.367Y-115.517
X257.367Y-118.057
X257.367Y-120.597
X257.367Y-123.137
X257.367Y-125.677
X257.367Y-128.217
X257.367Y-130.757
X257.367Y-133.297
X257.367Y-135.837
X257.367Y-138.377
X257.367Y-140.917
X259.907Y-146.377
X262.447Y-146.377
X264.987Y-146.377
X267.527Y-146.377
X270.067Y-146.377
X272.607Y-112.977
X272.607Y-115.517
X272.607Y-118.057
X272.607Y-120.597
X272.607Y-123.137
X272.607Y-125.677
X272.607Y-128.217
X272.607Y-130.757
X272.607Y-133.297
X272.607Y-135.837
X272.607Y-138.377
X272.607Y-140.917
T7
X130.465Y-166.604
X134.09Y-147.953
X137.716Y-129.302
X140.281Y-168.512
X141.341Y-110.651
X143.907Y-149.861
X147.532Y-131.21
X149.116Y-170.229
X151.157Y-112.559
X152.741Y-151.578
X156.367Y-132.927
X158.932Y-172.137
X159.992Y-114.277
X162.558Y-153.486
X166.183Y-134.836
X168.339Y-170.91
X169.808Y-116.185
X171.965Y-152.259
X175.59Y-133.608
X178.156Y-172.818
X179.215Y-114.957
X181.781Y-154.167
X185.406Y-135.516
X187.563Y-171.59
X189.032Y-116.865
X191.188Y-152.939
X194.813Y-134.288
X197.379Y-173.498
X198.439Y-115.638
X201.004Y-154.847
X204.63Y-136.197
X205.641Y-178.161
X208.255Y-117.546
X209.267Y-159.51
X212.892Y-140.859
X215.457Y-180.069
X216.517Y-122.208
X219.083Y-161.418
X222.708Y-142.767
X223.72Y-184.731
X226.334Y-124.116
X227.345Y-166.08
X230.97Y-147.429
X233.536Y-186.639
X234.596Y-128.778
X237.161Y-167.988
X240.787Y-149.337
X243.246Y-189.371
X244.412Y-130.686
X252.757Y-192.461
T8
X124.85Y-174.528
X140.196Y-92.958
X207.924Y-141.523
X274.146Y-93.017
X274.383Y-173.033
T3
G00X262.486Y-152.979
M15
G01X262.986Y-152.979
M16
G05
G00X262.486Y-168.233
M15
G01X262.986Y-168.233
M16
G05
G00X264.986Y-168.233
M15
G01X265.486Y-168.233
M16
G05
G00X267.486Y-152.979
M15
G01X267.986Y-152.979
M16
G05
G00X267.486Y-168.233
M15
G01X267.986Y-168.233
M16
G05
T6
G00X259.636Y-159.579
M15
G01X259.636Y-160.379
M16
G05
G00X270.836Y-159.579
M15
G01X270.836Y-160.379
M16
G05
M30
