M48
; DRILL file KiCad 10.0.0 date 2026-04-11T15:31:45
; FORMAT={-:-/ absolute / metric / decimal}
; #@! TF.CreationDate,2026-04-11T15:31:45-04:00
; #@! TF.GenerationSoftware,Kicad,Pcbnew,10.0.0
; #@! TF.FileFunction,NonPlated,1,2,NPTH
FMAT,2
METRIC
; #@! TA.AperFunction,NonPlated,NPTH,ComponentDrill
T1C3.000
; #@! TA.AperFunction,NonPlated,NPTH,ComponentDrill
T2C5.000
%
G90
G05
T1
X132.163Y-157.867
X135.789Y-139.217
X137.491Y-156.662
X139.414Y-120.566
X141.117Y-138.011
X141.98Y-159.776
X143.039Y-101.915
X144.742Y-119.36
X145.605Y-141.125
X148.367Y-100.709
X149.23Y-122.474
X150.814Y-161.493
X152.856Y-103.823
X154.44Y-142.842
X156.142Y-160.287
X158.065Y-124.191
X159.767Y-141.636
X160.63Y-163.401
X161.69Y-105.54
X163.393Y-122.985
X164.256Y-144.75
X167.018Y-104.335
X167.881Y-126.099
X170.038Y-162.173
X171.507Y-107.448
X173.663Y-143.522
X175.365Y-160.968
X177.288Y-124.871
X178.991Y-142.317
X179.854Y-164.081
X180.914Y-106.221
X182.616Y-123.666
X183.479Y-145.43
X186.242Y-105.015
X187.105Y-126.78
X189.261Y-162.854
X190.73Y-108.129
X192.886Y-144.203
X194.589Y-161.648
X196.512Y-125.552
X198.214Y-142.997
X199.077Y-164.762
X200.137Y-106.901
X201.84Y-124.346
X202.702Y-146.111
X205.465Y-105.695
X206.328Y-127.46
X207.339Y-169.424
X209.953Y-108.809
X210.965Y-150.773
X212.667Y-168.218
X214.59Y-132.122
X216.293Y-149.568
X217.156Y-171.332
X218.215Y-113.471
X219.918Y-130.917
X220.781Y-152.681
X223.543Y-112.266
X224.406Y-134.03
X225.418Y-175.994
X228.032Y-115.379
X229.043Y-157.343
X230.746Y-174.789
X232.669Y-138.692
X234.371Y-156.138
X235.234Y-177.902
X236.294Y-120.042
X237.996Y-137.487
X238.859Y-159.251
X241.622Y-118.836
X242.485Y-140.601
X245.997Y-180.906
X246.11Y-121.95
X251.432Y-180.359
X255.507Y-183.997
T2
X136.356Y-162.503
X139.981Y-143.852
X143.607Y-125.201
X147.232Y-106.55
X155.007Y-166.128
X158.632Y-147.477
X162.258Y-128.826
X165.883Y-110.175
X174.23Y-166.808
X177.855Y-148.158
X181.481Y-129.507
X185.106Y-110.856
X193.453Y-167.489
X197.079Y-148.838
X200.704Y-130.187
X204.33Y-111.536
X211.532Y-174.059
X215.157Y-155.408
X218.783Y-136.757
X222.408Y-118.106
X229.61Y-180.629
X233.236Y-161.979
X236.861Y-143.328
X240.487Y-124.677
X249.593Y-186.018
M30
