%TF.GenerationSoftware,KiCad,Pcbnew,10.0.0*%
%TF.CreationDate,2026-04-11T15:31:52-04:00*%
%TF.ProjectId,pseudo-kb,70736575-646f-42d6-9b62-2e6b69636164,v1.0.0*%
%TF.SameCoordinates,Original*%
%TF.FileFunction,Legend,Top*%
%TF.FilePolarity,Positive*%
%FSLAX46Y46*%
G04 Gerber Fmt 4.6, Leading zero omitted, Abs format (unit mm)*
G04 Created by KiCad (PCBNEW 10.0.0) date 2026-04-11 15:31:52*
%MOMM*%
%LPD*%
G01*
G04 APERTURE LIST*
%ADD10C,0.150000*%
%ADD11C,0.100000*%
%ADD12C,0.120000*%
G04 APERTURE END LIST*
D10*
X262779872Y-123496251D02*
X262732253Y-123543871D01*
X262732253Y-123543871D02*
X262589396Y-123591490D01*
X262589396Y-123591490D02*
X262494158Y-123591490D01*
X262494158Y-123591490D02*
X262351301Y-123543871D01*
X262351301Y-123543871D02*
X262256063Y-123448632D01*
X262256063Y-123448632D02*
X262208444Y-123353394D01*
X262208444Y-123353394D02*
X262160825Y-123162918D01*
X262160825Y-123162918D02*
X262160825Y-123020061D01*
X262160825Y-123020061D02*
X262208444Y-122829585D01*
X262208444Y-122829585D02*
X262256063Y-122734347D01*
X262256063Y-122734347D02*
X262351301Y-122639109D01*
X262351301Y-122639109D02*
X262494158Y-122591490D01*
X262494158Y-122591490D02*
X262589396Y-122591490D01*
X262589396Y-122591490D02*
X262732253Y-122639109D01*
X262732253Y-122639109D02*
X262779872Y-122686728D01*
X263398920Y-122591490D02*
X263494158Y-122591490D01*
X263494158Y-122591490D02*
X263589396Y-122639109D01*
X263589396Y-122639109D02*
X263637015Y-122686728D01*
X263637015Y-122686728D02*
X263684634Y-122781966D01*
X263684634Y-122781966D02*
X263732253Y-122972442D01*
X263732253Y-122972442D02*
X263732253Y-123210537D01*
X263732253Y-123210537D02*
X263684634Y-123401013D01*
X263684634Y-123401013D02*
X263637015Y-123496251D01*
X263637015Y-123496251D02*
X263589396Y-123543871D01*
X263589396Y-123543871D02*
X263494158Y-123591490D01*
X263494158Y-123591490D02*
X263398920Y-123591490D01*
X263398920Y-123591490D02*
X263303682Y-123543871D01*
X263303682Y-123543871D02*
X263256063Y-123496251D01*
X263256063Y-123496251D02*
X263208444Y-123401013D01*
X263208444Y-123401013D02*
X263160825Y-123210537D01*
X263160825Y-123210537D02*
X263160825Y-122972442D01*
X263160825Y-122972442D02*
X263208444Y-122781966D01*
X263208444Y-122781966D02*
X263256063Y-122686728D01*
X263256063Y-122686728D02*
X263303682Y-122639109D01*
X263303682Y-122639109D02*
X263398920Y-122591490D01*
X262779872Y-126036251D02*
X262732253Y-126083871D01*
X262732253Y-126083871D02*
X262589396Y-126131490D01*
X262589396Y-126131490D02*
X262494158Y-126131490D01*
X262494158Y-126131490D02*
X262351301Y-126083871D01*
X262351301Y-126083871D02*
X262256063Y-125988632D01*
X262256063Y-125988632D02*
X262208444Y-125893394D01*
X262208444Y-125893394D02*
X262160825Y-125702918D01*
X262160825Y-125702918D02*
X262160825Y-125560061D01*
X262160825Y-125560061D02*
X262208444Y-125369585D01*
X262208444Y-125369585D02*
X262256063Y-125274347D01*
X262256063Y-125274347D02*
X262351301Y-125179109D01*
X262351301Y-125179109D02*
X262494158Y-125131490D01*
X262494158Y-125131490D02*
X262589396Y-125131490D01*
X262589396Y-125131490D02*
X262732253Y-125179109D01*
X262732253Y-125179109D02*
X262779872Y-125226728D01*
X263732253Y-126131490D02*
X263160825Y-126131490D01*
X263446539Y-126131490D02*
X263446539Y-125131490D01*
X263446539Y-125131490D02*
X263351301Y-125274347D01*
X263351301Y-125274347D02*
X263256063Y-125369585D01*
X263256063Y-125369585D02*
X263160825Y-125417204D01*
X262779872Y-128576251D02*
X262732253Y-128623871D01*
X262732253Y-128623871D02*
X262589396Y-128671490D01*
X262589396Y-128671490D02*
X262494158Y-128671490D01*
X262494158Y-128671490D02*
X262351301Y-128623871D01*
X262351301Y-128623871D02*
X262256063Y-128528632D01*
X262256063Y-128528632D02*
X262208444Y-128433394D01*
X262208444Y-128433394D02*
X262160825Y-128242918D01*
X262160825Y-128242918D02*
X262160825Y-128100061D01*
X262160825Y-128100061D02*
X262208444Y-127909585D01*
X262208444Y-127909585D02*
X262256063Y-127814347D01*
X262256063Y-127814347D02*
X262351301Y-127719109D01*
X262351301Y-127719109D02*
X262494158Y-127671490D01*
X262494158Y-127671490D02*
X262589396Y-127671490D01*
X262589396Y-127671490D02*
X262732253Y-127719109D01*
X262732253Y-127719109D02*
X262779872Y-127766728D01*
X263160825Y-127766728D02*
X263208444Y-127719109D01*
X263208444Y-127719109D02*
X263303682Y-127671490D01*
X263303682Y-127671490D02*
X263541777Y-127671490D01*
X263541777Y-127671490D02*
X263637015Y-127719109D01*
X263637015Y-127719109D02*
X263684634Y-127766728D01*
X263684634Y-127766728D02*
X263732253Y-127861966D01*
X263732253Y-127861966D02*
X263732253Y-127957204D01*
X263732253Y-127957204D02*
X263684634Y-128100061D01*
X263684634Y-128100061D02*
X263113206Y-128671490D01*
X263113206Y-128671490D02*
X263732253Y-128671490D01*
X262779872Y-131116251D02*
X262732253Y-131163871D01*
X262732253Y-131163871D02*
X262589396Y-131211490D01*
X262589396Y-131211490D02*
X262494158Y-131211490D01*
X262494158Y-131211490D02*
X262351301Y-131163871D01*
X262351301Y-131163871D02*
X262256063Y-131068632D01*
X262256063Y-131068632D02*
X262208444Y-130973394D01*
X262208444Y-130973394D02*
X262160825Y-130782918D01*
X262160825Y-130782918D02*
X262160825Y-130640061D01*
X262160825Y-130640061D02*
X262208444Y-130449585D01*
X262208444Y-130449585D02*
X262256063Y-130354347D01*
X262256063Y-130354347D02*
X262351301Y-130259109D01*
X262351301Y-130259109D02*
X262494158Y-130211490D01*
X262494158Y-130211490D02*
X262589396Y-130211490D01*
X262589396Y-130211490D02*
X262732253Y-130259109D01*
X262732253Y-130259109D02*
X262779872Y-130306728D01*
X263113206Y-130211490D02*
X263732253Y-130211490D01*
X263732253Y-130211490D02*
X263398920Y-130592442D01*
X263398920Y-130592442D02*
X263541777Y-130592442D01*
X263541777Y-130592442D02*
X263637015Y-130640061D01*
X263637015Y-130640061D02*
X263684634Y-130687680D01*
X263684634Y-130687680D02*
X263732253Y-130782918D01*
X263732253Y-130782918D02*
X263732253Y-131021013D01*
X263732253Y-131021013D02*
X263684634Y-131116251D01*
X263684634Y-131116251D02*
X263637015Y-131163871D01*
X263637015Y-131163871D02*
X263541777Y-131211490D01*
X263541777Y-131211490D02*
X263256063Y-131211490D01*
X263256063Y-131211490D02*
X263160825Y-131163871D01*
X263160825Y-131163871D02*
X263113206Y-131116251D01*
X262779872Y-133656251D02*
X262732253Y-133703871D01*
X262732253Y-133703871D02*
X262589396Y-133751490D01*
X262589396Y-133751490D02*
X262494158Y-133751490D01*
X262494158Y-133751490D02*
X262351301Y-133703871D01*
X262351301Y-133703871D02*
X262256063Y-133608632D01*
X262256063Y-133608632D02*
X262208444Y-133513394D01*
X262208444Y-133513394D02*
X262160825Y-133322918D01*
X262160825Y-133322918D02*
X262160825Y-133180061D01*
X262160825Y-133180061D02*
X262208444Y-132989585D01*
X262208444Y-132989585D02*
X262256063Y-132894347D01*
X262256063Y-132894347D02*
X262351301Y-132799109D01*
X262351301Y-132799109D02*
X262494158Y-132751490D01*
X262494158Y-132751490D02*
X262589396Y-132751490D01*
X262589396Y-132751490D02*
X262732253Y-132799109D01*
X262732253Y-132799109D02*
X262779872Y-132846728D01*
X263637015Y-133084823D02*
X263637015Y-133751490D01*
X263398920Y-132703871D02*
X263160825Y-133418156D01*
X263160825Y-133418156D02*
X263779872Y-133418156D01*
X262779872Y-136196251D02*
X262732253Y-136243871D01*
X262732253Y-136243871D02*
X262589396Y-136291490D01*
X262589396Y-136291490D02*
X262494158Y-136291490D01*
X262494158Y-136291490D02*
X262351301Y-136243871D01*
X262351301Y-136243871D02*
X262256063Y-136148632D01*
X262256063Y-136148632D02*
X262208444Y-136053394D01*
X262208444Y-136053394D02*
X262160825Y-135862918D01*
X262160825Y-135862918D02*
X262160825Y-135720061D01*
X262160825Y-135720061D02*
X262208444Y-135529585D01*
X262208444Y-135529585D02*
X262256063Y-135434347D01*
X262256063Y-135434347D02*
X262351301Y-135339109D01*
X262351301Y-135339109D02*
X262494158Y-135291490D01*
X262494158Y-135291490D02*
X262589396Y-135291490D01*
X262589396Y-135291490D02*
X262732253Y-135339109D01*
X262732253Y-135339109D02*
X262779872Y-135386728D01*
X263684634Y-135291490D02*
X263208444Y-135291490D01*
X263208444Y-135291490D02*
X263160825Y-135767680D01*
X263160825Y-135767680D02*
X263208444Y-135720061D01*
X263208444Y-135720061D02*
X263303682Y-135672442D01*
X263303682Y-135672442D02*
X263541777Y-135672442D01*
X263541777Y-135672442D02*
X263637015Y-135720061D01*
X263637015Y-135720061D02*
X263684634Y-135767680D01*
X263684634Y-135767680D02*
X263732253Y-135862918D01*
X263732253Y-135862918D02*
X263732253Y-136101013D01*
X263732253Y-136101013D02*
X263684634Y-136196251D01*
X263684634Y-136196251D02*
X263637015Y-136243871D01*
X263637015Y-136243871D02*
X263541777Y-136291490D01*
X263541777Y-136291490D02*
X263303682Y-136291490D01*
X263303682Y-136291490D02*
X263208444Y-136243871D01*
X263208444Y-136243871D02*
X263160825Y-136196251D01*
X262779872Y-138831490D02*
X262446539Y-138355299D01*
X262208444Y-138831490D02*
X262208444Y-137831490D01*
X262208444Y-137831490D02*
X262589396Y-137831490D01*
X262589396Y-137831490D02*
X262684634Y-137879109D01*
X262684634Y-137879109D02*
X262732253Y-137926728D01*
X262732253Y-137926728D02*
X262779872Y-138021966D01*
X262779872Y-138021966D02*
X262779872Y-138164823D01*
X262779872Y-138164823D02*
X262732253Y-138260061D01*
X262732253Y-138260061D02*
X262684634Y-138307680D01*
X262684634Y-138307680D02*
X262589396Y-138355299D01*
X262589396Y-138355299D02*
X262208444Y-138355299D01*
X263113206Y-137831490D02*
X263732253Y-137831490D01*
X263732253Y-137831490D02*
X263398920Y-138212442D01*
X263398920Y-138212442D02*
X263541777Y-138212442D01*
X263541777Y-138212442D02*
X263637015Y-138260061D01*
X263637015Y-138260061D02*
X263684634Y-138307680D01*
X263684634Y-138307680D02*
X263732253Y-138402918D01*
X263732253Y-138402918D02*
X263732253Y-138641013D01*
X263732253Y-138641013D02*
X263684634Y-138736251D01*
X263684634Y-138736251D02*
X263637015Y-138783871D01*
X263637015Y-138783871D02*
X263541777Y-138831490D01*
X263541777Y-138831490D02*
X263256063Y-138831490D01*
X263256063Y-138831490D02*
X263160825Y-138783871D01*
X263160825Y-138783871D02*
X263113206Y-138736251D01*
X262779872Y-141371490D02*
X262446539Y-140895299D01*
X262208444Y-141371490D02*
X262208444Y-140371490D01*
X262208444Y-140371490D02*
X262589396Y-140371490D01*
X262589396Y-140371490D02*
X262684634Y-140419109D01*
X262684634Y-140419109D02*
X262732253Y-140466728D01*
X262732253Y-140466728D02*
X262779872Y-140561966D01*
X262779872Y-140561966D02*
X262779872Y-140704823D01*
X262779872Y-140704823D02*
X262732253Y-140800061D01*
X262732253Y-140800061D02*
X262684634Y-140847680D01*
X262684634Y-140847680D02*
X262589396Y-140895299D01*
X262589396Y-140895299D02*
X262208444Y-140895299D01*
X263160825Y-140466728D02*
X263208444Y-140419109D01*
X263208444Y-140419109D02*
X263303682Y-140371490D01*
X263303682Y-140371490D02*
X263541777Y-140371490D01*
X263541777Y-140371490D02*
X263637015Y-140419109D01*
X263637015Y-140419109D02*
X263684634Y-140466728D01*
X263684634Y-140466728D02*
X263732253Y-140561966D01*
X263732253Y-140561966D02*
X263732253Y-140657204D01*
X263732253Y-140657204D02*
X263684634Y-140800061D01*
X263684634Y-140800061D02*
X263113206Y-141371490D01*
X263113206Y-141371490D02*
X263732253Y-141371490D01*
X262846062Y-113431490D02*
X262512729Y-112955299D01*
X262274634Y-113431490D02*
X262274634Y-112431490D01*
X262274634Y-112431490D02*
X262655586Y-112431490D01*
X262655586Y-112431490D02*
X262750824Y-112479109D01*
X262750824Y-112479109D02*
X262798443Y-112526728D01*
X262798443Y-112526728D02*
X262846062Y-112621966D01*
X262846062Y-112621966D02*
X262846062Y-112764823D01*
X262846062Y-112764823D02*
X262798443Y-112860061D01*
X262798443Y-112860061D02*
X262750824Y-112907680D01*
X262750824Y-112907680D02*
X262655586Y-112955299D01*
X262655586Y-112955299D02*
X262274634Y-112955299D01*
X263227015Y-113145775D02*
X263703205Y-113145775D01*
X263131777Y-113431490D02*
X263465110Y-112431490D01*
X263465110Y-112431490D02*
X263798443Y-113431490D01*
X264036539Y-112431490D02*
X264274634Y-113431490D01*
X264274634Y-113431490D02*
X264465110Y-112717204D01*
X264465110Y-112717204D02*
X264655586Y-113431490D01*
X264655586Y-113431490D02*
X264893682Y-112431490D01*
X262774634Y-115019109D02*
X262679396Y-114971490D01*
X262679396Y-114971490D02*
X262536539Y-114971490D01*
X262536539Y-114971490D02*
X262393682Y-115019109D01*
X262393682Y-115019109D02*
X262298444Y-115114347D01*
X262298444Y-115114347D02*
X262250825Y-115209585D01*
X262250825Y-115209585D02*
X262203206Y-115400061D01*
X262203206Y-115400061D02*
X262203206Y-115542918D01*
X262203206Y-115542918D02*
X262250825Y-115733394D01*
X262250825Y-115733394D02*
X262298444Y-115828632D01*
X262298444Y-115828632D02*
X262393682Y-115923871D01*
X262393682Y-115923871D02*
X262536539Y-115971490D01*
X262536539Y-115971490D02*
X262631777Y-115971490D01*
X262631777Y-115971490D02*
X262774634Y-115923871D01*
X262774634Y-115923871D02*
X262822253Y-115876251D01*
X262822253Y-115876251D02*
X262822253Y-115542918D01*
X262822253Y-115542918D02*
X262631777Y-115542918D01*
X263250825Y-115971490D02*
X263250825Y-114971490D01*
X263250825Y-114971490D02*
X263822253Y-115971490D01*
X263822253Y-115971490D02*
X263822253Y-114971490D01*
X264298444Y-115971490D02*
X264298444Y-114971490D01*
X264298444Y-114971490D02*
X264536539Y-114971490D01*
X264536539Y-114971490D02*
X264679396Y-115019109D01*
X264679396Y-115019109D02*
X264774634Y-115114347D01*
X264774634Y-115114347D02*
X264822253Y-115209585D01*
X264822253Y-115209585D02*
X264869872Y-115400061D01*
X264869872Y-115400061D02*
X264869872Y-115542918D01*
X264869872Y-115542918D02*
X264822253Y-115733394D01*
X264822253Y-115733394D02*
X264774634Y-115828632D01*
X264774634Y-115828632D02*
X264679396Y-115923871D01*
X264679396Y-115923871D02*
X264536539Y-115971490D01*
X264536539Y-115971490D02*
X264298444Y-115971490D01*
X262988919Y-118511490D02*
X262655586Y-118035299D01*
X262417491Y-118511490D02*
X262417491Y-117511490D01*
X262417491Y-117511490D02*
X262798443Y-117511490D01*
X262798443Y-117511490D02*
X262893681Y-117559109D01*
X262893681Y-117559109D02*
X262941300Y-117606728D01*
X262941300Y-117606728D02*
X262988919Y-117701966D01*
X262988919Y-117701966D02*
X262988919Y-117844823D01*
X262988919Y-117844823D02*
X262941300Y-117940061D01*
X262941300Y-117940061D02*
X262893681Y-117987680D01*
X262893681Y-117987680D02*
X262798443Y-118035299D01*
X262798443Y-118035299D02*
X262417491Y-118035299D01*
X263369872Y-118463871D02*
X263512729Y-118511490D01*
X263512729Y-118511490D02*
X263750824Y-118511490D01*
X263750824Y-118511490D02*
X263846062Y-118463871D01*
X263846062Y-118463871D02*
X263893681Y-118416251D01*
X263893681Y-118416251D02*
X263941300Y-118321013D01*
X263941300Y-118321013D02*
X263941300Y-118225775D01*
X263941300Y-118225775D02*
X263893681Y-118130537D01*
X263893681Y-118130537D02*
X263846062Y-118082918D01*
X263846062Y-118082918D02*
X263750824Y-118035299D01*
X263750824Y-118035299D02*
X263560348Y-117987680D01*
X263560348Y-117987680D02*
X263465110Y-117940061D01*
X263465110Y-117940061D02*
X263417491Y-117892442D01*
X263417491Y-117892442D02*
X263369872Y-117797204D01*
X263369872Y-117797204D02*
X263369872Y-117701966D01*
X263369872Y-117701966D02*
X263417491Y-117606728D01*
X263417491Y-117606728D02*
X263465110Y-117559109D01*
X263465110Y-117559109D02*
X263560348Y-117511490D01*
X263560348Y-117511490D02*
X263798443Y-117511490D01*
X263798443Y-117511490D02*
X263941300Y-117559109D01*
X264227015Y-117511490D02*
X264798443Y-117511490D01*
X264512729Y-118511490D02*
X264512729Y-117511490D01*
X262203206Y-120051490D02*
X262536539Y-121051490D01*
X262536539Y-121051490D02*
X262869872Y-120051490D01*
X263774634Y-120956251D02*
X263727015Y-121003871D01*
X263727015Y-121003871D02*
X263584158Y-121051490D01*
X263584158Y-121051490D02*
X263488920Y-121051490D01*
X263488920Y-121051490D02*
X263346063Y-121003871D01*
X263346063Y-121003871D02*
X263250825Y-120908632D01*
X263250825Y-120908632D02*
X263203206Y-120813394D01*
X263203206Y-120813394D02*
X263155587Y-120622918D01*
X263155587Y-120622918D02*
X263155587Y-120480061D01*
X263155587Y-120480061D02*
X263203206Y-120289585D01*
X263203206Y-120289585D02*
X263250825Y-120194347D01*
X263250825Y-120194347D02*
X263346063Y-120099109D01*
X263346063Y-120099109D02*
X263488920Y-120051490D01*
X263488920Y-120051490D02*
X263584158Y-120051490D01*
X263584158Y-120051490D02*
X263727015Y-120099109D01*
X263727015Y-120099109D02*
X263774634Y-120146728D01*
X264774634Y-120956251D02*
X264727015Y-121003871D01*
X264727015Y-121003871D02*
X264584158Y-121051490D01*
X264584158Y-121051490D02*
X264488920Y-121051490D01*
X264488920Y-121051490D02*
X264346063Y-121003871D01*
X264346063Y-121003871D02*
X264250825Y-120908632D01*
X264250825Y-120908632D02*
X264203206Y-120813394D01*
X264203206Y-120813394D02*
X264155587Y-120622918D01*
X264155587Y-120622918D02*
X264155587Y-120480061D01*
X264155587Y-120480061D02*
X264203206Y-120289585D01*
X264203206Y-120289585D02*
X264250825Y-120194347D01*
X264250825Y-120194347D02*
X264346063Y-120099109D01*
X264346063Y-120099109D02*
X264488920Y-120051490D01*
X264488920Y-120051490D02*
X264584158Y-120051490D01*
X264584158Y-120051490D02*
X264727015Y-120099109D01*
X264727015Y-120099109D02*
X264774634Y-120146728D01*
X256843680Y-110886490D02*
X256510347Y-110410299D01*
X256272252Y-110886490D02*
X256272252Y-109886490D01*
X256272252Y-109886490D02*
X256653204Y-109886490D01*
X256653204Y-109886490D02*
X256748442Y-109934109D01*
X256748442Y-109934109D02*
X256796061Y-109981728D01*
X256796061Y-109981728D02*
X256843680Y-110076966D01*
X256843680Y-110076966D02*
X256843680Y-110219823D01*
X256843680Y-110219823D02*
X256796061Y-110315061D01*
X256796061Y-110315061D02*
X256748442Y-110362680D01*
X256748442Y-110362680D02*
X256653204Y-110410299D01*
X256653204Y-110410299D02*
X256272252Y-110410299D01*
X258034157Y-110886490D02*
X258034157Y-109886490D01*
X258462728Y-110886490D02*
X258462728Y-110362680D01*
X258462728Y-110362680D02*
X258415109Y-110267442D01*
X258415109Y-110267442D02*
X258319871Y-110219823D01*
X258319871Y-110219823D02*
X258177014Y-110219823D01*
X258177014Y-110219823D02*
X258081776Y-110267442D01*
X258081776Y-110267442D02*
X258034157Y-110315061D01*
X259367490Y-110886490D02*
X259367490Y-110362680D01*
X259367490Y-110362680D02*
X259319871Y-110267442D01*
X259319871Y-110267442D02*
X259224633Y-110219823D01*
X259224633Y-110219823D02*
X259034157Y-110219823D01*
X259034157Y-110219823D02*
X258938919Y-110267442D01*
X259367490Y-110838871D02*
X259272252Y-110886490D01*
X259272252Y-110886490D02*
X259034157Y-110886490D01*
X259034157Y-110886490D02*
X258938919Y-110838871D01*
X258938919Y-110838871D02*
X258891300Y-110743632D01*
X258891300Y-110743632D02*
X258891300Y-110648394D01*
X258891300Y-110648394D02*
X258938919Y-110553156D01*
X258938919Y-110553156D02*
X259034157Y-110505537D01*
X259034157Y-110505537D02*
X259272252Y-110505537D01*
X259272252Y-110505537D02*
X259367490Y-110457918D01*
X259843681Y-110219823D02*
X259843681Y-110886490D01*
X259843681Y-110315061D02*
X259891300Y-110267442D01*
X259891300Y-110267442D02*
X259986538Y-110219823D01*
X259986538Y-110219823D02*
X260129395Y-110219823D01*
X260129395Y-110219823D02*
X260224633Y-110267442D01*
X260224633Y-110267442D02*
X260272252Y-110362680D01*
X260272252Y-110362680D02*
X260272252Y-110886490D01*
X261177014Y-110886490D02*
X261177014Y-109886490D01*
X261177014Y-110838871D02*
X261081776Y-110886490D01*
X261081776Y-110886490D02*
X260891300Y-110886490D01*
X260891300Y-110886490D02*
X260796062Y-110838871D01*
X260796062Y-110838871D02*
X260748443Y-110791251D01*
X260748443Y-110791251D02*
X260700824Y-110696013D01*
X260700824Y-110696013D02*
X260700824Y-110410299D01*
X260700824Y-110410299D02*
X260748443Y-110315061D01*
X260748443Y-110315061D02*
X260796062Y-110267442D01*
X260796062Y-110267442D02*
X260891300Y-110219823D01*
X260891300Y-110219823D02*
X261081776Y-110219823D01*
X261081776Y-110219823D02*
X261177014Y-110267442D01*
X262415110Y-110886490D02*
X262415110Y-109886490D01*
X262415110Y-110267442D02*
X262510348Y-110219823D01*
X262510348Y-110219823D02*
X262700824Y-110219823D01*
X262700824Y-110219823D02*
X262796062Y-110267442D01*
X262796062Y-110267442D02*
X262843681Y-110315061D01*
X262843681Y-110315061D02*
X262891300Y-110410299D01*
X262891300Y-110410299D02*
X262891300Y-110696013D01*
X262891300Y-110696013D02*
X262843681Y-110791251D01*
X262843681Y-110791251D02*
X262796062Y-110838871D01*
X262796062Y-110838871D02*
X262700824Y-110886490D01*
X262700824Y-110886490D02*
X262510348Y-110886490D01*
X262510348Y-110886490D02*
X262415110Y-110838871D01*
X263748443Y-110886490D02*
X263748443Y-110362680D01*
X263748443Y-110362680D02*
X263700824Y-110267442D01*
X263700824Y-110267442D02*
X263605586Y-110219823D01*
X263605586Y-110219823D02*
X263415110Y-110219823D01*
X263415110Y-110219823D02*
X263319872Y-110267442D01*
X263748443Y-110838871D02*
X263653205Y-110886490D01*
X263653205Y-110886490D02*
X263415110Y-110886490D01*
X263415110Y-110886490D02*
X263319872Y-110838871D01*
X263319872Y-110838871D02*
X263272253Y-110743632D01*
X263272253Y-110743632D02*
X263272253Y-110648394D01*
X263272253Y-110648394D02*
X263319872Y-110553156D01*
X263319872Y-110553156D02*
X263415110Y-110505537D01*
X263415110Y-110505537D02*
X263653205Y-110505537D01*
X263653205Y-110505537D02*
X263748443Y-110457918D01*
X264653205Y-110838871D02*
X264557967Y-110886490D01*
X264557967Y-110886490D02*
X264367491Y-110886490D01*
X264367491Y-110886490D02*
X264272253Y-110838871D01*
X264272253Y-110838871D02*
X264224634Y-110791251D01*
X264224634Y-110791251D02*
X264177015Y-110696013D01*
X264177015Y-110696013D02*
X264177015Y-110410299D01*
X264177015Y-110410299D02*
X264224634Y-110315061D01*
X264224634Y-110315061D02*
X264272253Y-110267442D01*
X264272253Y-110267442D02*
X264367491Y-110219823D01*
X264367491Y-110219823D02*
X264557967Y-110219823D01*
X264557967Y-110219823D02*
X264653205Y-110267442D01*
X265081777Y-110886490D02*
X265081777Y-109886490D01*
X265177015Y-110505537D02*
X265462729Y-110886490D01*
X265462729Y-110219823D02*
X265081777Y-110600775D01*
X266605587Y-110838871D02*
X266700825Y-110886490D01*
X266700825Y-110886490D02*
X266891301Y-110886490D01*
X266891301Y-110886490D02*
X266986539Y-110838871D01*
X266986539Y-110838871D02*
X267034158Y-110743632D01*
X267034158Y-110743632D02*
X267034158Y-110696013D01*
X267034158Y-110696013D02*
X266986539Y-110600775D01*
X266986539Y-110600775D02*
X266891301Y-110553156D01*
X266891301Y-110553156D02*
X266748444Y-110553156D01*
X266748444Y-110553156D02*
X266653206Y-110505537D01*
X266653206Y-110505537D02*
X266605587Y-110410299D01*
X266605587Y-110410299D02*
X266605587Y-110362680D01*
X266605587Y-110362680D02*
X266653206Y-110267442D01*
X266653206Y-110267442D02*
X266748444Y-110219823D01*
X266748444Y-110219823D02*
X266891301Y-110219823D01*
X266891301Y-110219823D02*
X266986539Y-110267442D01*
X267462730Y-110886490D02*
X267462730Y-110219823D01*
X267462730Y-109886490D02*
X267415111Y-109934109D01*
X267415111Y-109934109D02*
X267462730Y-109981728D01*
X267462730Y-109981728D02*
X267510349Y-109934109D01*
X267510349Y-109934109D02*
X267462730Y-109886490D01*
X267462730Y-109886490D02*
X267462730Y-109981728D01*
X268367491Y-110886490D02*
X268367491Y-109886490D01*
X268367491Y-110838871D02*
X268272253Y-110886490D01*
X268272253Y-110886490D02*
X268081777Y-110886490D01*
X268081777Y-110886490D02*
X267986539Y-110838871D01*
X267986539Y-110838871D02*
X267938920Y-110791251D01*
X267938920Y-110791251D02*
X267891301Y-110696013D01*
X267891301Y-110696013D02*
X267891301Y-110410299D01*
X267891301Y-110410299D02*
X267938920Y-110315061D01*
X267938920Y-110315061D02*
X267986539Y-110267442D01*
X267986539Y-110267442D02*
X268081777Y-110219823D01*
X268081777Y-110219823D02*
X268272253Y-110219823D01*
X268272253Y-110219823D02*
X268367491Y-110267442D01*
X269224634Y-110838871D02*
X269129396Y-110886490D01*
X269129396Y-110886490D02*
X268938920Y-110886490D01*
X268938920Y-110886490D02*
X268843682Y-110838871D01*
X268843682Y-110838871D02*
X268796063Y-110743632D01*
X268796063Y-110743632D02*
X268796063Y-110362680D01*
X268796063Y-110362680D02*
X268843682Y-110267442D01*
X268843682Y-110267442D02*
X268938920Y-110219823D01*
X268938920Y-110219823D02*
X269129396Y-110219823D01*
X269129396Y-110219823D02*
X269224634Y-110267442D01*
X269224634Y-110267442D02*
X269272253Y-110362680D01*
X269272253Y-110362680D02*
X269272253Y-110457918D01*
X269272253Y-110457918D02*
X268796063Y-110553156D01*
X270748444Y-111267442D02*
X270700825Y-111219823D01*
X270700825Y-111219823D02*
X270605587Y-111076966D01*
X270605587Y-111076966D02*
X270557968Y-110981728D01*
X270557968Y-110981728D02*
X270510349Y-110838871D01*
X270510349Y-110838871D02*
X270462730Y-110600775D01*
X270462730Y-110600775D02*
X270462730Y-110410299D01*
X270462730Y-110410299D02*
X270510349Y-110172204D01*
X270510349Y-110172204D02*
X270557968Y-110029347D01*
X270557968Y-110029347D02*
X270605587Y-109934109D01*
X270605587Y-109934109D02*
X270700825Y-109791251D01*
X270700825Y-109791251D02*
X270748444Y-109743632D01*
X271129397Y-110886490D02*
X271129397Y-109886490D01*
X271129397Y-109886490D02*
X271462730Y-110600775D01*
X271462730Y-110600775D02*
X271796063Y-109886490D01*
X271796063Y-109886490D02*
X271796063Y-110886490D01*
X272653206Y-110886490D02*
X272653206Y-110124585D01*
X272462730Y-110315061D02*
X272653206Y-110124585D01*
X272653206Y-110124585D02*
X272843682Y-110315061D01*
X273415111Y-111267442D02*
X273462730Y-111219823D01*
X273462730Y-111219823D02*
X273557968Y-111076966D01*
X273557968Y-111076966D02*
X273605587Y-110981728D01*
X273605587Y-110981728D02*
X273653206Y-110838871D01*
X273653206Y-110838871D02*
X273700825Y-110600775D01*
X273700825Y-110600775D02*
X273700825Y-110410299D01*
X273700825Y-110410299D02*
X273653206Y-110172204D01*
X273653206Y-110172204D02*
X273605587Y-110029347D01*
X273605587Y-110029347D02*
X273557968Y-109934109D01*
X273557968Y-109934109D02*
X273462730Y-109791251D01*
X273462730Y-109791251D02*
X273415111Y-109743632D01*
X263603206Y-115971490D02*
X263603206Y-114971490D01*
X263603206Y-114971490D02*
X263841301Y-114971490D01*
X263841301Y-114971490D02*
X263984158Y-115019109D01*
X263984158Y-115019109D02*
X264079396Y-115114347D01*
X264079396Y-115114347D02*
X264127015Y-115209585D01*
X264127015Y-115209585D02*
X264174634Y-115400061D01*
X264174634Y-115400061D02*
X264174634Y-115542918D01*
X264174634Y-115542918D02*
X264127015Y-115733394D01*
X264127015Y-115733394D02*
X264079396Y-115828632D01*
X264079396Y-115828632D02*
X263984158Y-115923871D01*
X263984158Y-115923871D02*
X263841301Y-115971490D01*
X263841301Y-115971490D02*
X263603206Y-115971490D01*
X264603206Y-115971490D02*
X264603206Y-114971490D01*
X265031777Y-115923871D02*
X265174634Y-115971490D01*
X265174634Y-115971490D02*
X265412729Y-115971490D01*
X265412729Y-115971490D02*
X265507967Y-115923871D01*
X265507967Y-115923871D02*
X265555586Y-115876251D01*
X265555586Y-115876251D02*
X265603205Y-115781013D01*
X265603205Y-115781013D02*
X265603205Y-115685775D01*
X265603205Y-115685775D02*
X265555586Y-115590537D01*
X265555586Y-115590537D02*
X265507967Y-115542918D01*
X265507967Y-115542918D02*
X265412729Y-115495299D01*
X265412729Y-115495299D02*
X265222253Y-115447680D01*
X265222253Y-115447680D02*
X265127015Y-115400061D01*
X265127015Y-115400061D02*
X265079396Y-115352442D01*
X265079396Y-115352442D02*
X265031777Y-115257204D01*
X265031777Y-115257204D02*
X265031777Y-115161966D01*
X265031777Y-115161966D02*
X265079396Y-115066728D01*
X265079396Y-115066728D02*
X265127015Y-115019109D01*
X265127015Y-115019109D02*
X265222253Y-114971490D01*
X265222253Y-114971490D02*
X265460348Y-114971490D01*
X265460348Y-114971490D02*
X265603205Y-115019109D01*
X266031777Y-115971490D02*
X266031777Y-114971490D01*
X266031777Y-114971490D02*
X266412729Y-114971490D01*
X266412729Y-114971490D02*
X266507967Y-115019109D01*
X266507967Y-115019109D02*
X266555586Y-115066728D01*
X266555586Y-115066728D02*
X266603205Y-115161966D01*
X266603205Y-115161966D02*
X266603205Y-115304823D01*
X266603205Y-115304823D02*
X266555586Y-115400061D01*
X266555586Y-115400061D02*
X266507967Y-115447680D01*
X266507967Y-115447680D02*
X266412729Y-115495299D01*
X266412729Y-115495299D02*
X266031777Y-115495299D01*
X266793682Y-116066728D02*
X267555586Y-116066728D01*
X268365110Y-115876251D02*
X268317491Y-115923871D01*
X268317491Y-115923871D02*
X268174634Y-115971490D01*
X268174634Y-115971490D02*
X268079396Y-115971490D01*
X268079396Y-115971490D02*
X267936539Y-115923871D01*
X267936539Y-115923871D02*
X267841301Y-115828632D01*
X267841301Y-115828632D02*
X267793682Y-115733394D01*
X267793682Y-115733394D02*
X267746063Y-115542918D01*
X267746063Y-115542918D02*
X267746063Y-115400061D01*
X267746063Y-115400061D02*
X267793682Y-115209585D01*
X267793682Y-115209585D02*
X267841301Y-115114347D01*
X267841301Y-115114347D02*
X267936539Y-115019109D01*
X267936539Y-115019109D02*
X268079396Y-114971490D01*
X268079396Y-114971490D02*
X268174634Y-114971490D01*
X268174634Y-114971490D02*
X268317491Y-115019109D01*
X268317491Y-115019109D02*
X268365110Y-115066728D01*
X268746063Y-115923871D02*
X268888920Y-115971490D01*
X268888920Y-115971490D02*
X269127015Y-115971490D01*
X269127015Y-115971490D02*
X269222253Y-115923871D01*
X269222253Y-115923871D02*
X269269872Y-115876251D01*
X269269872Y-115876251D02*
X269317491Y-115781013D01*
X269317491Y-115781013D02*
X269317491Y-115685775D01*
X269317491Y-115685775D02*
X269269872Y-115590537D01*
X269269872Y-115590537D02*
X269222253Y-115542918D01*
X269222253Y-115542918D02*
X269127015Y-115495299D01*
X269127015Y-115495299D02*
X268936539Y-115447680D01*
X268936539Y-115447680D02*
X268841301Y-115400061D01*
X268841301Y-115400061D02*
X268793682Y-115352442D01*
X268793682Y-115352442D02*
X268746063Y-115257204D01*
X268746063Y-115257204D02*
X268746063Y-115161966D01*
X268746063Y-115161966D02*
X268793682Y-115066728D01*
X268793682Y-115066728D02*
X268841301Y-115019109D01*
X268841301Y-115019109D02*
X268936539Y-114971490D01*
X268936539Y-114971490D02*
X269174634Y-114971490D01*
X269174634Y-114971490D02*
X269317491Y-115019109D01*
X265674634Y-117559109D02*
X265579396Y-117511490D01*
X265579396Y-117511490D02*
X265436539Y-117511490D01*
X265436539Y-117511490D02*
X265293682Y-117559109D01*
X265293682Y-117559109D02*
X265198444Y-117654347D01*
X265198444Y-117654347D02*
X265150825Y-117749585D01*
X265150825Y-117749585D02*
X265103206Y-117940061D01*
X265103206Y-117940061D02*
X265103206Y-118082918D01*
X265103206Y-118082918D02*
X265150825Y-118273394D01*
X265150825Y-118273394D02*
X265198444Y-118368632D01*
X265198444Y-118368632D02*
X265293682Y-118463871D01*
X265293682Y-118463871D02*
X265436539Y-118511490D01*
X265436539Y-118511490D02*
X265531777Y-118511490D01*
X265531777Y-118511490D02*
X265674634Y-118463871D01*
X265674634Y-118463871D02*
X265722253Y-118416251D01*
X265722253Y-118416251D02*
X265722253Y-118082918D01*
X265722253Y-118082918D02*
X265531777Y-118082918D01*
X266150825Y-118511490D02*
X266150825Y-117511490D01*
X266150825Y-117511490D02*
X266722253Y-118511490D01*
X266722253Y-118511490D02*
X266722253Y-117511490D01*
X267198444Y-118511490D02*
X267198444Y-117511490D01*
X267198444Y-117511490D02*
X267436539Y-117511490D01*
X267436539Y-117511490D02*
X267579396Y-117559109D01*
X267579396Y-117559109D02*
X267674634Y-117654347D01*
X267674634Y-117654347D02*
X267722253Y-117749585D01*
X267722253Y-117749585D02*
X267769872Y-117940061D01*
X267769872Y-117940061D02*
X267769872Y-118082918D01*
X267769872Y-118082918D02*
X267722253Y-118273394D01*
X267722253Y-118273394D02*
X267674634Y-118368632D01*
X267674634Y-118368632D02*
X267579396Y-118463871D01*
X267579396Y-118463871D02*
X267436539Y-118511490D01*
X267436539Y-118511490D02*
X267198444Y-118511490D01*
X265674634Y-120099109D02*
X265579396Y-120051490D01*
X265579396Y-120051490D02*
X265436539Y-120051490D01*
X265436539Y-120051490D02*
X265293682Y-120099109D01*
X265293682Y-120099109D02*
X265198444Y-120194347D01*
X265198444Y-120194347D02*
X265150825Y-120289585D01*
X265150825Y-120289585D02*
X265103206Y-120480061D01*
X265103206Y-120480061D02*
X265103206Y-120622918D01*
X265103206Y-120622918D02*
X265150825Y-120813394D01*
X265150825Y-120813394D02*
X265198444Y-120908632D01*
X265198444Y-120908632D02*
X265293682Y-121003871D01*
X265293682Y-121003871D02*
X265436539Y-121051490D01*
X265436539Y-121051490D02*
X265531777Y-121051490D01*
X265531777Y-121051490D02*
X265674634Y-121003871D01*
X265674634Y-121003871D02*
X265722253Y-120956251D01*
X265722253Y-120956251D02*
X265722253Y-120622918D01*
X265722253Y-120622918D02*
X265531777Y-120622918D01*
X266150825Y-121051490D02*
X266150825Y-120051490D01*
X266150825Y-120051490D02*
X266722253Y-121051490D01*
X266722253Y-121051490D02*
X266722253Y-120051490D01*
X267198444Y-121051490D02*
X267198444Y-120051490D01*
X267198444Y-120051490D02*
X267436539Y-120051490D01*
X267436539Y-120051490D02*
X267579396Y-120099109D01*
X267579396Y-120099109D02*
X267674634Y-120194347D01*
X267674634Y-120194347D02*
X267722253Y-120289585D01*
X267722253Y-120289585D02*
X267769872Y-120480061D01*
X267769872Y-120480061D02*
X267769872Y-120622918D01*
X267769872Y-120622918D02*
X267722253Y-120813394D01*
X267722253Y-120813394D02*
X267674634Y-120908632D01*
X267674634Y-120908632D02*
X267579396Y-121003871D01*
X267579396Y-121003871D02*
X267436539Y-121051490D01*
X267436539Y-121051490D02*
X267198444Y-121051490D01*
X263103206Y-126131490D02*
X263103206Y-125131490D01*
X263103206Y-125131490D02*
X263341301Y-125131490D01*
X263341301Y-125131490D02*
X263484158Y-125179109D01*
X263484158Y-125179109D02*
X263579396Y-125274347D01*
X263579396Y-125274347D02*
X263627015Y-125369585D01*
X263627015Y-125369585D02*
X263674634Y-125560061D01*
X263674634Y-125560061D02*
X263674634Y-125702918D01*
X263674634Y-125702918D02*
X263627015Y-125893394D01*
X263627015Y-125893394D02*
X263579396Y-125988632D01*
X263579396Y-125988632D02*
X263484158Y-126083871D01*
X263484158Y-126083871D02*
X263341301Y-126131490D01*
X263341301Y-126131490D02*
X263103206Y-126131490D01*
X264103206Y-126131490D02*
X264103206Y-125131490D01*
X264531777Y-126083871D02*
X264674634Y-126131490D01*
X264674634Y-126131490D02*
X264912729Y-126131490D01*
X264912729Y-126131490D02*
X265007967Y-126083871D01*
X265007967Y-126083871D02*
X265055586Y-126036251D01*
X265055586Y-126036251D02*
X265103205Y-125941013D01*
X265103205Y-125941013D02*
X265103205Y-125845775D01*
X265103205Y-125845775D02*
X265055586Y-125750537D01*
X265055586Y-125750537D02*
X265007967Y-125702918D01*
X265007967Y-125702918D02*
X264912729Y-125655299D01*
X264912729Y-125655299D02*
X264722253Y-125607680D01*
X264722253Y-125607680D02*
X264627015Y-125560061D01*
X264627015Y-125560061D02*
X264579396Y-125512442D01*
X264579396Y-125512442D02*
X264531777Y-125417204D01*
X264531777Y-125417204D02*
X264531777Y-125321966D01*
X264531777Y-125321966D02*
X264579396Y-125226728D01*
X264579396Y-125226728D02*
X264627015Y-125179109D01*
X264627015Y-125179109D02*
X264722253Y-125131490D01*
X264722253Y-125131490D02*
X264960348Y-125131490D01*
X264960348Y-125131490D02*
X265103205Y-125179109D01*
X265531777Y-126131490D02*
X265531777Y-125131490D01*
X265531777Y-125131490D02*
X265912729Y-125131490D01*
X265912729Y-125131490D02*
X266007967Y-125179109D01*
X266007967Y-125179109D02*
X266055586Y-125226728D01*
X266055586Y-125226728D02*
X266103205Y-125321966D01*
X266103205Y-125321966D02*
X266103205Y-125464823D01*
X266103205Y-125464823D02*
X266055586Y-125560061D01*
X266055586Y-125560061D02*
X266007967Y-125607680D01*
X266007967Y-125607680D02*
X265912729Y-125655299D01*
X265912729Y-125655299D02*
X265531777Y-125655299D01*
X266293682Y-126226728D02*
X267055586Y-126226728D01*
X267246063Y-126083871D02*
X267388920Y-126131490D01*
X267388920Y-126131490D02*
X267627015Y-126131490D01*
X267627015Y-126131490D02*
X267722253Y-126083871D01*
X267722253Y-126083871D02*
X267769872Y-126036251D01*
X267769872Y-126036251D02*
X267817491Y-125941013D01*
X267817491Y-125941013D02*
X267817491Y-125845775D01*
X267817491Y-125845775D02*
X267769872Y-125750537D01*
X267769872Y-125750537D02*
X267722253Y-125702918D01*
X267722253Y-125702918D02*
X267627015Y-125655299D01*
X267627015Y-125655299D02*
X267436539Y-125607680D01*
X267436539Y-125607680D02*
X267341301Y-125560061D01*
X267341301Y-125560061D02*
X267293682Y-125512442D01*
X267293682Y-125512442D02*
X267246063Y-125417204D01*
X267246063Y-125417204D02*
X267246063Y-125321966D01*
X267246063Y-125321966D02*
X267293682Y-125226728D01*
X267293682Y-125226728D02*
X267341301Y-125179109D01*
X267341301Y-125179109D02*
X267436539Y-125131490D01*
X267436539Y-125131490D02*
X267674634Y-125131490D01*
X267674634Y-125131490D02*
X267817491Y-125179109D01*
X268817491Y-126036251D02*
X268769872Y-126083871D01*
X268769872Y-126083871D02*
X268627015Y-126131490D01*
X268627015Y-126131490D02*
X268531777Y-126131490D01*
X268531777Y-126131490D02*
X268388920Y-126083871D01*
X268388920Y-126083871D02*
X268293682Y-125988632D01*
X268293682Y-125988632D02*
X268246063Y-125893394D01*
X268246063Y-125893394D02*
X268198444Y-125702918D01*
X268198444Y-125702918D02*
X268198444Y-125560061D01*
X268198444Y-125560061D02*
X268246063Y-125369585D01*
X268246063Y-125369585D02*
X268293682Y-125274347D01*
X268293682Y-125274347D02*
X268388920Y-125179109D01*
X268388920Y-125179109D02*
X268531777Y-125131490D01*
X268531777Y-125131490D02*
X268627015Y-125131490D01*
X268627015Y-125131490D02*
X268769872Y-125179109D01*
X268769872Y-125179109D02*
X268817491Y-125226728D01*
X269246063Y-126131490D02*
X269246063Y-125131490D01*
X269817491Y-126131490D02*
X269388920Y-125560061D01*
X269817491Y-125131490D02*
X269246063Y-125702918D01*
X262769873Y-128671490D02*
X262769873Y-127671490D01*
X262769873Y-127671490D02*
X263007968Y-127671490D01*
X263007968Y-127671490D02*
X263150825Y-127719109D01*
X263150825Y-127719109D02*
X263246063Y-127814347D01*
X263246063Y-127814347D02*
X263293682Y-127909585D01*
X263293682Y-127909585D02*
X263341301Y-128100061D01*
X263341301Y-128100061D02*
X263341301Y-128242918D01*
X263341301Y-128242918D02*
X263293682Y-128433394D01*
X263293682Y-128433394D02*
X263246063Y-128528632D01*
X263246063Y-128528632D02*
X263150825Y-128623871D01*
X263150825Y-128623871D02*
X263007968Y-128671490D01*
X263007968Y-128671490D02*
X262769873Y-128671490D01*
X263769873Y-128671490D02*
X263769873Y-127671490D01*
X264198444Y-128623871D02*
X264341301Y-128671490D01*
X264341301Y-128671490D02*
X264579396Y-128671490D01*
X264579396Y-128671490D02*
X264674634Y-128623871D01*
X264674634Y-128623871D02*
X264722253Y-128576251D01*
X264722253Y-128576251D02*
X264769872Y-128481013D01*
X264769872Y-128481013D02*
X264769872Y-128385775D01*
X264769872Y-128385775D02*
X264722253Y-128290537D01*
X264722253Y-128290537D02*
X264674634Y-128242918D01*
X264674634Y-128242918D02*
X264579396Y-128195299D01*
X264579396Y-128195299D02*
X264388920Y-128147680D01*
X264388920Y-128147680D02*
X264293682Y-128100061D01*
X264293682Y-128100061D02*
X264246063Y-128052442D01*
X264246063Y-128052442D02*
X264198444Y-127957204D01*
X264198444Y-127957204D02*
X264198444Y-127861966D01*
X264198444Y-127861966D02*
X264246063Y-127766728D01*
X264246063Y-127766728D02*
X264293682Y-127719109D01*
X264293682Y-127719109D02*
X264388920Y-127671490D01*
X264388920Y-127671490D02*
X264627015Y-127671490D01*
X264627015Y-127671490D02*
X264769872Y-127719109D01*
X265198444Y-128671490D02*
X265198444Y-127671490D01*
X265198444Y-127671490D02*
X265579396Y-127671490D01*
X265579396Y-127671490D02*
X265674634Y-127719109D01*
X265674634Y-127719109D02*
X265722253Y-127766728D01*
X265722253Y-127766728D02*
X265769872Y-127861966D01*
X265769872Y-127861966D02*
X265769872Y-128004823D01*
X265769872Y-128004823D02*
X265722253Y-128100061D01*
X265722253Y-128100061D02*
X265674634Y-128147680D01*
X265674634Y-128147680D02*
X265579396Y-128195299D01*
X265579396Y-128195299D02*
X265198444Y-128195299D01*
X265960349Y-128766728D02*
X266722253Y-128766728D01*
X266960349Y-128671490D02*
X266960349Y-127671490D01*
X266960349Y-127671490D02*
X267293682Y-128385775D01*
X267293682Y-128385775D02*
X267627015Y-127671490D01*
X267627015Y-127671490D02*
X267627015Y-128671490D01*
X268293682Y-127671490D02*
X268484158Y-127671490D01*
X268484158Y-127671490D02*
X268579396Y-127719109D01*
X268579396Y-127719109D02*
X268674634Y-127814347D01*
X268674634Y-127814347D02*
X268722253Y-128004823D01*
X268722253Y-128004823D02*
X268722253Y-128338156D01*
X268722253Y-128338156D02*
X268674634Y-128528632D01*
X268674634Y-128528632D02*
X268579396Y-128623871D01*
X268579396Y-128623871D02*
X268484158Y-128671490D01*
X268484158Y-128671490D02*
X268293682Y-128671490D01*
X268293682Y-128671490D02*
X268198444Y-128623871D01*
X268198444Y-128623871D02*
X268103206Y-128528632D01*
X268103206Y-128528632D02*
X268055587Y-128338156D01*
X268055587Y-128338156D02*
X268055587Y-128004823D01*
X268055587Y-128004823D02*
X268103206Y-127814347D01*
X268103206Y-127814347D02*
X268198444Y-127719109D01*
X268198444Y-127719109D02*
X268293682Y-127671490D01*
X269103206Y-128623871D02*
X269246063Y-128671490D01*
X269246063Y-128671490D02*
X269484158Y-128671490D01*
X269484158Y-128671490D02*
X269579396Y-128623871D01*
X269579396Y-128623871D02*
X269627015Y-128576251D01*
X269627015Y-128576251D02*
X269674634Y-128481013D01*
X269674634Y-128481013D02*
X269674634Y-128385775D01*
X269674634Y-128385775D02*
X269627015Y-128290537D01*
X269627015Y-128290537D02*
X269579396Y-128242918D01*
X269579396Y-128242918D02*
X269484158Y-128195299D01*
X269484158Y-128195299D02*
X269293682Y-128147680D01*
X269293682Y-128147680D02*
X269198444Y-128100061D01*
X269198444Y-128100061D02*
X269150825Y-128052442D01*
X269150825Y-128052442D02*
X269103206Y-127957204D01*
X269103206Y-127957204D02*
X269103206Y-127861966D01*
X269103206Y-127861966D02*
X269150825Y-127766728D01*
X269150825Y-127766728D02*
X269198444Y-127719109D01*
X269198444Y-127719109D02*
X269293682Y-127671490D01*
X269293682Y-127671490D02*
X269531777Y-127671490D01*
X269531777Y-127671490D02*
X269674634Y-127719109D01*
X270103206Y-128671490D02*
X270103206Y-127671490D01*
X264388920Y-133227680D02*
X264722253Y-133227680D01*
X264865110Y-133751490D02*
X264388920Y-133751490D01*
X264388920Y-133751490D02*
X264388920Y-132751490D01*
X264388920Y-132751490D02*
X264865110Y-132751490D01*
X265293682Y-133751490D02*
X265293682Y-132751490D01*
X265293682Y-132751490D02*
X265865110Y-133751490D01*
X265865110Y-133751490D02*
X265865110Y-132751490D01*
X266912729Y-133656251D02*
X266865110Y-133703871D01*
X266865110Y-133703871D02*
X266722253Y-133751490D01*
X266722253Y-133751490D02*
X266627015Y-133751490D01*
X266627015Y-133751490D02*
X266484158Y-133703871D01*
X266484158Y-133703871D02*
X266388920Y-133608632D01*
X266388920Y-133608632D02*
X266341301Y-133513394D01*
X266341301Y-133513394D02*
X266293682Y-133322918D01*
X266293682Y-133322918D02*
X266293682Y-133180061D01*
X266293682Y-133180061D02*
X266341301Y-132989585D01*
X266341301Y-132989585D02*
X266388920Y-132894347D01*
X266388920Y-132894347D02*
X266484158Y-132799109D01*
X266484158Y-132799109D02*
X266627015Y-132751490D01*
X266627015Y-132751490D02*
X266722253Y-132751490D01*
X266722253Y-132751490D02*
X266865110Y-132799109D01*
X266865110Y-132799109D02*
X266912729Y-132846728D01*
X267103206Y-133846728D02*
X267865110Y-133846728D01*
X268055587Y-133465775D02*
X268531777Y-133465775D01*
X267960349Y-133751490D02*
X268293682Y-132751490D01*
X268293682Y-132751490D02*
X268627015Y-133751490D01*
X264317491Y-135767680D02*
X264650824Y-135767680D01*
X264793681Y-136291490D02*
X264317491Y-136291490D01*
X264317491Y-136291490D02*
X264317491Y-135291490D01*
X264317491Y-135291490D02*
X264793681Y-135291490D01*
X265222253Y-136291490D02*
X265222253Y-135291490D01*
X265222253Y-135291490D02*
X265793681Y-136291490D01*
X265793681Y-136291490D02*
X265793681Y-135291490D01*
X266841300Y-136196251D02*
X266793681Y-136243871D01*
X266793681Y-136243871D02*
X266650824Y-136291490D01*
X266650824Y-136291490D02*
X266555586Y-136291490D01*
X266555586Y-136291490D02*
X266412729Y-136243871D01*
X266412729Y-136243871D02*
X266317491Y-136148632D01*
X266317491Y-136148632D02*
X266269872Y-136053394D01*
X266269872Y-136053394D02*
X266222253Y-135862918D01*
X266222253Y-135862918D02*
X266222253Y-135720061D01*
X266222253Y-135720061D02*
X266269872Y-135529585D01*
X266269872Y-135529585D02*
X266317491Y-135434347D01*
X266317491Y-135434347D02*
X266412729Y-135339109D01*
X266412729Y-135339109D02*
X266555586Y-135291490D01*
X266555586Y-135291490D02*
X266650824Y-135291490D01*
X266650824Y-135291490D02*
X266793681Y-135339109D01*
X266793681Y-135339109D02*
X266841300Y-135386728D01*
X267031777Y-136386728D02*
X267793681Y-136386728D01*
X268365110Y-135767680D02*
X268507967Y-135815299D01*
X268507967Y-135815299D02*
X268555586Y-135862918D01*
X268555586Y-135862918D02*
X268603205Y-135958156D01*
X268603205Y-135958156D02*
X268603205Y-136101013D01*
X268603205Y-136101013D02*
X268555586Y-136196251D01*
X268555586Y-136196251D02*
X268507967Y-136243871D01*
X268507967Y-136243871D02*
X268412729Y-136291490D01*
X268412729Y-136291490D02*
X268031777Y-136291490D01*
X268031777Y-136291490D02*
X268031777Y-135291490D01*
X268031777Y-135291490D02*
X268365110Y-135291490D01*
X268365110Y-135291490D02*
X268460348Y-135339109D01*
X268460348Y-135339109D02*
X268507967Y-135386728D01*
X268507967Y-135386728D02*
X268555586Y-135481966D01*
X268555586Y-135481966D02*
X268555586Y-135577204D01*
X268555586Y-135577204D02*
X268507967Y-135672442D01*
X268507967Y-135672442D02*
X268460348Y-135720061D01*
X268460348Y-135720061D02*
X268365110Y-135767680D01*
X268365110Y-135767680D02*
X268031777Y-135767680D01*
X266288444Y-113431490D02*
X266288444Y-112431490D01*
X266288444Y-112431490D02*
X266669396Y-112431490D01*
X266669396Y-112431490D02*
X266764634Y-112479109D01*
X266764634Y-112479109D02*
X266812253Y-112526728D01*
X266812253Y-112526728D02*
X266859872Y-112621966D01*
X266859872Y-112621966D02*
X266859872Y-112764823D01*
X266859872Y-112764823D02*
X266812253Y-112860061D01*
X266812253Y-112860061D02*
X266764634Y-112907680D01*
X266764634Y-112907680D02*
X266669396Y-112955299D01*
X266669396Y-112955299D02*
X266288444Y-112955299D01*
X267812253Y-113431490D02*
X267240825Y-113431490D01*
X267526539Y-113431490D02*
X267526539Y-112431490D01*
X267526539Y-112431490D02*
X267431301Y-112574347D01*
X267431301Y-112574347D02*
X267336063Y-112669585D01*
X267336063Y-112669585D02*
X267240825Y-112717204D01*
X266288444Y-123591490D02*
X266288444Y-122591490D01*
X266288444Y-122591490D02*
X266669396Y-122591490D01*
X266669396Y-122591490D02*
X266764634Y-122639109D01*
X266764634Y-122639109D02*
X266812253Y-122686728D01*
X266812253Y-122686728D02*
X266859872Y-122781966D01*
X266859872Y-122781966D02*
X266859872Y-122924823D01*
X266859872Y-122924823D02*
X266812253Y-123020061D01*
X266812253Y-123020061D02*
X266764634Y-123067680D01*
X266764634Y-123067680D02*
X266669396Y-123115299D01*
X266669396Y-123115299D02*
X266288444Y-123115299D01*
X267240825Y-122686728D02*
X267288444Y-122639109D01*
X267288444Y-122639109D02*
X267383682Y-122591490D01*
X267383682Y-122591490D02*
X267621777Y-122591490D01*
X267621777Y-122591490D02*
X267717015Y-122639109D01*
X267717015Y-122639109D02*
X267764634Y-122686728D01*
X267764634Y-122686728D02*
X267812253Y-122781966D01*
X267812253Y-122781966D02*
X267812253Y-122877204D01*
X267812253Y-122877204D02*
X267764634Y-123020061D01*
X267764634Y-123020061D02*
X267193206Y-123591490D01*
X267193206Y-123591490D02*
X267812253Y-123591490D01*
X266859872Y-131211490D02*
X266526539Y-130735299D01*
X266288444Y-131211490D02*
X266288444Y-130211490D01*
X266288444Y-130211490D02*
X266669396Y-130211490D01*
X266669396Y-130211490D02*
X266764634Y-130259109D01*
X266764634Y-130259109D02*
X266812253Y-130306728D01*
X266812253Y-130306728D02*
X266859872Y-130401966D01*
X266859872Y-130401966D02*
X266859872Y-130544823D01*
X266859872Y-130544823D02*
X266812253Y-130640061D01*
X266812253Y-130640061D02*
X266764634Y-130687680D01*
X266764634Y-130687680D02*
X266669396Y-130735299D01*
X266669396Y-130735299D02*
X266288444Y-130735299D01*
X267478920Y-130211490D02*
X267574158Y-130211490D01*
X267574158Y-130211490D02*
X267669396Y-130259109D01*
X267669396Y-130259109D02*
X267717015Y-130306728D01*
X267717015Y-130306728D02*
X267764634Y-130401966D01*
X267764634Y-130401966D02*
X267812253Y-130592442D01*
X267812253Y-130592442D02*
X267812253Y-130830537D01*
X267812253Y-130830537D02*
X267764634Y-131021013D01*
X267764634Y-131021013D02*
X267717015Y-131116251D01*
X267717015Y-131116251D02*
X267669396Y-131163871D01*
X267669396Y-131163871D02*
X267574158Y-131211490D01*
X267574158Y-131211490D02*
X267478920Y-131211490D01*
X267478920Y-131211490D02*
X267383682Y-131163871D01*
X267383682Y-131163871D02*
X267336063Y-131116251D01*
X267336063Y-131116251D02*
X267288444Y-131021013D01*
X267288444Y-131021013D02*
X267240825Y-130830537D01*
X267240825Y-130830537D02*
X267240825Y-130592442D01*
X267240825Y-130592442D02*
X267288444Y-130401966D01*
X267288444Y-130401966D02*
X267336063Y-130306728D01*
X267336063Y-130306728D02*
X267383682Y-130259109D01*
X267383682Y-130259109D02*
X267478920Y-130211490D01*
X266859872Y-138736251D02*
X266812253Y-138783871D01*
X266812253Y-138783871D02*
X266669396Y-138831490D01*
X266669396Y-138831490D02*
X266574158Y-138831490D01*
X266574158Y-138831490D02*
X266431301Y-138783871D01*
X266431301Y-138783871D02*
X266336063Y-138688632D01*
X266336063Y-138688632D02*
X266288444Y-138593394D01*
X266288444Y-138593394D02*
X266240825Y-138402918D01*
X266240825Y-138402918D02*
X266240825Y-138260061D01*
X266240825Y-138260061D02*
X266288444Y-138069585D01*
X266288444Y-138069585D02*
X266336063Y-137974347D01*
X266336063Y-137974347D02*
X266431301Y-137879109D01*
X266431301Y-137879109D02*
X266574158Y-137831490D01*
X266574158Y-137831490D02*
X266669396Y-137831490D01*
X266669396Y-137831490D02*
X266812253Y-137879109D01*
X266812253Y-137879109D02*
X266859872Y-137926728D01*
X267717015Y-137831490D02*
X267526539Y-137831490D01*
X267526539Y-137831490D02*
X267431301Y-137879109D01*
X267431301Y-137879109D02*
X267383682Y-137926728D01*
X267383682Y-137926728D02*
X267288444Y-138069585D01*
X267288444Y-138069585D02*
X267240825Y-138260061D01*
X267240825Y-138260061D02*
X267240825Y-138641013D01*
X267240825Y-138641013D02*
X267288444Y-138736251D01*
X267288444Y-138736251D02*
X267336063Y-138783871D01*
X267336063Y-138783871D02*
X267431301Y-138831490D01*
X267431301Y-138831490D02*
X267621777Y-138831490D01*
X267621777Y-138831490D02*
X267717015Y-138783871D01*
X267717015Y-138783871D02*
X267764634Y-138736251D01*
X267764634Y-138736251D02*
X267812253Y-138641013D01*
X267812253Y-138641013D02*
X267812253Y-138402918D01*
X267812253Y-138402918D02*
X267764634Y-138307680D01*
X267764634Y-138307680D02*
X267717015Y-138260061D01*
X267717015Y-138260061D02*
X267621777Y-138212442D01*
X267621777Y-138212442D02*
X267431301Y-138212442D01*
X267431301Y-138212442D02*
X267336063Y-138260061D01*
X267336063Y-138260061D02*
X267288444Y-138307680D01*
X267288444Y-138307680D02*
X267240825Y-138402918D01*
X266859872Y-141371490D02*
X266526539Y-140895299D01*
X266288444Y-141371490D02*
X266288444Y-140371490D01*
X266288444Y-140371490D02*
X266669396Y-140371490D01*
X266669396Y-140371490D02*
X266764634Y-140419109D01*
X266764634Y-140419109D02*
X266812253Y-140466728D01*
X266812253Y-140466728D02*
X266859872Y-140561966D01*
X266859872Y-140561966D02*
X266859872Y-140704823D01*
X266859872Y-140704823D02*
X266812253Y-140800061D01*
X266812253Y-140800061D02*
X266764634Y-140847680D01*
X266764634Y-140847680D02*
X266669396Y-140895299D01*
X266669396Y-140895299D02*
X266288444Y-140895299D01*
X267812253Y-141371490D02*
X267240825Y-141371490D01*
X267526539Y-141371490D02*
X267526539Y-140371490D01*
X267526539Y-140371490D02*
X267431301Y-140514347D01*
X267431301Y-140514347D02*
X267336063Y-140609585D01*
X267336063Y-140609585D02*
X267240825Y-140657204D01*
X241938919Y-105131490D02*
X241605586Y-104655299D01*
X241367491Y-105131490D02*
X241367491Y-104131490D01*
X241367491Y-104131490D02*
X241748443Y-104131490D01*
X241748443Y-104131490D02*
X241843681Y-104179109D01*
X241843681Y-104179109D02*
X241891300Y-104226728D01*
X241891300Y-104226728D02*
X241938919Y-104321966D01*
X241938919Y-104321966D02*
X241938919Y-104464823D01*
X241938919Y-104464823D02*
X241891300Y-104560061D01*
X241891300Y-104560061D02*
X241843681Y-104607680D01*
X241843681Y-104607680D02*
X241748443Y-104655299D01*
X241748443Y-104655299D02*
X241367491Y-104655299D01*
X242319872Y-105083871D02*
X242462729Y-105131490D01*
X242462729Y-105131490D02*
X242700824Y-105131490D01*
X242700824Y-105131490D02*
X242796062Y-105083871D01*
X242796062Y-105083871D02*
X242843681Y-105036251D01*
X242843681Y-105036251D02*
X242891300Y-104941013D01*
X242891300Y-104941013D02*
X242891300Y-104845775D01*
X242891300Y-104845775D02*
X242843681Y-104750537D01*
X242843681Y-104750537D02*
X242796062Y-104702918D01*
X242796062Y-104702918D02*
X242700824Y-104655299D01*
X242700824Y-104655299D02*
X242510348Y-104607680D01*
X242510348Y-104607680D02*
X242415110Y-104560061D01*
X242415110Y-104560061D02*
X242367491Y-104512442D01*
X242367491Y-104512442D02*
X242319872Y-104417204D01*
X242319872Y-104417204D02*
X242319872Y-104321966D01*
X242319872Y-104321966D02*
X242367491Y-104226728D01*
X242367491Y-104226728D02*
X242415110Y-104179109D01*
X242415110Y-104179109D02*
X242510348Y-104131490D01*
X242510348Y-104131490D02*
X242748443Y-104131490D01*
X242748443Y-104131490D02*
X242891300Y-104179109D01*
X243177015Y-104131490D02*
X243748443Y-104131490D01*
X243462729Y-105131490D02*
X243462729Y-104131490D01*
X260361358Y-154180116D02*
X259361358Y-154180116D01*
X259361358Y-154180116D02*
X259361358Y-153942021D01*
X259361358Y-153942021D02*
X259408977Y-153799164D01*
X259408977Y-153799164D02*
X259504215Y-153703926D01*
X259504215Y-153703926D02*
X259599453Y-153656307D01*
X259599453Y-153656307D02*
X259789929Y-153608688D01*
X259789929Y-153608688D02*
X259932786Y-153608688D01*
X259932786Y-153608688D02*
X260123262Y-153656307D01*
X260123262Y-153656307D02*
X260218500Y-153703926D01*
X260218500Y-153703926D02*
X260313739Y-153799164D01*
X260313739Y-153799164D02*
X260361358Y-153942021D01*
X260361358Y-153942021D02*
X260361358Y-154180116D01*
X260361358Y-153180116D02*
X259361358Y-153180116D01*
X260313739Y-152751545D02*
X260361358Y-152608688D01*
X260361358Y-152608688D02*
X260361358Y-152370593D01*
X260361358Y-152370593D02*
X260313739Y-152275355D01*
X260313739Y-152275355D02*
X260266119Y-152227736D01*
X260266119Y-152227736D02*
X260170881Y-152180117D01*
X260170881Y-152180117D02*
X260075643Y-152180117D01*
X260075643Y-152180117D02*
X259980405Y-152227736D01*
X259980405Y-152227736D02*
X259932786Y-152275355D01*
X259932786Y-152275355D02*
X259885167Y-152370593D01*
X259885167Y-152370593D02*
X259837548Y-152561069D01*
X259837548Y-152561069D02*
X259789929Y-152656307D01*
X259789929Y-152656307D02*
X259742310Y-152703926D01*
X259742310Y-152703926D02*
X259647072Y-152751545D01*
X259647072Y-152751545D02*
X259551834Y-152751545D01*
X259551834Y-152751545D02*
X259456596Y-152703926D01*
X259456596Y-152703926D02*
X259408977Y-152656307D01*
X259408977Y-152656307D02*
X259361358Y-152561069D01*
X259361358Y-152561069D02*
X259361358Y-152322974D01*
X259361358Y-152322974D02*
X259408977Y-152180117D01*
X260361358Y-151751545D02*
X259361358Y-151751545D01*
X259361358Y-151751545D02*
X259361358Y-151370593D01*
X259361358Y-151370593D02*
X259408977Y-151275355D01*
X259408977Y-151275355D02*
X259456596Y-151227736D01*
X259456596Y-151227736D02*
X259551834Y-151180117D01*
X259551834Y-151180117D02*
X259694691Y-151180117D01*
X259694691Y-151180117D02*
X259789929Y-151227736D01*
X259789929Y-151227736D02*
X259837548Y-151275355D01*
X259837548Y-151275355D02*
X259885167Y-151370593D01*
X259885167Y-151370593D02*
X259885167Y-151751545D01*
X260456596Y-150989641D02*
X260456596Y-150227736D01*
X260266119Y-149418212D02*
X260313739Y-149465831D01*
X260313739Y-149465831D02*
X260361358Y-149608688D01*
X260361358Y-149608688D02*
X260361358Y-149703926D01*
X260361358Y-149703926D02*
X260313739Y-149846783D01*
X260313739Y-149846783D02*
X260218500Y-149942021D01*
X260218500Y-149942021D02*
X260123262Y-149989640D01*
X260123262Y-149989640D02*
X259932786Y-150037259D01*
X259932786Y-150037259D02*
X259789929Y-150037259D01*
X259789929Y-150037259D02*
X259599453Y-149989640D01*
X259599453Y-149989640D02*
X259504215Y-149942021D01*
X259504215Y-149942021D02*
X259408977Y-149846783D01*
X259408977Y-149846783D02*
X259361358Y-149703926D01*
X259361358Y-149703926D02*
X259361358Y-149608688D01*
X259361358Y-149608688D02*
X259408977Y-149465831D01*
X259408977Y-149465831D02*
X259456596Y-149418212D01*
X260313739Y-149037259D02*
X260361358Y-148894402D01*
X260361358Y-148894402D02*
X260361358Y-148656307D01*
X260361358Y-148656307D02*
X260313739Y-148561069D01*
X260313739Y-148561069D02*
X260266119Y-148513450D01*
X260266119Y-148513450D02*
X260170881Y-148465831D01*
X260170881Y-148465831D02*
X260075643Y-148465831D01*
X260075643Y-148465831D02*
X259980405Y-148513450D01*
X259980405Y-148513450D02*
X259932786Y-148561069D01*
X259932786Y-148561069D02*
X259885167Y-148656307D01*
X259885167Y-148656307D02*
X259837548Y-148846783D01*
X259837548Y-148846783D02*
X259789929Y-148942021D01*
X259789929Y-148942021D02*
X259742310Y-148989640D01*
X259742310Y-148989640D02*
X259647072Y-149037259D01*
X259647072Y-149037259D02*
X259551834Y-149037259D01*
X259551834Y-149037259D02*
X259456596Y-148989640D01*
X259456596Y-148989640D02*
X259408977Y-148942021D01*
X259408977Y-148942021D02*
X259361358Y-148846783D01*
X259361358Y-148846783D02*
X259361358Y-148608688D01*
X259361358Y-148608688D02*
X259408977Y-148465831D01*
X262008977Y-150561069D02*
X261961358Y-150656307D01*
X261961358Y-150656307D02*
X261961358Y-150799164D01*
X261961358Y-150799164D02*
X262008977Y-150942021D01*
X262008977Y-150942021D02*
X262104215Y-151037259D01*
X262104215Y-151037259D02*
X262199453Y-151084878D01*
X262199453Y-151084878D02*
X262389929Y-151132497D01*
X262389929Y-151132497D02*
X262532786Y-151132497D01*
X262532786Y-151132497D02*
X262723262Y-151084878D01*
X262723262Y-151084878D02*
X262818500Y-151037259D01*
X262818500Y-151037259D02*
X262913739Y-150942021D01*
X262913739Y-150942021D02*
X262961358Y-150799164D01*
X262961358Y-150799164D02*
X262961358Y-150703926D01*
X262961358Y-150703926D02*
X262913739Y-150561069D01*
X262913739Y-150561069D02*
X262866119Y-150513450D01*
X262866119Y-150513450D02*
X262532786Y-150513450D01*
X262532786Y-150513450D02*
X262532786Y-150703926D01*
X262961358Y-150084878D02*
X261961358Y-150084878D01*
X261961358Y-150084878D02*
X262961358Y-149513450D01*
X262961358Y-149513450D02*
X261961358Y-149513450D01*
X262961358Y-149037259D02*
X261961358Y-149037259D01*
X261961358Y-149037259D02*
X261961358Y-148799164D01*
X261961358Y-148799164D02*
X262008977Y-148656307D01*
X262008977Y-148656307D02*
X262104215Y-148561069D01*
X262104215Y-148561069D02*
X262199453Y-148513450D01*
X262199453Y-148513450D02*
X262389929Y-148465831D01*
X262389929Y-148465831D02*
X262532786Y-148465831D01*
X262532786Y-148465831D02*
X262723262Y-148513450D01*
X262723262Y-148513450D02*
X262818500Y-148561069D01*
X262818500Y-148561069D02*
X262913739Y-148656307D01*
X262913739Y-148656307D02*
X262961358Y-148799164D01*
X262961358Y-148799164D02*
X262961358Y-149037259D01*
X264591358Y-151037259D02*
X265591358Y-150703926D01*
X265591358Y-150703926D02*
X264591358Y-150370593D01*
X265496119Y-149465831D02*
X265543739Y-149513450D01*
X265543739Y-149513450D02*
X265591358Y-149656307D01*
X265591358Y-149656307D02*
X265591358Y-149751545D01*
X265591358Y-149751545D02*
X265543739Y-149894402D01*
X265543739Y-149894402D02*
X265448500Y-149989640D01*
X265448500Y-149989640D02*
X265353262Y-150037259D01*
X265353262Y-150037259D02*
X265162786Y-150084878D01*
X265162786Y-150084878D02*
X265019929Y-150084878D01*
X265019929Y-150084878D02*
X264829453Y-150037259D01*
X264829453Y-150037259D02*
X264734215Y-149989640D01*
X264734215Y-149989640D02*
X264638977Y-149894402D01*
X264638977Y-149894402D02*
X264591358Y-149751545D01*
X264591358Y-149751545D02*
X264591358Y-149656307D01*
X264591358Y-149656307D02*
X264638977Y-149513450D01*
X264638977Y-149513450D02*
X264686596Y-149465831D01*
X265496119Y-148465831D02*
X265543739Y-148513450D01*
X265543739Y-148513450D02*
X265591358Y-148656307D01*
X265591358Y-148656307D02*
X265591358Y-148751545D01*
X265591358Y-148751545D02*
X265543739Y-148894402D01*
X265543739Y-148894402D02*
X265448500Y-148989640D01*
X265448500Y-148989640D02*
X265353262Y-149037259D01*
X265353262Y-149037259D02*
X265162786Y-149084878D01*
X265162786Y-149084878D02*
X265019929Y-149084878D01*
X265019929Y-149084878D02*
X264829453Y-149037259D01*
X264829453Y-149037259D02*
X264734215Y-148989640D01*
X264734215Y-148989640D02*
X264638977Y-148894402D01*
X264638977Y-148894402D02*
X264591358Y-148751545D01*
X264591358Y-148751545D02*
X264591358Y-148656307D01*
X264591358Y-148656307D02*
X264638977Y-148513450D01*
X264638977Y-148513450D02*
X264686596Y-148465831D01*
X268061358Y-155180116D02*
X267061358Y-155180116D01*
X267061358Y-155180116D02*
X267061358Y-154942021D01*
X267061358Y-154942021D02*
X267108977Y-154799164D01*
X267108977Y-154799164D02*
X267204215Y-154703926D01*
X267204215Y-154703926D02*
X267299453Y-154656307D01*
X267299453Y-154656307D02*
X267489929Y-154608688D01*
X267489929Y-154608688D02*
X267632786Y-154608688D01*
X267632786Y-154608688D02*
X267823262Y-154656307D01*
X267823262Y-154656307D02*
X267918500Y-154703926D01*
X267918500Y-154703926D02*
X268013739Y-154799164D01*
X268013739Y-154799164D02*
X268061358Y-154942021D01*
X268061358Y-154942021D02*
X268061358Y-155180116D01*
X268061358Y-154180116D02*
X267061358Y-154180116D01*
X268013739Y-153751545D02*
X268061358Y-153608688D01*
X268061358Y-153608688D02*
X268061358Y-153370593D01*
X268061358Y-153370593D02*
X268013739Y-153275355D01*
X268013739Y-153275355D02*
X267966119Y-153227736D01*
X267966119Y-153227736D02*
X267870881Y-153180117D01*
X267870881Y-153180117D02*
X267775643Y-153180117D01*
X267775643Y-153180117D02*
X267680405Y-153227736D01*
X267680405Y-153227736D02*
X267632786Y-153275355D01*
X267632786Y-153275355D02*
X267585167Y-153370593D01*
X267585167Y-153370593D02*
X267537548Y-153561069D01*
X267537548Y-153561069D02*
X267489929Y-153656307D01*
X267489929Y-153656307D02*
X267442310Y-153703926D01*
X267442310Y-153703926D02*
X267347072Y-153751545D01*
X267347072Y-153751545D02*
X267251834Y-153751545D01*
X267251834Y-153751545D02*
X267156596Y-153703926D01*
X267156596Y-153703926D02*
X267108977Y-153656307D01*
X267108977Y-153656307D02*
X267061358Y-153561069D01*
X267061358Y-153561069D02*
X267061358Y-153322974D01*
X267061358Y-153322974D02*
X267108977Y-153180117D01*
X268061358Y-152751545D02*
X267061358Y-152751545D01*
X267061358Y-152751545D02*
X267061358Y-152370593D01*
X267061358Y-152370593D02*
X267108977Y-152275355D01*
X267108977Y-152275355D02*
X267156596Y-152227736D01*
X267156596Y-152227736D02*
X267251834Y-152180117D01*
X267251834Y-152180117D02*
X267394691Y-152180117D01*
X267394691Y-152180117D02*
X267489929Y-152227736D01*
X267489929Y-152227736D02*
X267537548Y-152275355D01*
X267537548Y-152275355D02*
X267585167Y-152370593D01*
X267585167Y-152370593D02*
X267585167Y-152751545D01*
X268156596Y-151989641D02*
X268156596Y-151227736D01*
X268013739Y-151037259D02*
X268061358Y-150894402D01*
X268061358Y-150894402D02*
X268061358Y-150656307D01*
X268061358Y-150656307D02*
X268013739Y-150561069D01*
X268013739Y-150561069D02*
X267966119Y-150513450D01*
X267966119Y-150513450D02*
X267870881Y-150465831D01*
X267870881Y-150465831D02*
X267775643Y-150465831D01*
X267775643Y-150465831D02*
X267680405Y-150513450D01*
X267680405Y-150513450D02*
X267632786Y-150561069D01*
X267632786Y-150561069D02*
X267585167Y-150656307D01*
X267585167Y-150656307D02*
X267537548Y-150846783D01*
X267537548Y-150846783D02*
X267489929Y-150942021D01*
X267489929Y-150942021D02*
X267442310Y-150989640D01*
X267442310Y-150989640D02*
X267347072Y-151037259D01*
X267347072Y-151037259D02*
X267251834Y-151037259D01*
X267251834Y-151037259D02*
X267156596Y-150989640D01*
X267156596Y-150989640D02*
X267108977Y-150942021D01*
X267108977Y-150942021D02*
X267061358Y-150846783D01*
X267061358Y-150846783D02*
X267061358Y-150608688D01*
X267061358Y-150608688D02*
X267108977Y-150465831D01*
X267966119Y-149465831D02*
X268013739Y-149513450D01*
X268013739Y-149513450D02*
X268061358Y-149656307D01*
X268061358Y-149656307D02*
X268061358Y-149751545D01*
X268061358Y-149751545D02*
X268013739Y-149894402D01*
X268013739Y-149894402D02*
X267918500Y-149989640D01*
X267918500Y-149989640D02*
X267823262Y-150037259D01*
X267823262Y-150037259D02*
X267632786Y-150084878D01*
X267632786Y-150084878D02*
X267489929Y-150084878D01*
X267489929Y-150084878D02*
X267299453Y-150037259D01*
X267299453Y-150037259D02*
X267204215Y-149989640D01*
X267204215Y-149989640D02*
X267108977Y-149894402D01*
X267108977Y-149894402D02*
X267061358Y-149751545D01*
X267061358Y-149751545D02*
X267061358Y-149656307D01*
X267061358Y-149656307D02*
X267108977Y-149513450D01*
X267108977Y-149513450D02*
X267156596Y-149465831D01*
X268061358Y-149037259D02*
X267061358Y-149037259D01*
X268061358Y-148465831D02*
X267489929Y-148894402D01*
X267061358Y-148465831D02*
X267632786Y-149037259D01*
X270561358Y-155846782D02*
X269561358Y-155846782D01*
X269561358Y-155846782D02*
X269561358Y-155608687D01*
X269561358Y-155608687D02*
X269608977Y-155465830D01*
X269608977Y-155465830D02*
X269704215Y-155370592D01*
X269704215Y-155370592D02*
X269799453Y-155322973D01*
X269799453Y-155322973D02*
X269989929Y-155275354D01*
X269989929Y-155275354D02*
X270132786Y-155275354D01*
X270132786Y-155275354D02*
X270323262Y-155322973D01*
X270323262Y-155322973D02*
X270418500Y-155370592D01*
X270418500Y-155370592D02*
X270513739Y-155465830D01*
X270513739Y-155465830D02*
X270561358Y-155608687D01*
X270561358Y-155608687D02*
X270561358Y-155846782D01*
X270561358Y-154846782D02*
X269561358Y-154846782D01*
X270513739Y-154418211D02*
X270561358Y-154275354D01*
X270561358Y-154275354D02*
X270561358Y-154037259D01*
X270561358Y-154037259D02*
X270513739Y-153942021D01*
X270513739Y-153942021D02*
X270466119Y-153894402D01*
X270466119Y-153894402D02*
X270370881Y-153846783D01*
X270370881Y-153846783D02*
X270275643Y-153846783D01*
X270275643Y-153846783D02*
X270180405Y-153894402D01*
X270180405Y-153894402D02*
X270132786Y-153942021D01*
X270132786Y-153942021D02*
X270085167Y-154037259D01*
X270085167Y-154037259D02*
X270037548Y-154227735D01*
X270037548Y-154227735D02*
X269989929Y-154322973D01*
X269989929Y-154322973D02*
X269942310Y-154370592D01*
X269942310Y-154370592D02*
X269847072Y-154418211D01*
X269847072Y-154418211D02*
X269751834Y-154418211D01*
X269751834Y-154418211D02*
X269656596Y-154370592D01*
X269656596Y-154370592D02*
X269608977Y-154322973D01*
X269608977Y-154322973D02*
X269561358Y-154227735D01*
X269561358Y-154227735D02*
X269561358Y-153989640D01*
X269561358Y-153989640D02*
X269608977Y-153846783D01*
X270561358Y-153418211D02*
X269561358Y-153418211D01*
X269561358Y-153418211D02*
X269561358Y-153037259D01*
X269561358Y-153037259D02*
X269608977Y-152942021D01*
X269608977Y-152942021D02*
X269656596Y-152894402D01*
X269656596Y-152894402D02*
X269751834Y-152846783D01*
X269751834Y-152846783D02*
X269894691Y-152846783D01*
X269894691Y-152846783D02*
X269989929Y-152894402D01*
X269989929Y-152894402D02*
X270037548Y-152942021D01*
X270037548Y-152942021D02*
X270085167Y-153037259D01*
X270085167Y-153037259D02*
X270085167Y-153418211D01*
X270656596Y-152656307D02*
X270656596Y-151894402D01*
X270561358Y-151656306D02*
X269561358Y-151656306D01*
X269561358Y-151656306D02*
X270275643Y-151322973D01*
X270275643Y-151322973D02*
X269561358Y-150989640D01*
X269561358Y-150989640D02*
X270561358Y-150989640D01*
X269561358Y-150322973D02*
X269561358Y-150132497D01*
X269561358Y-150132497D02*
X269608977Y-150037259D01*
X269608977Y-150037259D02*
X269704215Y-149942021D01*
X269704215Y-149942021D02*
X269894691Y-149894402D01*
X269894691Y-149894402D02*
X270228024Y-149894402D01*
X270228024Y-149894402D02*
X270418500Y-149942021D01*
X270418500Y-149942021D02*
X270513739Y-150037259D01*
X270513739Y-150037259D02*
X270561358Y-150132497D01*
X270561358Y-150132497D02*
X270561358Y-150322973D01*
X270561358Y-150322973D02*
X270513739Y-150418211D01*
X270513739Y-150418211D02*
X270418500Y-150513449D01*
X270418500Y-150513449D02*
X270228024Y-150561068D01*
X270228024Y-150561068D02*
X269894691Y-150561068D01*
X269894691Y-150561068D02*
X269704215Y-150513449D01*
X269704215Y-150513449D02*
X269608977Y-150418211D01*
X269608977Y-150418211D02*
X269561358Y-150322973D01*
X270513739Y-149513449D02*
X270561358Y-149370592D01*
X270561358Y-149370592D02*
X270561358Y-149132497D01*
X270561358Y-149132497D02*
X270513739Y-149037259D01*
X270513739Y-149037259D02*
X270466119Y-148989640D01*
X270466119Y-148989640D02*
X270370881Y-148942021D01*
X270370881Y-148942021D02*
X270275643Y-148942021D01*
X270275643Y-148942021D02*
X270180405Y-148989640D01*
X270180405Y-148989640D02*
X270132786Y-149037259D01*
X270132786Y-149037259D02*
X270085167Y-149132497D01*
X270085167Y-149132497D02*
X270037548Y-149322973D01*
X270037548Y-149322973D02*
X269989929Y-149418211D01*
X269989929Y-149418211D02*
X269942310Y-149465830D01*
X269942310Y-149465830D02*
X269847072Y-149513449D01*
X269847072Y-149513449D02*
X269751834Y-149513449D01*
X269751834Y-149513449D02*
X269656596Y-149465830D01*
X269656596Y-149465830D02*
X269608977Y-149418211D01*
X269608977Y-149418211D02*
X269561358Y-149322973D01*
X269561358Y-149322973D02*
X269561358Y-149084878D01*
X269561358Y-149084878D02*
X269608977Y-148942021D01*
X270561358Y-148513449D02*
X269561358Y-148513449D01*
%TO.C,D9*%
D11*
X171872007Y-175009151D02*
X172264657Y-175085475D01*
X172264657Y-175085475D02*
X172159713Y-175625370D01*
X172264657Y-175085475D02*
X172369602Y-174545580D01*
X172264657Y-175085475D02*
X172929957Y-174807309D01*
X172777310Y-175592611D02*
X172264657Y-175085475D01*
X172853634Y-175199960D02*
X173344447Y-175295365D01*
X172929957Y-174807309D02*
X172777310Y-175592611D01*
%TO.C,D5*%
X152648663Y-174328661D02*
X153041313Y-174404985D01*
X153041313Y-174404985D02*
X152936369Y-174944880D01*
X153041313Y-174404985D02*
X153146258Y-173865090D01*
X153041313Y-174404985D02*
X153706613Y-174126819D01*
X153553966Y-174912121D02*
X153041313Y-174404985D01*
X153630290Y-174519470D02*
X154121103Y-174614875D01*
X153706613Y-174126819D02*
X153553966Y-174912121D01*
%TO.C,D14*%
X194720721Y-157038723D02*
X195113371Y-157115047D01*
X195113371Y-157115047D02*
X195008427Y-157654942D01*
X195113371Y-157115047D02*
X195218316Y-156575152D01*
X195113371Y-157115047D02*
X195778671Y-156836881D01*
X195626024Y-157622183D02*
X195113371Y-157115047D01*
X195702348Y-157229532D02*
X196193161Y-157324937D01*
X195778671Y-156836881D02*
X195626024Y-157622183D01*
%TO.C,MCU1*%
D12*
X256036539Y-111646671D02*
X256036539Y-142246671D01*
X256036539Y-111646671D02*
X258696539Y-111646671D01*
X256036539Y-142246671D02*
X258696539Y-142246671D01*
X258696539Y-111646671D02*
X258696539Y-142246671D01*
X271276539Y-111646671D02*
X271276539Y-142246671D01*
X271276539Y-111646671D02*
X273936539Y-111646671D01*
X271276539Y-114246671D02*
X273936539Y-114246671D01*
X271276539Y-142246671D02*
X273936539Y-142246671D01*
X273936539Y-111646671D02*
X273936539Y-142246671D01*
%TO.C,D7*%
D11*
X159899405Y-137026828D02*
X160292055Y-137103152D01*
X160292055Y-137103152D02*
X160187111Y-137643047D01*
X160292055Y-137103152D02*
X160397000Y-136563257D01*
X160292055Y-137103152D02*
X160957355Y-136824986D01*
X160804708Y-137610288D02*
X160292055Y-137103152D01*
X160881032Y-137217637D02*
X161371845Y-137313042D01*
X160957355Y-136824986D02*
X160804708Y-137610288D01*
%TO.C,D4*%
X144873859Y-114750541D02*
X145266509Y-114826865D01*
X145266509Y-114826865D02*
X145161565Y-115366760D01*
X145266509Y-114826865D02*
X145371454Y-114286970D01*
X145266509Y-114826865D02*
X145931809Y-114548699D01*
X145779162Y-115334001D02*
X145266509Y-114826865D01*
X145855486Y-114941350D02*
X146346299Y-115036755D01*
X145931809Y-114548699D02*
X145779162Y-115334001D01*
%TO.C,D23*%
X238128442Y-132877395D02*
X238521092Y-132953719D01*
X238521092Y-132953719D02*
X238416148Y-133493614D01*
X238521092Y-132953719D02*
X238626037Y-132413824D01*
X238521092Y-132953719D02*
X239186392Y-132675553D01*
X239033745Y-133460855D02*
X238521092Y-132953719D01*
X239110069Y-133068204D02*
X239600882Y-133163609D01*
X239186392Y-132675553D02*
X239033745Y-133460855D01*
%TO.C,D17*%
X209173840Y-182259892D02*
X209566490Y-182336216D01*
X209566490Y-182336216D02*
X209461546Y-182876111D01*
X209566490Y-182336216D02*
X209671435Y-181796321D01*
X209566490Y-182336216D02*
X210231790Y-182058050D01*
X210079143Y-182843352D02*
X209566490Y-182336216D01*
X210155467Y-182450701D02*
X210646280Y-182546106D01*
X210231790Y-182058050D02*
X210079143Y-182843352D01*
%TO.C,D8*%
X163524776Y-118375912D02*
X163917426Y-118452236D01*
X163917426Y-118452236D02*
X163812482Y-118992131D01*
X163917426Y-118452236D02*
X164022371Y-117912341D01*
X163917426Y-118452236D02*
X164582726Y-118174070D01*
X164430079Y-118959372D02*
X163917426Y-118452236D01*
X164506403Y-118566721D02*
X164997216Y-118662126D01*
X164582726Y-118174070D02*
X164430079Y-118959372D01*
%TO.C,D10*%
X175497378Y-156358234D02*
X175890028Y-156434558D01*
X175890028Y-156434558D02*
X175785084Y-156974453D01*
X175890028Y-156434558D02*
X175994973Y-155894663D01*
X175890028Y-156434558D02*
X176555328Y-156156392D01*
X176402681Y-156941694D02*
X175890028Y-156434558D01*
X176479005Y-156549043D02*
X176969818Y-156644448D01*
X176555328Y-156156392D02*
X176402681Y-156941694D01*
%TO.C,D22*%
X234503071Y-151528312D02*
X234895721Y-151604636D01*
X234895721Y-151604636D02*
X234790777Y-152144531D01*
X234895721Y-151604636D02*
X235000666Y-151064741D01*
X234895721Y-151604636D02*
X235561021Y-151326470D01*
X235408374Y-152111772D02*
X234895721Y-151604636D01*
X235484698Y-151719121D02*
X235975511Y-151814526D01*
X235561021Y-151326470D02*
X235408374Y-152111772D01*
%TO.C,D16*%
X201971463Y-119736890D02*
X202364113Y-119813214D01*
X202364113Y-119813214D02*
X202259169Y-120353109D01*
X202364113Y-119813214D02*
X202469058Y-119273319D01*
X202364113Y-119813214D02*
X203029413Y-119535048D01*
X202876766Y-120320350D02*
X202364113Y-119813214D01*
X202953090Y-119927699D02*
X203443903Y-120023104D01*
X203029413Y-119535048D02*
X202876766Y-120320350D01*
%TO.C,D24*%
X227252329Y-188830145D02*
X227644979Y-188906469D01*
X227644979Y-188906469D02*
X227540035Y-189446364D01*
X227644979Y-188906469D02*
X227749924Y-188366574D01*
X227644979Y-188906469D02*
X228310279Y-188628303D01*
X228157632Y-189413605D02*
X227644979Y-188906469D01*
X228233956Y-189020954D02*
X228724769Y-189116359D01*
X228310279Y-188628303D02*
X228157632Y-189413605D01*
%TO.C,D13*%
X191095350Y-175689640D02*
X191488000Y-175765964D01*
X191488000Y-175765964D02*
X191383056Y-176305859D01*
X191488000Y-175765964D02*
X191592945Y-175226069D01*
X191488000Y-175765964D02*
X192153300Y-175487798D01*
X192000653Y-176273100D02*
X191488000Y-175765964D01*
X192076977Y-175880449D02*
X192567790Y-175975854D01*
X192153300Y-175487798D02*
X192000653Y-176273100D01*
%TO.C,RST1*%
D10*
X239486539Y-102926671D02*
X239486539Y-103176671D01*
X239486539Y-102926671D02*
X245486539Y-102926671D01*
X239486539Y-106426671D02*
X239486539Y-106176671D01*
X239486539Y-106426671D02*
X245486539Y-106426671D01*
X245486539Y-102926671D02*
X245486539Y-103176671D01*
X245486539Y-106426671D02*
X245486539Y-106176671D01*
%TO.C,D2*%
D11*
X137623118Y-152052374D02*
X138015768Y-152128698D01*
X138015768Y-152128698D02*
X137910824Y-152668593D01*
X138015768Y-152128698D02*
X138120713Y-151588803D01*
X138015768Y-152128698D02*
X138681068Y-151850532D01*
X138528421Y-152635834D02*
X138015768Y-152128698D01*
X138604745Y-152243183D02*
X139095558Y-152338588D01*
X138681068Y-151850532D02*
X138528421Y-152635834D01*
%TO.C,D1*%
X133997747Y-170703290D02*
X134390397Y-170779614D01*
X134390397Y-170779614D02*
X134285453Y-171319509D01*
X134390397Y-170779614D02*
X134495342Y-170239719D01*
X134390397Y-170779614D02*
X135055697Y-170501448D01*
X134903050Y-171286750D02*
X134390397Y-170779614D01*
X134979374Y-170894099D02*
X135470187Y-170989504D01*
X135055697Y-170501448D02*
X134903050Y-171286750D01*
%TO.C,D3*%
X141248489Y-133401457D02*
X141641139Y-133477781D01*
X141641139Y-133477781D02*
X141536195Y-134017676D01*
X141641139Y-133477781D02*
X141746084Y-132937886D01*
X141641139Y-133477781D02*
X142306439Y-133199615D01*
X142153792Y-133984917D02*
X141641139Y-133477781D01*
X142230116Y-133592266D02*
X142720929Y-133687671D01*
X142306439Y-133199615D02*
X142153792Y-133984917D01*
%TO.C,D12*%
X182748119Y-119056401D02*
X183140769Y-119132725D01*
X183140769Y-119132725D02*
X183035825Y-119672620D01*
X183140769Y-119132725D02*
X183245714Y-118592830D01*
X183140769Y-119132725D02*
X183806069Y-118854559D01*
X183653422Y-119639861D02*
X183140769Y-119132725D01*
X183729746Y-119247210D02*
X184220559Y-119342615D01*
X183806069Y-118854559D02*
X183653422Y-119639861D01*
%TO.C,D11*%
X179122749Y-137707318D02*
X179515399Y-137783642D01*
X179515399Y-137783642D02*
X179410455Y-138323537D01*
X179515399Y-137783642D02*
X179620344Y-137243747D01*
X179515399Y-137783642D02*
X180180699Y-137505476D01*
X180028052Y-138290778D02*
X179515399Y-137783642D01*
X180104376Y-137898127D02*
X180595189Y-137993532D01*
X180180699Y-137505476D02*
X180028052Y-138290778D01*
%TO.C,D6*%
X156274034Y-155677745D02*
X156666684Y-155754069D01*
X156666684Y-155754069D02*
X156561740Y-156293964D01*
X156666684Y-155754069D02*
X156771629Y-155214174D01*
X156666684Y-155754069D02*
X157331984Y-155475903D01*
X157179337Y-156261205D02*
X156666684Y-155754069D01*
X157255661Y-155868554D02*
X157746474Y-155963959D01*
X157331984Y-155475903D02*
X157179337Y-156261205D01*
%TO.C,D21*%
X230877700Y-170179228D02*
X231270350Y-170255552D01*
X231270350Y-170255552D02*
X231165406Y-170795447D01*
X231270350Y-170255552D02*
X231375295Y-169715657D01*
X231270350Y-170255552D02*
X231935650Y-169977386D01*
X231783003Y-170762688D02*
X231270350Y-170255552D01*
X231859327Y-170370037D02*
X232350140Y-170465442D01*
X231935650Y-169977386D02*
X231783003Y-170762688D01*
%TO.C,D18*%
X212799211Y-163608976D02*
X213191861Y-163685300D01*
X213191861Y-163685300D02*
X213086917Y-164225195D01*
X213191861Y-163685300D02*
X213296806Y-163145405D01*
X213191861Y-163685300D02*
X213857161Y-163407134D01*
X213704514Y-164192436D02*
X213191861Y-163685300D01*
X213780838Y-163799785D02*
X214271651Y-163895190D01*
X213857161Y-163407134D02*
X213704514Y-164192436D01*
%TO.C,D20*%
X220049952Y-126307143D02*
X220442602Y-126383467D01*
X220442602Y-126383467D02*
X220337658Y-126923362D01*
X220442602Y-126383467D02*
X220547547Y-125843572D01*
X220442602Y-126383467D02*
X221107902Y-126105301D01*
X220955255Y-126890603D02*
X220442602Y-126383467D01*
X221031579Y-126497952D02*
X221522392Y-126593357D01*
X221107902Y-126105301D02*
X220955255Y-126890603D01*
%TO.C,D15*%
X198346092Y-138387807D02*
X198738742Y-138464131D01*
X198738742Y-138464131D02*
X198633798Y-139004026D01*
X198738742Y-138464131D02*
X198843687Y-137924236D01*
X198738742Y-138464131D02*
X199404042Y-138185965D01*
X199251395Y-138971267D02*
X198738742Y-138464131D01*
X199327719Y-138578616D02*
X199818532Y-138674021D01*
X199404042Y-138185965D02*
X199251395Y-138971267D01*
%TO.C,D25*%
X246253076Y-193870186D02*
X246633498Y-193993793D01*
X246633498Y-193993793D02*
X246463539Y-194516874D01*
X246633498Y-193993793D02*
X246803458Y-193470712D01*
X246633498Y-193993793D02*
X247327739Y-193798781D01*
X247080525Y-194559626D02*
X246633498Y-193993793D01*
X247204132Y-194179203D02*
X247679660Y-194333712D01*
X247327739Y-193798781D02*
X247080525Y-194559626D01*
%TO.C,D19*%
X216424582Y-144958059D02*
X216817232Y-145034383D01*
X216817232Y-145034383D02*
X216712288Y-145574278D01*
X216817232Y-145034383D02*
X216922177Y-144494488D01*
X216817232Y-145034383D02*
X217482532Y-144756217D01*
X217329885Y-145541519D02*
X216817232Y-145034383D01*
X217406209Y-145148868D02*
X217897022Y-145244273D01*
X217482532Y-144756217D02*
X217329885Y-145541519D01*
%TO.C,DISP1*%
D12*
X258576539Y-145046671D02*
X258576539Y-147706671D01*
X271396539Y-145046671D02*
X258576539Y-145046671D01*
X271396539Y-145046671D02*
X271396539Y-147706671D01*
X271396539Y-147706671D02*
X258576539Y-147706671D01*
%TO.C,S11*%
D10*
X174895668Y-126698489D02*
X174991073Y-126207676D01*
X175677985Y-122673818D02*
X175792470Y-122084841D01*
X175792470Y-122084841D02*
X180190160Y-122939666D01*
X179312992Y-127557130D02*
X174895668Y-126698489D01*
X179446557Y-126869991D02*
X179312992Y-127557130D01*
X180811276Y-122469543D02*
X180986820Y-121566446D01*
X181573038Y-121171037D02*
X180986820Y-121566446D01*
X183659279Y-126160786D02*
X181401537Y-125721925D01*
X184245497Y-125765377D02*
X183659279Y-126160786D01*
X184517921Y-121743464D02*
X181573038Y-121171037D01*
X184913329Y-122329682D02*
X184517921Y-121743464D01*
X179450373Y-126850358D02*
G75*
G02*
X181401537Y-125721926I1539797J-411364D01*
G01*
X180811276Y-122469543D02*
G75*
G02*
X180190160Y-122939667I-545619J75495D01*
G01*
%TO.C,S17*%
X204946759Y-171251064D02*
X205042164Y-170760251D01*
X205729076Y-167226393D02*
X205843561Y-166637416D01*
X205843561Y-166637416D02*
X210241251Y-167492241D01*
X209364083Y-172109705D02*
X204946759Y-171251064D01*
X209497648Y-171422566D02*
X209364083Y-172109705D01*
X210862367Y-167022118D02*
X211037911Y-166119021D01*
X211624129Y-165723612D02*
X211037911Y-166119021D01*
X213710370Y-170713361D02*
X211452628Y-170274500D01*
X214296588Y-170317952D02*
X213710370Y-170713361D01*
X214569012Y-166296039D02*
X211624129Y-165723612D01*
X214964420Y-166882257D02*
X214569012Y-166296039D01*
X209501464Y-171402933D02*
G75*
G02*
X211452628Y-170274501I1539797J-411364D01*
G01*
X210862367Y-167022118D02*
G75*
G02*
X210241251Y-167492242I-545619J75495D01*
G01*
%TO.C,S1*%
X129770666Y-159694462D02*
X129866071Y-159203649D01*
X130552983Y-155669791D02*
X130667468Y-155080814D01*
X130667468Y-155080814D02*
X135065158Y-155935639D01*
X134187990Y-160553103D02*
X129770666Y-159694462D01*
X134321555Y-159865964D02*
X134187990Y-160553103D01*
X135686274Y-155465516D02*
X135861818Y-154562419D01*
X136448036Y-154167010D02*
X135861818Y-154562419D01*
X138534277Y-159156759D02*
X136276535Y-158717898D01*
X139120495Y-158761350D02*
X138534277Y-159156759D01*
X139392919Y-154739437D02*
X136448036Y-154167010D01*
X139788327Y-155325655D02*
X139392919Y-154739437D01*
X134325371Y-159846331D02*
G75*
G02*
X136276535Y-158717899I1539797J-411364D01*
G01*
X135686274Y-155465516D02*
G75*
G02*
X135065158Y-155935640I-545619J75495D01*
G01*
%TO.C,S24*%
X223025249Y-177821317D02*
X223120654Y-177330504D01*
X223807566Y-173796646D02*
X223922051Y-173207669D01*
X223922051Y-173207669D02*
X228319741Y-174062494D01*
X227442573Y-178679958D02*
X223025249Y-177821317D01*
X227576138Y-177992819D02*
X227442573Y-178679958D01*
X228940857Y-173592371D02*
X229116401Y-172689274D01*
X229702619Y-172293865D02*
X229116401Y-172689274D01*
X231788860Y-177283614D02*
X229531118Y-176844753D01*
X232375078Y-176888205D02*
X231788860Y-177283614D01*
X232647502Y-172866292D02*
X229702619Y-172293865D01*
X233042910Y-173452510D02*
X232647502Y-172866292D01*
X227579954Y-177973186D02*
G75*
G02*
X229531118Y-176844754I1539797J-411364D01*
G01*
X228940857Y-173592371D02*
G75*
G02*
X228319741Y-174062495I-545619J75495D01*
G01*
%TO.C,S13*%
X186868270Y-164680812D02*
X186963675Y-164189999D01*
X187650587Y-160656141D02*
X187765072Y-160067164D01*
X187765072Y-160067164D02*
X192162762Y-160921989D01*
X191285594Y-165539453D02*
X186868270Y-164680812D01*
X191419159Y-164852314D02*
X191285594Y-165539453D01*
X192783878Y-160451866D02*
X192959422Y-159548769D01*
X193545640Y-159153360D02*
X192959422Y-159548769D01*
X195631881Y-164143109D02*
X193374139Y-163704248D01*
X196218099Y-163747700D02*
X195631881Y-164143109D01*
X196490523Y-159725787D02*
X193545640Y-159153360D01*
X196885931Y-160312005D02*
X196490523Y-159725787D01*
X191422975Y-164832681D02*
G75*
G02*
X193374139Y-163704249I1539797J-411364D01*
G01*
X192783878Y-160451866D02*
G75*
G02*
X192162762Y-160921990I-545619J75495D01*
G01*
%TO.C,S20*%
X215822872Y-115298315D02*
X215918277Y-114807502D01*
X216605189Y-111273644D02*
X216719674Y-110684667D01*
X216719674Y-110684667D02*
X221117364Y-111539492D01*
X220240196Y-116156956D02*
X215822872Y-115298315D01*
X220373761Y-115469817D02*
X220240196Y-116156956D01*
X221738480Y-111069369D02*
X221914024Y-110166272D01*
X222500242Y-109770863D02*
X221914024Y-110166272D01*
X224586483Y-114760612D02*
X222328741Y-114321751D01*
X225172701Y-114365203D02*
X224586483Y-114760612D01*
X225445125Y-110343290D02*
X222500242Y-109770863D01*
X225840533Y-110929508D02*
X225445125Y-110343290D01*
X220377577Y-115450184D02*
G75*
G02*
X222328741Y-114321752I1539797J-411364D01*
G01*
X221738480Y-111069369D02*
G75*
G02*
X221117364Y-111539493I-545619J75495D01*
G01*
%TO.C,S23*%
X233901362Y-121868567D02*
X233996767Y-121377754D01*
X234683679Y-117843896D02*
X234798164Y-117254919D01*
X234798164Y-117254919D02*
X239195854Y-118109744D01*
X238318686Y-122727208D02*
X233901362Y-121868567D01*
X238452251Y-122040069D02*
X238318686Y-122727208D01*
X239816970Y-117639621D02*
X239992514Y-116736524D01*
X240578732Y-116341115D02*
X239992514Y-116736524D01*
X242664973Y-121330864D02*
X240407231Y-120892003D01*
X243251191Y-120935455D02*
X242664973Y-121330864D01*
X243523615Y-116913542D02*
X240578732Y-116341115D01*
X243919023Y-117499760D02*
X243523615Y-116913542D01*
X238456067Y-122020436D02*
G75*
G02*
X240407231Y-120892004I1539797J-411364D01*
G01*
X239816970Y-117639621D02*
G75*
G02*
X239195854Y-118109745I-545619J75495D01*
G01*
%TO.C,S10*%
X171270297Y-145349406D02*
X171365702Y-144858593D01*
X172052614Y-141324735D02*
X172167099Y-140735758D01*
X172167099Y-140735758D02*
X176564789Y-141590583D01*
X175687621Y-146208047D02*
X171270297Y-145349406D01*
X175821186Y-145520908D02*
X175687621Y-146208047D01*
X177185905Y-141120460D02*
X177361449Y-140217363D01*
X177947667Y-139821954D02*
X177361449Y-140217363D01*
X180033908Y-144811703D02*
X177776166Y-144372842D01*
X180620126Y-144416294D02*
X180033908Y-144811703D01*
X180892550Y-140394381D02*
X177947667Y-139821954D01*
X181287958Y-140980599D02*
X180892550Y-140394381D01*
X175825002Y-145501275D02*
G75*
G02*
X177776166Y-144372843I1539797J-411364D01*
G01*
X177185905Y-141120460D02*
G75*
G02*
X176564789Y-141590584I-545619J75495D01*
G01*
%TO.C,S6*%
X152046954Y-144668917D02*
X152142359Y-144178104D01*
X152829271Y-140644246D02*
X152943756Y-140055269D01*
X152943756Y-140055269D02*
X157341446Y-140910094D01*
X156464278Y-145527558D02*
X152046954Y-144668917D01*
X156597843Y-144840419D02*
X156464278Y-145527558D01*
X157962562Y-140439971D02*
X158138106Y-139536874D01*
X158724324Y-139141465D02*
X158138106Y-139536874D01*
X160810565Y-144131214D02*
X158552823Y-143692353D01*
X161396783Y-143735805D02*
X160810565Y-144131214D01*
X161669207Y-139713892D02*
X158724324Y-139141465D01*
X162064615Y-140300110D02*
X161669207Y-139713892D01*
X156601659Y-144820786D02*
G75*
G02*
X158552823Y-143692354I1539797J-411364D01*
G01*
X157962562Y-140439971D02*
G75*
G02*
X157341446Y-140910095I-545619J75495D01*
G01*
%TO.C,S7*%
X155672325Y-126018000D02*
X155767730Y-125527187D01*
X156454642Y-121993329D02*
X156569127Y-121404352D01*
X156569127Y-121404352D02*
X160966817Y-122259177D01*
X160089649Y-126876641D02*
X155672325Y-126018000D01*
X160223214Y-126189502D02*
X160089649Y-126876641D01*
X161587933Y-121789054D02*
X161763477Y-120885957D01*
X162349695Y-120490548D02*
X161763477Y-120885957D01*
X164435936Y-125480297D02*
X162178194Y-125041436D01*
X165022154Y-125084888D02*
X164435936Y-125480297D01*
X165294578Y-121062975D02*
X162349695Y-120490548D01*
X165689986Y-121649193D02*
X165294578Y-121062975D01*
X160227030Y-126169869D02*
G75*
G02*
X162178194Y-125041437I1539797J-411364D01*
G01*
X161587933Y-121789054D02*
G75*
G02*
X160966817Y-122259178I-545619J75495D01*
G01*
%TO.C,S21*%
X226650620Y-159170400D02*
X226746025Y-158679587D01*
X227432937Y-155145729D02*
X227547422Y-154556752D01*
X227547422Y-154556752D02*
X231945112Y-155411577D01*
X231067944Y-160029041D02*
X226650620Y-159170400D01*
X231201509Y-159341902D02*
X231067944Y-160029041D01*
X232566228Y-154941454D02*
X232741772Y-154038357D01*
X233327990Y-153642948D02*
X232741772Y-154038357D01*
X235414231Y-158632697D02*
X233156489Y-158193836D01*
X236000449Y-158237288D02*
X235414231Y-158632697D01*
X236272873Y-154215375D02*
X233327990Y-153642948D01*
X236668281Y-154801593D02*
X236272873Y-154215375D01*
X231205325Y-159322269D02*
G75*
G02*
X233156489Y-158193837I1539797J-411364D01*
G01*
X232566228Y-154941454D02*
G75*
G02*
X231945112Y-155411578I-545619J75495D01*
G01*
%TO.C,S18*%
X208572130Y-152600148D02*
X208667535Y-152109335D01*
X209354447Y-148575477D02*
X209468932Y-147986500D01*
X209468932Y-147986500D02*
X213866622Y-148841325D01*
X212989454Y-153458789D02*
X208572130Y-152600148D01*
X213123019Y-152771650D02*
X212989454Y-153458789D01*
X214487738Y-148371202D02*
X214663282Y-147468105D01*
X215249500Y-147072696D02*
X214663282Y-147468105D01*
X217335741Y-152062445D02*
X215077999Y-151623584D01*
X217921959Y-151667036D02*
X217335741Y-152062445D01*
X218194383Y-147645123D02*
X215249500Y-147072696D01*
X218589791Y-148231341D02*
X218194383Y-147645123D01*
X213126835Y-152752017D02*
G75*
G02*
X215077999Y-151623585I1539797J-411364D01*
G01*
X214487738Y-148371202D02*
G75*
G02*
X213866622Y-148841326I-545619J75495D01*
G01*
%TO.C,S12*%
X178521039Y-108047573D02*
X178616444Y-107556760D01*
X179303356Y-104022902D02*
X179417841Y-103433925D01*
X179417841Y-103433925D02*
X183815531Y-104288750D01*
X182938363Y-108906214D02*
X178521039Y-108047573D01*
X183071928Y-108219075D02*
X182938363Y-108906214D01*
X184436647Y-103818627D02*
X184612191Y-102915530D01*
X185198409Y-102520121D02*
X184612191Y-102915530D01*
X187284650Y-107509870D02*
X185026908Y-107071009D01*
X187870868Y-107114461D02*
X187284650Y-107509870D01*
X188143292Y-103092548D02*
X185198409Y-102520121D01*
X188538700Y-103678766D02*
X188143292Y-103092548D01*
X183075744Y-108199442D02*
G75*
G02*
X185026908Y-107071010I1539797J-411364D01*
G01*
X184436647Y-103818627D02*
G75*
G02*
X183815531Y-104288751I-545619J75495D01*
G01*
%TO.C,S15*%
X194119012Y-127378979D02*
X194214417Y-126888166D01*
X194901329Y-123354308D02*
X195015814Y-122765331D01*
X195015814Y-122765331D02*
X199413504Y-123620156D01*
X198536336Y-128237620D02*
X194119012Y-127378979D01*
X198669901Y-127550481D02*
X198536336Y-128237620D01*
X200034620Y-123150033D02*
X200210164Y-122246936D01*
X200796382Y-121851527D02*
X200210164Y-122246936D01*
X202882623Y-126841276D02*
X200624881Y-126402415D01*
X203468841Y-126445867D02*
X202882623Y-126841276D01*
X203741265Y-122423954D02*
X200796382Y-121851527D01*
X204136673Y-123010172D02*
X203741265Y-122423954D01*
X198673717Y-127530848D02*
G75*
G02*
X200624881Y-126402416I1539797J-411364D01*
G01*
X200034620Y-123150033D02*
G75*
G02*
X199413504Y-123620157I-545619J75495D01*
G01*
%TO.C,S22*%
X230275991Y-140519484D02*
X230371396Y-140028671D01*
X231058308Y-136494813D02*
X231172793Y-135905836D01*
X231172793Y-135905836D02*
X235570483Y-136760661D01*
X234693315Y-141378125D02*
X230275991Y-140519484D01*
X234826880Y-140690986D02*
X234693315Y-141378125D01*
X236191599Y-136290538D02*
X236367143Y-135387441D01*
X236953361Y-134992032D02*
X236367143Y-135387441D01*
X239039602Y-139981781D02*
X236781860Y-139542920D01*
X239625820Y-139586372D02*
X239039602Y-139981781D01*
X239898244Y-135564459D02*
X236953361Y-134992032D01*
X240293652Y-136150677D02*
X239898244Y-135564459D01*
X234830696Y-140671353D02*
G75*
G02*
X236781860Y-139542921I1539797J-411364D01*
G01*
X236191599Y-136290538D02*
G75*
G02*
X235570483Y-136760662I-545619J75495D01*
G01*
%TO.C,S2*%
X133396037Y-141043546D02*
X133491442Y-140552733D01*
X134178354Y-137018875D02*
X134292839Y-136429898D01*
X134292839Y-136429898D02*
X138690529Y-137284723D01*
X137813361Y-141902187D02*
X133396037Y-141043546D01*
X137946926Y-141215048D02*
X137813361Y-141902187D01*
X139311645Y-136814600D02*
X139487189Y-135911503D01*
X140073407Y-135516094D02*
X139487189Y-135911503D01*
X142159648Y-140505843D02*
X139901906Y-140066982D01*
X142745866Y-140110434D02*
X142159648Y-140505843D01*
X143018290Y-136088521D02*
X140073407Y-135516094D01*
X143413698Y-136674739D02*
X143018290Y-136088521D01*
X137950742Y-141195415D02*
G75*
G02*
X139901906Y-140066983I1539797J-411364D01*
G01*
X139311645Y-136814600D02*
G75*
G02*
X138690529Y-137284724I-545619J75495D01*
G01*
%TO.C,S14*%
X190493641Y-146029895D02*
X190589046Y-145539082D01*
X191275958Y-142005224D02*
X191390443Y-141416247D01*
X191390443Y-141416247D02*
X195788133Y-142271072D01*
X194910965Y-146888536D02*
X190493641Y-146029895D01*
X195044530Y-146201397D02*
X194910965Y-146888536D01*
X196409249Y-141800949D02*
X196584793Y-140897852D01*
X197171011Y-140502443D02*
X196584793Y-140897852D01*
X199257252Y-145492192D02*
X196999510Y-145053331D01*
X199843470Y-145096783D02*
X199257252Y-145492192D01*
X200115894Y-141074870D02*
X197171011Y-140502443D01*
X200511302Y-141661088D02*
X200115894Y-141074870D01*
X195048346Y-146181764D02*
G75*
G02*
X196999510Y-145053332I1539797J-411364D01*
G01*
X196409249Y-141800949D02*
G75*
G02*
X195788133Y-142271073I-545619J75495D01*
G01*
%TO.C,S19*%
X212197501Y-133949231D02*
X212292906Y-133458418D01*
X212979818Y-129924560D02*
X213094303Y-129335583D01*
X213094303Y-129335583D02*
X217491993Y-130190408D01*
X216614825Y-134807872D02*
X212197501Y-133949231D01*
X216748390Y-134120733D02*
X216614825Y-134807872D01*
X218113109Y-129720285D02*
X218288653Y-128817188D01*
X218874871Y-128421779D02*
X218288653Y-128817188D01*
X220961112Y-133411528D02*
X218703370Y-132972667D01*
X221547330Y-133016119D02*
X220961112Y-133411528D01*
X221819754Y-128994206D02*
X218874871Y-128421779D01*
X222215162Y-129580424D02*
X221819754Y-128994206D01*
X216752206Y-134101100D02*
G75*
G02*
X218703370Y-132972668I1539797J-411364D01*
G01*
X218113109Y-129720285D02*
G75*
G02*
X217491993Y-130190409I-545619J75495D01*
G01*
%TO.C,S25*%
X243399142Y-182428265D02*
X243553650Y-181952737D01*
X244666113Y-178528934D02*
X244851522Y-177958300D01*
X244851522Y-177958300D02*
X249112255Y-179342696D01*
X247678896Y-183818842D02*
X243399142Y-182428265D01*
X247895208Y-183153102D02*
X247678896Y-183818842D01*
X249786034Y-178951772D02*
X250070330Y-178076800D01*
X250700367Y-177755780D02*
X250070330Y-178076800D01*
X252162960Y-182962585D02*
X249975530Y-182251846D01*
X252792996Y-182641566D02*
X252162960Y-182962585D01*
X253553536Y-178682831D02*
X250700367Y-177755780D01*
X253874556Y-179312868D02*
X253553536Y-178682831D01*
X247901388Y-183134081D02*
G75*
G02*
X249975530Y-182251846I1478189J-595955D01*
G01*
X249786034Y-178951772D02*
G75*
G02*
X249112255Y-179342695I-532349J141425D01*
G01*
%TO.C,S9*%
X167644926Y-164000322D02*
X167740331Y-163509509D01*
X168427243Y-159975651D02*
X168541728Y-159386674D01*
X168541728Y-159386674D02*
X172939418Y-160241499D01*
X172062250Y-164858963D02*
X167644926Y-164000322D01*
X172195815Y-164171824D02*
X172062250Y-164858963D01*
X173560534Y-159771376D02*
X173736078Y-158868279D01*
X174322296Y-158472870D02*
X173736078Y-158868279D01*
X176408537Y-163462619D02*
X174150795Y-163023758D01*
X176994755Y-163067210D02*
X176408537Y-163462619D01*
X177267179Y-159045297D02*
X174322296Y-158472870D01*
X177662587Y-159631515D02*
X177267179Y-159045297D01*
X172199631Y-164152191D02*
G75*
G02*
X174150795Y-163023759I1539797J-411364D01*
G01*
X173560534Y-159771376D02*
G75*
G02*
X172939418Y-160241500I-545619J75495D01*
G01*
%TO.C,S3*%
X137021408Y-122392629D02*
X137116813Y-121901816D01*
X137803725Y-118367958D02*
X137918210Y-117778981D01*
X137918210Y-117778981D02*
X142315900Y-118633806D01*
X141438732Y-123251270D02*
X137021408Y-122392629D01*
X141572297Y-122564131D02*
X141438732Y-123251270D01*
X142937016Y-118163683D02*
X143112560Y-117260586D01*
X143698778Y-116865177D02*
X143112560Y-117260586D01*
X145785019Y-121854926D02*
X143527277Y-121416065D01*
X146371237Y-121459517D02*
X145785019Y-121854926D01*
X146643661Y-117437604D02*
X143698778Y-116865177D01*
X147039069Y-118023822D02*
X146643661Y-117437604D01*
X141576113Y-122544498D02*
G75*
G02*
X143527277Y-121416066I1539797J-411364D01*
G01*
X142937016Y-118163683D02*
G75*
G02*
X142315900Y-118633807I-545619J75495D01*
G01*
%TO.C,S8*%
X159297696Y-107367084D02*
X159393101Y-106876271D01*
X160080013Y-103342413D02*
X160194498Y-102753436D01*
X160194498Y-102753436D02*
X164592188Y-103608261D01*
X163715020Y-108225725D02*
X159297696Y-107367084D01*
X163848585Y-107538586D02*
X163715020Y-108225725D01*
X165213304Y-103138138D02*
X165388848Y-102235041D01*
X165975066Y-101839632D02*
X165388848Y-102235041D01*
X168061307Y-106829381D02*
X165803565Y-106390520D01*
X168647525Y-106433972D02*
X168061307Y-106829381D01*
X168919949Y-102412059D02*
X165975066Y-101839632D01*
X169315357Y-102998277D02*
X168919949Y-102412059D01*
X163852401Y-107518953D02*
G75*
G02*
X165803565Y-106390521I1539797J-411364D01*
G01*
X165213304Y-103138138D02*
G75*
G02*
X164592188Y-103608262I-545619J75495D01*
G01*
%TO.C,S5*%
X148421583Y-163319833D02*
X148516988Y-162829020D01*
X149203900Y-159295162D02*
X149318385Y-158706185D01*
X149318385Y-158706185D02*
X153716075Y-159561010D01*
X152838907Y-164178474D02*
X148421583Y-163319833D01*
X152972472Y-163491335D02*
X152838907Y-164178474D01*
X154337191Y-159090887D02*
X154512735Y-158187790D01*
X155098953Y-157792381D02*
X154512735Y-158187790D01*
X157185194Y-162782130D02*
X154927452Y-162343269D01*
X157771412Y-162386721D02*
X157185194Y-162782130D01*
X158043836Y-158364808D02*
X155098953Y-157792381D01*
X158439244Y-158951026D02*
X158043836Y-158364808D01*
X152976288Y-163471702D02*
G75*
G02*
X154927452Y-162343270I1539797J-411364D01*
G01*
X154337191Y-159090887D02*
G75*
G02*
X153716075Y-159561011I-545619J75495D01*
G01*
%TO.C,S16*%
X197744382Y-108728062D02*
X197839787Y-108237249D01*
X198526699Y-104703391D02*
X198641184Y-104114414D01*
X198641184Y-104114414D02*
X203038874Y-104969239D01*
X202161706Y-109586703D02*
X197744382Y-108728062D01*
X202295271Y-108899564D02*
X202161706Y-109586703D01*
X203659990Y-104499116D02*
X203835534Y-103596019D01*
X204421752Y-103200610D02*
X203835534Y-103596019D01*
X206507993Y-108190359D02*
X204250251Y-107751498D01*
X207094211Y-107794950D02*
X206507993Y-108190359D01*
X207366635Y-103773037D02*
X204421752Y-103200610D01*
X207762043Y-104359255D02*
X207366635Y-103773037D01*
X202299087Y-108879931D02*
G75*
G02*
X204250251Y-107751499I1539797J-411364D01*
G01*
X203659990Y-104499116D02*
G75*
G02*
X203038874Y-104969240I-545619J75495D01*
G01*
%TO.C,S4*%
X140646779Y-103741713D02*
X140742184Y-103250900D01*
X141429096Y-99717042D02*
X141543581Y-99128065D01*
X141543581Y-99128065D02*
X145941271Y-99982890D01*
X145064103Y-104600354D02*
X140646779Y-103741713D01*
X145197668Y-103913215D02*
X145064103Y-104600354D01*
X146562387Y-99512767D02*
X146737931Y-98609670D01*
X147324149Y-98214261D02*
X146737931Y-98609670D01*
X149410390Y-103204010D02*
X147152648Y-102765149D01*
X149996608Y-102808601D02*
X149410390Y-103204010D01*
X150269032Y-98786688D02*
X147324149Y-98214261D01*
X150664440Y-99372906D02*
X150269032Y-98786688D01*
X145201484Y-103893582D02*
G75*
G02*
X147152648Y-102765150I1539797J-411364D01*
G01*
X146562387Y-99512767D02*
G75*
G02*
X145941271Y-99982891I-545619J75495D01*
G01*
%TD*%
M02*
