%TF.GenerationSoftware,KiCad,Pcbnew,10.0.0*%
%TF.CreationDate,2026-04-11T15:31:52-04:00*%
%TF.ProjectId,pseudo-kb,70736575-646f-42d6-9b62-2e6b69636164,v1.0.0*%
%TF.SameCoordinates,Original*%
%TF.FileFunction,Copper,L2,Bot*%
%TF.FilePolarity,Positive*%
%FSLAX46Y46*%
G04 Gerber Fmt 4.6, Leading zero omitted, Abs format (unit mm)*
G04 Created by KiCad (PCBNEW 10.0.0) date 2026-04-11 15:31:52*
%MOMM*%
%LPD*%
G01*
G04 APERTURE LIST*
G04 Aperture macros list*
%AMRotRect*
0 Rectangle, with rotation*
0 The origin of the aperture is its center*
0 $1 length*
0 $2 width*
0 $3 Rotation angle, in degrees counterclockwise*
0 Add horizontal line*
21,1,$1,$2,0,0,$3*%
%AMOutline5P*
0 Free polygon, 5 corners , with rotation*
0 The origin of the aperture is its center*
0 number of corners: always 5*
0 $1 to $10 corner X, Y*
0 $11 Rotation angle, in degrees counterclockwise*
0 create outline with 5 corners*
4,1,5,$1,$2,$3,$4,$5,$6,$7,$8,$9,$10,$1,$2,$11*%
%AMOutline6P*
0 Free polygon, 6 corners , with rotation*
0 The origin of the aperture is its center*
0 number of corners: always 6*
0 $1 to $12 corner X, Y*
0 $13 Rotation angle, in degrees counterclockwise*
0 create outline with 6 corners*
4,1,6,$1,$2,$3,$4,$5,$6,$7,$8,$9,$10,$11,$12,$1,$2,$13*%
%AMOutline7P*
0 Free polygon, 7 corners , with rotation*
0 The origin of the aperture is its center*
0 number of corners: always 7*
0 $1 to $14 corner X, Y*
0 $15 Rotation angle, in degrees counterclockwise*
0 create outline with 7 corners*
4,1,7,$1,$2,$3,$4,$5,$6,$7,$8,$9,$10,$11,$12,$13,$14,$1,$2,$15*%
%AMOutline8P*
0 Free polygon, 8 corners , with rotation*
0 The origin of the aperture is its center*
0 number of corners: always 8*
0 $1 to $16 corner X, Y*
0 $17 Rotation angle, in degrees counterclockwise*
0 create outline with 8 corners*
4,1,8,$1,$2,$3,$4,$5,$6,$7,$8,$9,$10,$11,$12,$13,$14,$15,$16,$1,$2,$17*%
%AMFreePoly0*
4,1,6,0.250000,0.000000,-0.250000,-0.625000,-0.500000,-0.625000,-0.500000,0.625000,-0.250000,0.625000,0.250000,0.000000,0.250000,0.000000,$1*%
%AMFreePoly1*
4,1,6,0.500000,-0.625000,-0.650000,-0.625000,-0.150000,0.000000,-0.650000,0.625000,0.500000,0.625000,0.500000,-0.625000,0.500000,-0.625000,$1*%
G04 Aperture macros list end*
%TA.AperFunction,ComponentPad*%
%ADD10RotRect,1.778000X1.778000X349.000000*%
%TD*%
%TA.AperFunction,SMDPad,CuDef*%
%ADD11RotRect,0.900000X1.200000X349.000000*%
%TD*%
%TA.AperFunction,ComponentPad*%
%ADD12C,1.905000*%
%TD*%
%TA.AperFunction,SMDPad,CuDef*%
%ADD13FreePoly0,180.000000*%
%TD*%
%TA.AperFunction,ComponentPad*%
%ADD14C,1.700000*%
%TD*%
%TA.AperFunction,SMDPad,CuDef*%
%ADD15FreePoly0,0.000000*%
%TD*%
%TA.AperFunction,SMDPad,CuDef*%
%ADD16FreePoly1,0.000000*%
%TD*%
%TA.AperFunction,ComponentPad*%
%ADD17C,0.800000*%
%TD*%
%TA.AperFunction,SMDPad,CuDef*%
%ADD18FreePoly1,180.000000*%
%TD*%
%TA.AperFunction,ComponentPad*%
%ADD19C,3.800000*%
%TD*%
%TA.AperFunction,ComponentPad*%
%ADD20Outline6P,-1.300000X0.540000X-0.940000X0.900000X0.940000X0.900000X1.300000X0.540000X1.300000X-0.900000X-1.300000X-0.900000X270.000000*%
%TD*%
%TA.AperFunction,ComponentPad*%
%ADD21Outline6P,-1.300000X0.900000X1.300000X0.900000X1.300000X-0.540000X0.940000X-0.900000X-0.940000X-0.900000X-1.300000X-0.540000X270.000000*%
%TD*%
%TA.AperFunction,ComponentPad*%
%ADD22O,1.600000X1.100000*%
%TD*%
%TA.AperFunction,ComponentPad*%
%ADD23RotRect,1.778000X1.778000X342.000000*%
%TD*%
%TA.AperFunction,SMDPad,CuDef*%
%ADD24RotRect,0.900000X1.200000X342.000000*%
%TD*%
%TA.AperFunction,ComponentPad*%
%ADD25O,1.700000X1.700000*%
%TD*%
%TA.AperFunction,SMDPad,CuDef*%
%ADD26R,1.200000X0.600000*%
%TD*%
%TA.AperFunction,ComponentPad*%
%ADD27C,1.900000*%
%TD*%
%TA.AperFunction,SMDPad,CuDef*%
%ADD28Outline5P,-1.300000X1.300000X1.300000X1.300000X1.300000X-1.300000X-0.117000X-1.300000X-1.300000X-0.117000X349.000000*%
%TD*%
%TA.AperFunction,SMDPad,CuDef*%
%ADD29RotRect,2.600000X2.600000X349.000000*%
%TD*%
%TA.AperFunction,SMDPad,CuDef*%
%ADD30Outline5P,-1.300000X1.300000X1.300000X1.300000X1.300000X-1.300000X-0.117000X-1.300000X-1.300000X-0.117000X342.000000*%
%TD*%
%TA.AperFunction,SMDPad,CuDef*%
%ADD31RotRect,2.600000X2.600000X342.000000*%
%TD*%
%TA.AperFunction,ViaPad*%
%ADD32C,0.600000*%
%TD*%
%TA.AperFunction,Conductor*%
%ADD33C,0.200000*%
%TD*%
%TA.AperFunction,Conductor*%
%ADD34C,0.250000*%
%TD*%
G04 APERTURE END LIST*
D10*
%TO.P,D9,1*%
%TO.N,R0*%
X168868227Y-174425276D03*
D11*
X170988542Y-174837423D03*
%TO.P,D9,2*%
%TO.N,ring_utils*%
X174227912Y-175467093D03*
D12*
X176348227Y-175879240D03*
%TD*%
D10*
%TO.P,D5,1*%
%TO.N,R0*%
X149644883Y-173744786D03*
D11*
X151765198Y-174156933D03*
%TO.P,D5,2*%
%TO.N,pinky_utils*%
X155004568Y-174786603D03*
D12*
X157124883Y-175198750D03*
%TD*%
D10*
%TO.P,D14,1*%
%TO.N,R1*%
X191716941Y-156454848D03*
D11*
X193837256Y-156866995D03*
%TO.P,D14,2*%
%TO.N,middle_bottom*%
X197076626Y-157496665D03*
D12*
X199196941Y-157908812D03*
%TD*%
D13*
%TO.P,MCU1,1*%
%TO.N,MCU1_1*%
X270486539Y-112976671D03*
D14*
X272606539Y-112976671D03*
D13*
%TO.P,MCU1,2*%
%TO.N,MCU1_2*%
X270486539Y-115516671D03*
D14*
X272606539Y-115516671D03*
D13*
%TO.P,MCU1,3*%
%TO.N,MCU1_3*%
X270486539Y-118056671D03*
D14*
X272606539Y-118056671D03*
D13*
%TO.P,MCU1,4*%
%TO.N,MCU1_4*%
X270486539Y-120596671D03*
D14*
X272606539Y-120596671D03*
D13*
%TO.P,MCU1,5*%
%TO.N,MCU1_5*%
X270486539Y-123136671D03*
D14*
X272606539Y-123136671D03*
D13*
%TO.P,MCU1,6*%
%TO.N,MCU1_6*%
X270486539Y-125676671D03*
D14*
X272606539Y-125676671D03*
D13*
%TO.P,MCU1,7*%
%TO.N,MCU1_7*%
X270486539Y-128216671D03*
D14*
X272606539Y-128216671D03*
D13*
%TO.P,MCU1,8*%
%TO.N,MCU1_8*%
X270486539Y-130756671D03*
D14*
X272606539Y-130756671D03*
D13*
%TO.P,MCU1,9*%
%TO.N,MCU1_9*%
X270486539Y-133296671D03*
D14*
X272606539Y-133296671D03*
D13*
%TO.P,MCU1,10*%
%TO.N,MCU1_10*%
X270486539Y-135836671D03*
D14*
X272606539Y-135836671D03*
D13*
%TO.P,MCU1,11*%
%TO.N,MCU1_11*%
X270486539Y-138376671D03*
D14*
X272606539Y-138376671D03*
D13*
%TO.P,MCU1,12*%
%TO.N,MCU1_12*%
X270486539Y-140916671D03*
D14*
X272606539Y-140916671D03*
%TO.P,MCU1,13*%
%TO.N,MCU1_13*%
X257366539Y-140916671D03*
D15*
X259486539Y-140916671D03*
D14*
%TO.P,MCU1,14*%
%TO.N,MCU1_14*%
X257366539Y-138376671D03*
D15*
X259486539Y-138376671D03*
D14*
%TO.P,MCU1,15*%
%TO.N,MCU1_15*%
X257366539Y-135836671D03*
D15*
X259486539Y-135836671D03*
D14*
%TO.P,MCU1,16*%
%TO.N,MCU1_16*%
X257366539Y-133296671D03*
D15*
X259486539Y-133296671D03*
D14*
%TO.P,MCU1,17*%
%TO.N,MCU1_17*%
X257366539Y-130756671D03*
D15*
X259486539Y-130756671D03*
D14*
%TO.P,MCU1,18*%
%TO.N,MCU1_18*%
X257366539Y-128216671D03*
D15*
X259486539Y-128216671D03*
D14*
%TO.P,MCU1,19*%
%TO.N,MCU1_19*%
X257366539Y-125676671D03*
D15*
X259486539Y-125676671D03*
D14*
%TO.P,MCU1,20*%
%TO.N,MCU1_20*%
X257366539Y-123136671D03*
D15*
X259486539Y-123136671D03*
D14*
%TO.P,MCU1,21*%
%TO.N,MCU1_21*%
X257366539Y-120596671D03*
D15*
X259486539Y-120596671D03*
D14*
%TO.P,MCU1,22*%
%TO.N,MCU1_22*%
X257366539Y-118056671D03*
D15*
X259486539Y-118056671D03*
D14*
%TO.P,MCU1,23*%
%TO.N,MCU1_23*%
X257366539Y-115516671D03*
D15*
X259486539Y-115516671D03*
D14*
%TO.P,MCU1,24*%
%TO.N,MCU1_24*%
X257366539Y-112976671D03*
D15*
X259486539Y-112976671D03*
D16*
%TO.P,MCU1,101*%
%TO.N,P1*%
X260211539Y-112976671D03*
D17*
X268386539Y-112976671D03*
D16*
%TO.P,MCU1,102*%
%TO.N,DISP_CS*%
X260211539Y-115516671D03*
D17*
X268386539Y-115516671D03*
D16*
%TO.P,MCU1,103*%
%TO.N,GND*%
X260211539Y-118056671D03*
D17*
X268386539Y-118056671D03*
D16*
%TO.P,MCU1,104*%
X260211539Y-120596671D03*
D17*
X268386539Y-120596671D03*
D16*
%TO.P,MCU1,105*%
%TO.N,P2*%
X260211539Y-123136671D03*
D17*
X268386539Y-123136671D03*
D16*
%TO.P,MCU1,106*%
%TO.N,DISP_SCK*%
X260211539Y-125676671D03*
D17*
X268386539Y-125676671D03*
D16*
%TO.P,MCU1,107*%
%TO.N,DISP_MOSI*%
X260211539Y-128216671D03*
D17*
X268386539Y-128216671D03*
D16*
%TO.P,MCU1,108*%
%TO.N,R0*%
X260211539Y-130756671D03*
D17*
X268386539Y-130756671D03*
D16*
%TO.P,MCU1,109*%
%TO.N,ENC_A*%
X260211539Y-133296671D03*
D17*
X268386539Y-133296671D03*
D16*
%TO.P,MCU1,110*%
%TO.N,ENC_B*%
X260211539Y-135836671D03*
D17*
X268386539Y-135836671D03*
D16*
%TO.P,MCU1,111*%
%TO.N,C6*%
X260211539Y-138376671D03*
D17*
X268386539Y-138376671D03*
D16*
%TO.P,MCU1,112*%
%TO.N,R1*%
X260211539Y-140916671D03*
D17*
X268386539Y-140916671D03*
%TO.P,MCU1,113*%
%TO.N,R2*%
X261586539Y-140916671D03*
D18*
X269761539Y-140916671D03*
D17*
%TO.P,MCU1,114*%
%TO.N,R3*%
X261586539Y-138376671D03*
D18*
X269761539Y-138376671D03*
D17*
%TO.P,MCU1,115*%
%TO.N,C5*%
X261586539Y-135836671D03*
D18*
X269761539Y-135836671D03*
D17*
%TO.P,MCU1,116*%
%TO.N,C4*%
X261586539Y-133296671D03*
D18*
X269761539Y-133296671D03*
D17*
%TO.P,MCU1,117*%
%TO.N,C3*%
X261586539Y-130756671D03*
D18*
X269761539Y-130756671D03*
D17*
%TO.P,MCU1,118*%
%TO.N,C2*%
X261586539Y-128216671D03*
D18*
X269761539Y-128216671D03*
D17*
%TO.P,MCU1,119*%
%TO.N,C1*%
X261586539Y-125676671D03*
D18*
X269761539Y-125676671D03*
D17*
%TO.P,MCU1,120*%
%TO.N,C0*%
X261586539Y-123136671D03*
D18*
X269761539Y-123136671D03*
D17*
%TO.P,MCU1,121*%
%TO.N,VCC*%
X261586539Y-120596671D03*
D18*
X269761539Y-120596671D03*
D17*
%TO.P,MCU1,122*%
%TO.N,RST*%
X261586539Y-118056671D03*
D18*
X269761539Y-118056671D03*
D17*
%TO.P,MCU1,123*%
%TO.N,GND*%
X261586539Y-115516671D03*
D18*
X269761539Y-115516671D03*
D17*
%TO.P,MCU1,124*%
%TO.N,RAW*%
X261586539Y-112976671D03*
D18*
X269761539Y-112976671D03*
%TD*%
D10*
%TO.P,D7,1*%
%TO.N,R2*%
X156895625Y-136442953D03*
D11*
X159015940Y-136855100D03*
%TO.P,D7,2*%
%TO.N,pinky_home*%
X162255310Y-137484770D03*
D12*
X164375625Y-137896917D03*
%TD*%
D10*
%TO.P,D4,1*%
%TO.N,R3*%
X141870079Y-114166666D03*
D11*
X143990394Y-114578813D03*
%TO.P,D4,2*%
%TO.N,outer_top*%
X147229764Y-115208483D03*
D12*
X149350079Y-115620630D03*
%TD*%
D10*
%TO.P,D23,1*%
%TO.N,R3*%
X235124662Y-132293520D03*
D11*
X237244977Y-132705667D03*
%TO.P,D23,2*%
%TO.N,inner_top*%
X240484347Y-133335337D03*
D12*
X242604662Y-133747484D03*
%TD*%
D10*
%TO.P,D17,1*%
%TO.N,R0*%
X206170060Y-181676017D03*
D11*
X208290375Y-182088164D03*
%TO.P,D17,2*%
%TO.N,index_utils*%
X211529745Y-182717834D03*
D12*
X213650060Y-183129981D03*
%TD*%
D19*
%TO.P,H5,*%
%TO.N,*%
X207923852Y-141522931D03*
%TD*%
%TO.P,H1,*%
%TO.N,*%
X140196206Y-92957605D03*
%TD*%
D10*
%TO.P,D8,1*%
%TO.N,R3*%
X160520996Y-117792037D03*
D11*
X162641311Y-118204184D03*
%TO.P,D8,2*%
%TO.N,pinky_top*%
X165880681Y-118833854D03*
D12*
X168000996Y-119246001D03*
%TD*%
D19*
%TO.P,H4,*%
%TO.N,*%
X274382525Y-173032768D03*
%TD*%
D10*
%TO.P,D10,1*%
%TO.N,R1*%
X172493598Y-155774359D03*
D11*
X174613913Y-156186506D03*
%TO.P,D10,2*%
%TO.N,ring_bottom*%
X177853283Y-156816176D03*
D12*
X179973598Y-157228323D03*
%TD*%
D10*
%TO.P,D22,1*%
%TO.N,R2*%
X231499291Y-150944437D03*
D11*
X233619606Y-151356584D03*
%TO.P,D22,2*%
%TO.N,inner_home*%
X236858976Y-151986254D03*
D12*
X238979291Y-152398401D03*
%TD*%
D10*
%TO.P,D16,1*%
%TO.N,R3*%
X198967683Y-119153015D03*
D11*
X201087998Y-119565162D03*
%TO.P,D16,2*%
%TO.N,middle_top*%
X204327368Y-120194832D03*
D12*
X206447683Y-120606979D03*
%TD*%
D20*
%TO.P,RE1,*%
%TO.N,*%
X259635797Y-159978504D03*
D21*
X270835797Y-159978504D03*
D22*
%TO.P,RE1,A*%
%TO.N,ENC_A*%
X267735797Y-168232504D03*
%TO.P,RE1,B*%
%TO.N,ENC_B*%
X265235797Y-168232504D03*
%TO.P,RE1,C*%
%TO.N,GND*%
X262735797Y-168232504D03*
%TO.P,RE1,S1*%
%TO.N,R1*%
X262735797Y-152978504D03*
%TO.P,RE1,S2*%
%TO.N,C6*%
X267735797Y-152978504D03*
%TD*%
D10*
%TO.P,D24,1*%
%TO.N,R0*%
X224248549Y-188246270D03*
D11*
X226368864Y-188658417D03*
%TO.P,D24,2*%
%TO.N,home_lower*%
X229608234Y-189288087D03*
D12*
X231728549Y-189700234D03*
%TD*%
D10*
%TO.P,D13,1*%
%TO.N,R0*%
X188091570Y-175105765D03*
D11*
X190211885Y-175517912D03*
%TO.P,D13,2*%
%TO.N,middle_utils*%
X193451255Y-176147582D03*
D12*
X195571570Y-176559729D03*
%TD*%
D19*
%TO.P,H3,*%
%TO.N,*%
X124849873Y-174528066D03*
%TD*%
D14*
%TO.P,RST1,1*%
%TO.N,RST*%
X245736539Y-104676671D03*
%TO.P,RST1,2*%
%TO.N,GND*%
X239236539Y-104676671D03*
%TD*%
D10*
%TO.P,D2,1*%
%TO.N,R1*%
X134619338Y-151468499D03*
D11*
X136739653Y-151880646D03*
%TO.P,D2,2*%
%TO.N,outer_bottom*%
X139979023Y-152510316D03*
D12*
X142099338Y-152922463D03*
%TD*%
D10*
%TO.P,D1,1*%
%TO.N,R0*%
X130993967Y-170119415D03*
D11*
X133114282Y-170531562D03*
%TO.P,D1,2*%
%TO.N,outer_utils*%
X136353652Y-171161232D03*
D12*
X138473967Y-171573379D03*
%TD*%
D10*
%TO.P,D3,1*%
%TO.N,R2*%
X138244709Y-132817582D03*
D11*
X140365024Y-133229729D03*
%TO.P,D3,2*%
%TO.N,outer_home*%
X143604394Y-133859399D03*
D12*
X145724709Y-134271546D03*
%TD*%
D10*
%TO.P,D12,1*%
%TO.N,R3*%
X179744339Y-118472526D03*
D11*
X181864654Y-118884673D03*
%TO.P,D12,2*%
%TO.N,ring_top*%
X185104024Y-119514343D03*
D12*
X187224339Y-119926490D03*
%TD*%
D10*
%TO.P,D11,1*%
%TO.N,R2*%
X176118969Y-137123443D03*
D11*
X178239284Y-137535590D03*
%TO.P,D11,2*%
%TO.N,ring_home*%
X181478654Y-138165260D03*
D12*
X183598969Y-138577407D03*
%TD*%
D10*
%TO.P,D6,1*%
%TO.N,R1*%
X153270254Y-155093870D03*
D11*
X155390569Y-155506017D03*
%TO.P,D6,2*%
%TO.N,pinky_bottom*%
X158629939Y-156135687D03*
D12*
X160750254Y-156547834D03*
%TD*%
D10*
%TO.P,D21,1*%
%TO.N,R1*%
X227873920Y-169595353D03*
D11*
X229994235Y-170007500D03*
%TO.P,D21,2*%
%TO.N,inner_bottom*%
X233233605Y-170637170D03*
D12*
X235353920Y-171049317D03*
%TD*%
D10*
%TO.P,D18,1*%
%TO.N,R1*%
X209795431Y-163025101D03*
D11*
X211915746Y-163437248D03*
%TO.P,D18,2*%
%TO.N,index_bottom*%
X215155116Y-164066918D03*
D12*
X217275431Y-164479065D03*
%TD*%
D10*
%TO.P,D20,1*%
%TO.N,R3*%
X217046172Y-125723268D03*
D11*
X219166487Y-126135415D03*
%TO.P,D20,2*%
%TO.N,index_top*%
X222405857Y-126765085D03*
D12*
X224526172Y-127177232D03*
%TD*%
D10*
%TO.P,D15,1*%
%TO.N,R2*%
X195342312Y-137803932D03*
D11*
X197462627Y-138216079D03*
%TO.P,D15,2*%
%TO.N,middle_home*%
X200701997Y-138845749D03*
D12*
X202822312Y-139257896D03*
%TD*%
D23*
%TO.P,D25,1*%
%TO.N,R0*%
X243342843Y-192924594D03*
D24*
X245397125Y-193592071D03*
%TO.P,D25,2*%
%TO.N,far_lower*%
X248535611Y-194611827D03*
D12*
X250589893Y-195279304D03*
%TD*%
D19*
%TO.P,H2,*%
%TO.N,*%
X274145810Y-93017495D03*
%TD*%
D10*
%TO.P,D19,1*%
%TO.N,R2*%
X213420802Y-144374184D03*
D11*
X215541117Y-144786331D03*
%TO.P,D19,2*%
%TO.N,index_home*%
X218780487Y-145416001D03*
D12*
X220900802Y-145828148D03*
%TD*%
D25*
%TO.P,DISP1,1*%
%TO.N,DISP1_1*%
X259906539Y-146376671D03*
%TO.P,DISP1,2*%
%TO.N,DISP1_2*%
X262446539Y-146376671D03*
%TO.P,DISP1,3*%
%TO.N,VCC*%
X264986539Y-146376671D03*
%TO.P,DISP1,4*%
%TO.N,DISP1_4*%
X267526539Y-146376671D03*
D14*
%TO.P,DISP1,5*%
%TO.N,DISP1_5*%
X270066539Y-146376671D03*
D26*
%TO.P,DISP1,20*%
X270066539Y-144626671D03*
%TO.P,DISP1,21*%
%TO.N,DISP1_4*%
X267526539Y-144626671D03*
%TO.P,DISP1,22*%
%TO.N,DISP1_2*%
X262446539Y-144626671D03*
%TO.P,DISP1,23*%
%TO.N,DISP1_1*%
X259906539Y-144626671D03*
%TO.P,DISP1,24*%
%TO.N,DISP_CS*%
X270066539Y-143726671D03*
%TO.P,DISP1,25*%
%TO.N,GND*%
X267526539Y-143726671D03*
%TO.P,DISP1,26*%
%TO.N,DISP_SCK*%
X262446539Y-143726671D03*
%TO.P,DISP1,27*%
%TO.N,DISP_MOSI*%
X259906539Y-143726671D03*
%TD*%
D27*
%TO.P,S11,*%
%TO.N,*%
X175590043Y-133607928D03*
X185406315Y-135516018D03*
D28*
%TO.P,S11,1*%
%TO.N,C2*%
X179401329Y-123041012D03*
D29*
%TO.P,S11,2*%
%TO.N,ring_home*%
X190319344Y-127404435D03*
%TD*%
D27*
%TO.P,S17,*%
%TO.N,*%
X205641134Y-178160503D03*
X215457406Y-180068593D03*
D28*
%TO.P,S17,1*%
%TO.N,C4*%
X209452420Y-167593587D03*
D29*
%TO.P,S17,2*%
%TO.N,index_utils*%
X220370435Y-171957010D03*
%TD*%
D27*
%TO.P,S1,*%
%TO.N,*%
X130465041Y-166603901D03*
X140281313Y-168511991D03*
D28*
%TO.P,S1,1*%
%TO.N,C0*%
X134276327Y-156036985D03*
D29*
%TO.P,S1,2*%
%TO.N,outer_utils*%
X145194342Y-160400408D03*
%TD*%
D27*
%TO.P,S24,*%
%TO.N,*%
X223719624Y-184730756D03*
X233535896Y-186638846D03*
D28*
%TO.P,S24,1*%
%TO.N,C5*%
X227530910Y-174163840D03*
D29*
%TO.P,S24,2*%
%TO.N,home_lower*%
X238448925Y-178527263D03*
%TD*%
D27*
%TO.P,S13,*%
%TO.N,*%
X187562645Y-171590251D03*
X197378917Y-173498341D03*
D28*
%TO.P,S13,1*%
%TO.N,C3*%
X191373931Y-161023335D03*
D29*
%TO.P,S13,2*%
%TO.N,middle_utils*%
X202291946Y-165386758D03*
%TD*%
D27*
%TO.P,S20,*%
%TO.N,*%
X216517247Y-122207754D03*
X226333519Y-124115844D03*
D28*
%TO.P,S20,1*%
%TO.N,C4*%
X220328533Y-111640838D03*
D29*
%TO.P,S20,2*%
%TO.N,index_top*%
X231246548Y-116004261D03*
%TD*%
D27*
%TO.P,S23,*%
%TO.N,*%
X234595737Y-128778006D03*
X244412009Y-130686096D03*
D28*
%TO.P,S23,1*%
%TO.N,C5*%
X238407023Y-118211090D03*
D29*
%TO.P,S23,2*%
%TO.N,inner_top*%
X249325038Y-122574513D03*
%TD*%
D27*
%TO.P,S10,*%
%TO.N,*%
X171964672Y-152258845D03*
X181780944Y-154166935D03*
D28*
%TO.P,S10,1*%
%TO.N,C2*%
X175775958Y-141691929D03*
D29*
%TO.P,S10,2*%
%TO.N,ring_bottom*%
X186693973Y-146055352D03*
%TD*%
D27*
%TO.P,S6,*%
%TO.N,*%
X152741329Y-151578356D03*
X162557601Y-153486446D03*
D28*
%TO.P,S6,1*%
%TO.N,C1*%
X156552615Y-141011440D03*
D29*
%TO.P,S6,2*%
%TO.N,pinky_bottom*%
X167470630Y-145374863D03*
%TD*%
D27*
%TO.P,S7,*%
%TO.N,*%
X156366700Y-132927439D03*
X166182972Y-134835529D03*
D28*
%TO.P,S7,1*%
%TO.N,C1*%
X160177986Y-122360523D03*
D29*
%TO.P,S7,2*%
%TO.N,pinky_home*%
X171096001Y-126723946D03*
%TD*%
D27*
%TO.P,S21,*%
%TO.N,*%
X227344995Y-166079839D03*
X237161267Y-167987929D03*
D28*
%TO.P,S21,1*%
%TO.N,C5*%
X231156281Y-155512923D03*
D29*
%TO.P,S21,2*%
%TO.N,inner_bottom*%
X242074296Y-159876346D03*
%TD*%
D27*
%TO.P,S18,*%
%TO.N,*%
X209266505Y-159509587D03*
X219082777Y-161417677D03*
D28*
%TO.P,S18,1*%
%TO.N,C4*%
X213077791Y-148942671D03*
D29*
%TO.P,S18,2*%
%TO.N,index_bottom*%
X223995806Y-153306094D03*
%TD*%
D27*
%TO.P,S12,*%
%TO.N,*%
X179215414Y-114957012D03*
X189031686Y-116865102D03*
D28*
%TO.P,S12,1*%
%TO.N,C2*%
X183026700Y-104390096D03*
D29*
%TO.P,S12,2*%
%TO.N,ring_top*%
X193944715Y-108753519D03*
%TD*%
D27*
%TO.P,S15,*%
%TO.N,*%
X194813387Y-134288418D03*
X204629659Y-136196508D03*
D28*
%TO.P,S15,1*%
%TO.N,C3*%
X198624673Y-123721502D03*
D29*
%TO.P,S15,2*%
%TO.N,middle_home*%
X209542688Y-128084925D03*
%TD*%
D27*
%TO.P,S22,*%
%TO.N,*%
X230970366Y-147428923D03*
X240786638Y-149337013D03*
D28*
%TO.P,S22,1*%
%TO.N,C5*%
X234781652Y-136862007D03*
D29*
%TO.P,S22,2*%
%TO.N,inner_home*%
X245699667Y-141225430D03*
%TD*%
D27*
%TO.P,S2,*%
%TO.N,*%
X134090412Y-147952985D03*
X143906684Y-149861075D03*
D28*
%TO.P,S2,1*%
%TO.N,C0*%
X137901698Y-137386069D03*
D29*
%TO.P,S2,2*%
%TO.N,outer_bottom*%
X148819713Y-141749492D03*
%TD*%
D27*
%TO.P,S14,*%
%TO.N,*%
X191188016Y-152939334D03*
X201004288Y-154847424D03*
D28*
%TO.P,S14,1*%
%TO.N,C3*%
X194999302Y-142372418D03*
D29*
%TO.P,S14,2*%
%TO.N,middle_bottom*%
X205917317Y-146735841D03*
%TD*%
D27*
%TO.P,S19,*%
%TO.N,*%
X212891876Y-140858670D03*
X222708148Y-142766760D03*
D28*
%TO.P,S19,1*%
%TO.N,C4*%
X216703162Y-130291754D03*
D29*
%TO.P,S19,2*%
%TO.N,index_home*%
X227621177Y-134655177D03*
%TD*%
D27*
%TO.P,S25,*%
%TO.N,*%
X243246292Y-189370825D03*
X252756857Y-192460995D03*
D30*
%TO.P,S25,1*%
%TO.N,C6*%
X248316953Y-179347152D03*
D31*
%TO.P,S25,2*%
%TO.N,far_lower*%
X258621818Y-185008623D03*
%TD*%
D27*
%TO.P,S9,*%
%TO.N,*%
X168339301Y-170909761D03*
X178155573Y-172817851D03*
D28*
%TO.P,S9,1*%
%TO.N,C2*%
X172150587Y-160342845D03*
D29*
%TO.P,S9,2*%
%TO.N,ring_utils*%
X183068602Y-164706268D03*
%TD*%
D27*
%TO.P,S3,*%
%TO.N,*%
X137715783Y-129302068D03*
X147532055Y-131210158D03*
D28*
%TO.P,S3,1*%
%TO.N,C0*%
X141527069Y-118735152D03*
D29*
%TO.P,S3,2*%
%TO.N,outer_home*%
X152445084Y-123098575D03*
%TD*%
D27*
%TO.P,S8,*%
%TO.N,*%
X159992071Y-114276523D03*
X169808343Y-116184613D03*
D28*
%TO.P,S8,1*%
%TO.N,C1*%
X163803357Y-103709607D03*
D29*
%TO.P,S8,2*%
%TO.N,pinky_top*%
X174721372Y-108073030D03*
%TD*%
D27*
%TO.P,S5,*%
%TO.N,*%
X149115958Y-170229272D03*
X158932230Y-172137362D03*
D28*
%TO.P,S5,1*%
%TO.N,C1*%
X152927244Y-159662356D03*
D29*
%TO.P,S5,2*%
%TO.N,pinky_utils*%
X163845259Y-164025779D03*
%TD*%
D27*
%TO.P,S16,*%
%TO.N,*%
X198438757Y-115637501D03*
X208255029Y-117545591D03*
D28*
%TO.P,S16,1*%
%TO.N,C3*%
X202250043Y-105070585D03*
D29*
%TO.P,S16,2*%
%TO.N,middle_top*%
X213168058Y-109434008D03*
%TD*%
D27*
%TO.P,S4,*%
%TO.N,*%
X141341154Y-110651152D03*
X151157426Y-112559242D03*
D28*
%TO.P,S4,1*%
%TO.N,C0*%
X145152440Y-100084236D03*
D29*
%TO.P,S4,2*%
%TO.N,outer_top*%
X156070455Y-104447659D03*
%TD*%
D32*
%TO.N,C0*%
X137095228Y-158698761D03*
X147971341Y-102746011D03*
X140720599Y-140047844D03*
X144345970Y-121396928D03*
%TO.N,outer_utils*%
X136942581Y-159484063D03*
%TO.N,GND*%
X260873364Y-116710888D03*
X264386539Y-143000000D03*
%TO.N,outer_bottom*%
X140567952Y-140833146D03*
%TO.N,outer_home*%
X144193323Y-122182230D03*
%TO.N,outer_top*%
X147818694Y-103531313D03*
%TO.N,C1*%
X162996887Y-125022299D03*
X159371516Y-143673215D03*
X155746145Y-162324132D03*
X166622257Y-106371382D03*
%TO.N,pinky_utils*%
X155593497Y-163109433D03*
%TO.N,pinky_bottom*%
X159218868Y-144458517D03*
%TO.N,pinky_home*%
X162844239Y-125807601D03*
%TO.N,pinky_top*%
X166469610Y-107156684D03*
%TO.N,C2*%
X182220230Y-125702788D03*
X174969488Y-163004621D03*
X178594859Y-144353705D03*
X185845601Y-107051872D03*
%TO.N,ring_utils*%
X174816841Y-163789923D03*
%TO.N,ring_bottom*%
X178442212Y-145139006D03*
%TO.N,ring_home*%
X182067583Y-126488090D03*
%TO.N,ring_top*%
X185692954Y-107837173D03*
%TO.N,C3*%
X201443573Y-126383278D03*
X205068944Y-107732361D03*
X194192832Y-163685110D03*
X197818203Y-145034194D03*
%TO.N,middle_utils*%
X194040184Y-164470412D03*
%TO.N,middle_bottom*%
X197665555Y-145819496D03*
%TO.N,middle_home*%
X201290926Y-127168579D03*
%TO.N,middle_top*%
X204916297Y-108517663D03*
%TO.N,C4*%
X212271321Y-170255363D03*
X215896692Y-151604446D03*
X219522063Y-132953530D03*
X223147434Y-114302614D03*
%TO.N,index_utils*%
X212118674Y-171040665D03*
%TO.N,index_bottom*%
X215744045Y-152389748D03*
%TO.N,index_home*%
X219369416Y-133738832D03*
%TO.N,index_top*%
X222994787Y-115087915D03*
%TO.N,C5*%
X230349811Y-176825615D03*
X241225923Y-120872866D03*
X233975182Y-158174699D03*
X237600553Y-139523782D03*
%TO.N,inner_bottom*%
X233822534Y-158960001D03*
%TO.N,inner_home*%
X237447905Y-140309084D03*
%TO.N,inner_top*%
X241073276Y-121658168D03*
%TO.N,home_lower*%
X230197164Y-177610917D03*
%TO.N,C6*%
X250790453Y-182332625D03*
%TO.N,far_lower*%
X250543239Y-183093470D03*
%TO.N,VCC*%
X265000000Y-119000000D03*
%TO.N,DISP_CS*%
X265000000Y-149500000D03*
%TO.N,DISP_SCK*%
X265586539Y-143000000D03*
%TO.N,DISP_MOSI*%
X265000000Y-148500000D03*
%TD*%
%TO.N,C0*%
D33*
X146793388Y-102517041D02*
X138000000Y-111310429D01*
X136000000Y-135484371D02*
X137901698Y-137386069D01*
X139542646Y-139818874D02*
X130500000Y-148861520D01*
X146793388Y-102517041D02*
X147971341Y-102746011D01*
X136000000Y-128000000D02*
X136000000Y-135484371D01*
X139542646Y-139818874D02*
X140720599Y-140047844D01*
X130500000Y-148861520D02*
X130500000Y-152260658D01*
X143032683Y-120967317D02*
X136000000Y-128000000D01*
X138000000Y-111310429D02*
X138000000Y-115208083D01*
X137901699Y-137386069D02*
X139542646Y-139818874D01*
D34*
X268086234Y-122411671D02*
X267581234Y-122916671D01*
D33*
X135917276Y-158469790D02*
X137095228Y-158698761D01*
X143168017Y-121167957D02*
X144345970Y-121396928D01*
D34*
X267581234Y-122916671D02*
X261806539Y-122916671D01*
D33*
X138000000Y-115208083D02*
X141527069Y-118735152D01*
X143032683Y-120967317D02*
X143168017Y-121167957D01*
D34*
X269411844Y-123136671D02*
X268686844Y-122411671D01*
D33*
X145152440Y-100084235D02*
X146793388Y-102517041D01*
D34*
X269761539Y-123136671D02*
X269411844Y-123136671D01*
D33*
X134276328Y-156036985D02*
X135917276Y-158469790D01*
X141527070Y-118735152D02*
X143032683Y-120967317D01*
X130500000Y-152260658D02*
X134276327Y-156036985D01*
D34*
X268686844Y-122411671D02*
X268086234Y-122411671D01*
%TO.N,outer_utils*%
D33*
X143020645Y-161866586D02*
X141000000Y-161473812D01*
X136765799Y-171573379D02*
X136353652Y-171161232D01*
X138473967Y-171573379D02*
X136765799Y-171573379D01*
X141000000Y-161888918D02*
X141000000Y-161473812D01*
X137886088Y-159667462D02*
X136942581Y-159484063D01*
X136353652Y-166535266D02*
X141000000Y-161888918D01*
X141000000Y-161473812D02*
X138818462Y-161049764D01*
X138818462Y-161049764D02*
X137886088Y-159667462D01*
X145194342Y-160400409D02*
X143020645Y-161866586D01*
X136353652Y-171161232D02*
X136353652Y-166535266D01*
%TO.N,GND*%
D34*
X260211539Y-120596671D02*
X260561234Y-120596671D01*
X261886844Y-118781671D02*
X262381844Y-118286671D01*
X269761539Y-115516671D02*
X269411844Y-115516671D01*
D33*
X259691539Y-121746671D02*
X260211539Y-121226671D01*
X260211539Y-121226671D02*
X260211539Y-120596671D01*
D34*
X260561234Y-120596671D02*
X261286233Y-121321671D01*
D33*
X266199868Y-142400000D02*
X264986539Y-142400000D01*
X262735797Y-168232504D02*
X255500000Y-160996707D01*
D34*
X260561234Y-118056671D02*
X261286233Y-118781671D01*
X262381844Y-120826671D02*
X268156539Y-120826671D01*
X262381844Y-118286671D02*
X268156539Y-118286671D01*
X261286233Y-118781671D02*
X261886844Y-118781671D01*
X260873364Y-116710888D02*
X260873364Y-117394846D01*
X268086234Y-114791671D02*
X267581234Y-115296671D01*
D33*
X255500000Y-123136864D02*
X256890193Y-121746671D01*
X264986539Y-142400000D02*
X264386539Y-143000000D01*
D34*
X268686844Y-114791671D02*
X268086234Y-114791671D01*
X261886844Y-121321671D02*
X262381844Y-120826671D01*
X267581234Y-115296671D02*
X261806539Y-115296671D01*
X269411844Y-115516671D02*
X268686844Y-114791671D01*
D33*
X256890193Y-121746671D02*
X259691539Y-121746671D01*
D34*
X261286233Y-121321671D02*
X261886844Y-121321671D01*
D33*
X255500000Y-160996707D02*
X255500000Y-123136864D01*
X267526539Y-143726671D02*
X266199868Y-142400000D01*
D34*
X260211539Y-118056671D02*
X260561234Y-118056671D01*
X260873364Y-117394846D02*
X260211539Y-118056671D01*
%TO.N,outer_bottom*%
D33*
X146646016Y-143215669D02*
X145000000Y-142895716D01*
X139979023Y-152510316D02*
X140391170Y-152922463D01*
X139979023Y-147884350D02*
X144967657Y-142895716D01*
X139979023Y-152510316D02*
X139979023Y-147884350D01*
X142443833Y-142398848D02*
X141511459Y-141016545D01*
X144967657Y-142895716D02*
X145000000Y-142895716D01*
X140391170Y-152922463D02*
X142099338Y-152922463D01*
X145000000Y-142895716D02*
X142443833Y-142398848D01*
X141511459Y-141016545D02*
X140567952Y-140833146D01*
X148819713Y-141749492D02*
X146646016Y-143215669D01*
%TO.N,outer_home*%
X148000000Y-124123240D02*
X146069204Y-123747931D01*
X148000000Y-125317620D02*
X148000000Y-124123240D01*
X143604394Y-133859399D02*
X143604394Y-129713226D01*
X145724709Y-134271546D02*
X144016541Y-134271546D01*
X152445084Y-123098576D02*
X150271387Y-124564753D01*
X145136829Y-122365629D02*
X144193323Y-122182230D01*
X144016541Y-134271546D02*
X143604394Y-133859399D01*
X143604394Y-129713226D02*
X148000000Y-125317620D01*
X146069204Y-123747931D02*
X145136829Y-122365629D01*
X150271387Y-124564753D02*
X148000000Y-124123240D01*
%TO.N,outer_top*%
X151500000Y-106312282D02*
X151500000Y-105447954D01*
X147229764Y-115208483D02*
X147229764Y-110582518D01*
X156070455Y-104447659D02*
X153896758Y-105913836D01*
X151500000Y-105447954D02*
X149694575Y-105097015D01*
X153896758Y-105913836D02*
X151500000Y-105447954D01*
X148762200Y-103714712D02*
X147818694Y-103531313D01*
X147229764Y-110582518D02*
X151500000Y-106312282D01*
X147229764Y-115208483D02*
X147641911Y-115620630D01*
X149694575Y-105097015D02*
X148762200Y-103714712D01*
X147641911Y-115620630D02*
X149350079Y-115620630D01*
%TO.N,C1*%
X165444305Y-106142412D02*
X166622257Y-106371382D01*
X155116700Y-139575525D02*
X155116700Y-131495562D01*
X149500000Y-156235112D02*
X149500000Y-152137808D01*
X161818934Y-124793328D02*
X162996887Y-125022299D01*
D34*
X268086234Y-124951671D02*
X267581234Y-125456671D01*
D33*
X158742071Y-112844646D02*
X165444305Y-106142412D01*
X152927244Y-159662356D02*
X154568192Y-162095161D01*
D34*
X269761539Y-125676671D02*
X269411844Y-125676671D01*
D33*
X156552615Y-141011439D02*
X158193563Y-143444245D01*
X158193563Y-143444245D02*
X159371516Y-143673215D01*
D34*
X267581234Y-125456671D02*
X261806539Y-125456671D01*
D33*
X155116700Y-131495562D02*
X161818934Y-124793328D01*
X158742071Y-120924608D02*
X158742071Y-112844646D01*
X163803357Y-103709606D02*
X165444305Y-106142412D01*
X154568192Y-162095161D02*
X155746145Y-162324132D01*
X160177986Y-122360523D02*
X161818934Y-124793328D01*
X160177986Y-122360523D02*
X158742071Y-120924608D01*
D34*
X269411844Y-125676671D02*
X268686844Y-124951671D01*
X268686844Y-124951671D02*
X268086234Y-124951671D01*
D33*
X149500000Y-152137808D02*
X158193563Y-143444245D01*
X156552615Y-141011440D02*
X155116700Y-139575525D01*
X152927244Y-159662356D02*
X149500000Y-156235112D01*
%TO.N,pinky_utils*%
X156537004Y-163292833D02*
X155593497Y-163109433D01*
X160000000Y-165167038D02*
X157469379Y-164675135D01*
X157469379Y-164675135D02*
X156537004Y-163292833D01*
X161671562Y-165491956D02*
X160000000Y-165167038D01*
X155004568Y-174786603D02*
X155004568Y-170162470D01*
X157124883Y-175198750D02*
X155416715Y-175198750D01*
X155416715Y-175198750D02*
X155004568Y-174786603D01*
X155004568Y-170162470D02*
X160000000Y-165167038D01*
X163845259Y-164025780D02*
X161671562Y-165491956D01*
%TO.N,pinky_bottom*%
X165296933Y-146841040D02*
X163000000Y-146394561D01*
X158629939Y-156135687D02*
X159042086Y-156547834D01*
X167470629Y-145374863D02*
X165296933Y-146841040D01*
X161094750Y-146024218D02*
X160162375Y-144641916D01*
X163000000Y-147139661D02*
X163000000Y-146394561D01*
X158629939Y-151509722D02*
X163000000Y-147139661D01*
X159042086Y-156547834D02*
X160750254Y-156547834D01*
X160162375Y-144641916D02*
X159218868Y-144458517D01*
X158629939Y-156135687D02*
X158629939Y-151509722D01*
X163000000Y-146394561D02*
X161094750Y-146024218D01*
%TO.N,pinky_home*%
X162667457Y-137896917D02*
X162255310Y-137484770D01*
X167000000Y-127816466D02*
X164720121Y-127373302D01*
X162255310Y-132858805D02*
X167000000Y-128114115D01*
X162255310Y-137484770D02*
X162255310Y-132858805D01*
X171096000Y-126723947D02*
X168922304Y-128190124D01*
X163787746Y-125991000D02*
X162844239Y-125807601D01*
X164375625Y-137896917D02*
X162667457Y-137896917D01*
X164720121Y-127373302D02*
X163787746Y-125991000D01*
X167000000Y-128114115D02*
X167000000Y-127816466D01*
X168922304Y-128190124D02*
X167000000Y-127816466D01*
%TO.N,pinky_top*%
X166292828Y-119246001D02*
X168000996Y-119246001D01*
X174721371Y-108073030D02*
X172547675Y-109539207D01*
X165880681Y-118833854D02*
X166292828Y-119246001D01*
X172547675Y-109539207D02*
X170500000Y-109141179D01*
X170500000Y-109588570D02*
X170500000Y-109141179D01*
X165880681Y-118833854D02*
X165880681Y-114207889D01*
X165880681Y-114207889D02*
X170500000Y-109588570D01*
X167413117Y-107340083D02*
X166469610Y-107156684D01*
X168345491Y-108722385D02*
X167413117Y-107340083D01*
X170500000Y-109141179D02*
X168345491Y-108722385D01*
%TO.N,C2*%
X177965414Y-121605097D02*
X179401329Y-123041012D01*
X183026700Y-104390096D02*
X184667648Y-106822901D01*
X184667648Y-106822901D02*
X185845601Y-107051872D01*
X179401330Y-123041012D02*
X181035794Y-125464206D01*
D34*
X269411844Y-128216671D02*
X268686844Y-127491671D01*
D33*
X177416906Y-144124734D02*
X170000000Y-151541640D01*
X181035794Y-125464206D02*
X174340043Y-132159957D01*
X184667648Y-106822901D02*
X177965414Y-113525135D01*
X175775959Y-141691929D02*
X177416906Y-144124734D01*
X177965414Y-113525135D02*
X177965414Y-121605097D01*
X174340043Y-140256014D02*
X175775958Y-141691929D01*
D34*
X269761539Y-128216671D02*
X269411844Y-128216671D01*
D33*
X181042277Y-125473817D02*
X182220230Y-125702788D01*
X173791535Y-162775650D02*
X174969488Y-163004621D01*
X172150588Y-160342845D02*
X173791535Y-162775650D01*
X170000000Y-158192258D02*
X172150587Y-160342845D01*
D34*
X268686844Y-127491671D02*
X268086234Y-127491671D01*
X268086234Y-127491671D02*
X267581234Y-127996671D01*
X267581234Y-127996671D02*
X261806539Y-127996671D01*
D33*
X177416906Y-144124734D02*
X178594859Y-144353705D01*
X174340043Y-132159957D02*
X174340043Y-140256014D01*
X170000000Y-151541640D02*
X170000000Y-158192258D01*
X181035794Y-125464206D02*
X181042277Y-125473817D01*
%TO.N,ring_utils*%
X180894905Y-166172446D02*
X178500000Y-165706923D01*
X174227912Y-174855863D02*
X178500000Y-170583775D01*
X174640059Y-175879240D02*
X174227912Y-175467093D01*
X174227912Y-175467093D02*
X174227912Y-174855863D01*
X178500000Y-165706923D02*
X176692722Y-165355624D01*
X183068602Y-164706269D02*
X180894905Y-166172446D01*
X178500000Y-170583775D02*
X178500000Y-165706923D01*
X175760348Y-163973322D02*
X174816841Y-163789923D01*
X176692722Y-165355624D02*
X175760348Y-163973322D01*
X176348227Y-175879240D02*
X174640059Y-175879240D01*
%TO.N,ring_bottom*%
X184520276Y-147521529D02*
X182500000Y-147128827D01*
X180318093Y-146704708D02*
X179385719Y-145322405D01*
X186693973Y-146055352D02*
X184520276Y-147521529D01*
X177853283Y-156816176D02*
X177853283Y-156146717D01*
X177853283Y-156816176D02*
X178265430Y-157228323D01*
X179385719Y-145322405D02*
X178442212Y-145139006D01*
X177853283Y-156146717D02*
X182500000Y-151500000D01*
X182500000Y-147128827D02*
X180318093Y-146704708D01*
X178265430Y-157228323D02*
X179973598Y-157228323D01*
X182500000Y-151500000D02*
X182500000Y-147128827D01*
%TO.N,ring_home*%
X183598969Y-138577407D02*
X181890801Y-138577407D01*
X186500000Y-128550731D02*
X183943464Y-128053791D01*
X183943464Y-128053791D02*
X183011089Y-126671489D01*
X181478654Y-138165260D02*
X181478654Y-133572077D01*
X183011089Y-126671489D02*
X182067583Y-126488090D01*
X181478654Y-133572077D02*
X186500000Y-128550731D01*
X190319344Y-127404436D02*
X188145647Y-128870613D01*
X181890801Y-138577407D02*
X181478654Y-138165260D01*
X188145647Y-128870613D02*
X186500000Y-128550731D01*
%TO.N,ring_top*%
X191771018Y-110219696D02*
X190000000Y-109875445D01*
X190000000Y-109875445D02*
X187568835Y-109402875D01*
X187568835Y-109402875D02*
X186636460Y-108020573D01*
X186636460Y-108020573D02*
X185692954Y-107837173D01*
X185104024Y-114888378D02*
X190000000Y-109992402D01*
X185104024Y-119514343D02*
X185516171Y-119926490D01*
X185104024Y-119514343D02*
X185104024Y-114888378D01*
X185516171Y-119926490D02*
X187224339Y-119926490D01*
X193944715Y-108753520D02*
X191771018Y-110219696D01*
X190000000Y-109992402D02*
X190000000Y-109875445D01*
%TO.N,C3*%
D34*
X268686844Y-130031671D02*
X268086234Y-130031671D01*
D33*
X198624673Y-123721502D02*
X200265621Y-126154307D01*
X200265621Y-126154307D02*
X201443573Y-126383278D01*
X193563387Y-140936503D02*
X193563387Y-132856541D01*
X189938016Y-159587420D02*
X189938016Y-151507457D01*
X196640250Y-144805223D02*
X197818203Y-145034194D01*
D34*
X269411844Y-130756671D02*
X268686844Y-130031671D01*
D33*
X194999302Y-142372418D02*
X193563387Y-140936503D01*
X193563387Y-132856541D02*
X200265621Y-126154307D01*
D34*
X269761539Y-130756671D02*
X269411844Y-130756671D01*
D33*
X197188757Y-114205625D02*
X203890992Y-107503390D01*
X189938016Y-151507457D02*
X196640250Y-144805223D01*
D34*
X268086234Y-130031671D02*
X267581234Y-130536671D01*
X267581234Y-130536671D02*
X261806539Y-130536671D01*
D33*
X203890992Y-107503390D02*
X205068944Y-107732361D01*
X202250044Y-105070585D02*
X203890992Y-107503390D01*
X193014879Y-163456140D02*
X194192832Y-163685110D01*
X191373931Y-161023335D02*
X189938016Y-159587420D01*
X198624673Y-123721502D02*
X197188757Y-122285586D01*
X191373931Y-161023335D02*
X193014879Y-163456140D01*
X194999302Y-142372418D02*
X196640250Y-144805223D01*
X197188757Y-122285586D02*
X197188757Y-114205625D01*
%TO.N,middle_utils*%
X195571570Y-176559729D02*
X193863402Y-176559729D01*
X194983691Y-164653811D02*
X194040184Y-164470412D01*
X195916066Y-166036114D02*
X194983691Y-164653811D01*
X198000000Y-166972872D02*
X198000000Y-166441189D01*
X198000000Y-166441189D02*
X195916066Y-166036114D01*
X193451255Y-176147582D02*
X193451255Y-171521617D01*
X193863402Y-176559729D02*
X193451255Y-176147582D01*
X200118249Y-166852935D02*
X198000000Y-166441189D01*
X193451255Y-171521617D02*
X198000000Y-166972872D01*
X202291945Y-165386758D02*
X200118249Y-166852935D01*
%TO.N,middle_bottom*%
X203743620Y-148202019D02*
X201500000Y-147765903D01*
X198609062Y-146002895D02*
X197665555Y-145819496D01*
X201500000Y-148447326D02*
X201500000Y-147765903D01*
X205917316Y-146735842D02*
X203743620Y-148202019D01*
X199541437Y-147385197D02*
X198609062Y-146002895D01*
X201500000Y-147765903D02*
X199541437Y-147385197D01*
X197076626Y-157496665D02*
X197488773Y-157908812D01*
X197076626Y-157496665D02*
X197076626Y-152870700D01*
X197488773Y-157908812D02*
X199196941Y-157908812D01*
X197076626Y-152870700D02*
X201500000Y-148447326D01*
%TO.N,middle_home*%
X200701997Y-134219784D02*
X205500000Y-129421781D01*
X205500000Y-129187807D02*
X203166807Y-128734281D01*
X209542687Y-128084925D02*
X207368991Y-129551102D01*
X201114144Y-139257896D02*
X200701997Y-138845749D01*
X202822312Y-139257896D02*
X201114144Y-139257896D01*
X207368991Y-129551102D02*
X205500000Y-129187807D01*
X202234433Y-127351978D02*
X201290926Y-127168579D01*
X200701997Y-138845749D02*
X200701997Y-134219784D01*
X205500000Y-129421781D02*
X205500000Y-129187807D01*
X203166807Y-128734281D02*
X202234433Y-127351978D01*
%TO.N,middle_top*%
X205859804Y-108701062D02*
X204916297Y-108517663D01*
X204739515Y-120606979D02*
X204327368Y-120194832D01*
X213168058Y-109434009D02*
X210994361Y-110900186D01*
X204327368Y-120194832D02*
X204327368Y-115568866D01*
X209000000Y-110896234D02*
X209000000Y-110512521D01*
X206447683Y-120606979D02*
X204739515Y-120606979D01*
X204327368Y-115568866D02*
X209000000Y-110896234D01*
X210994361Y-110900186D02*
X209000000Y-110512521D01*
X209000000Y-110512521D02*
X206792178Y-110083364D01*
X206792178Y-110083364D02*
X205859804Y-108701062D01*
%TO.N,C4*%
D34*
X267581234Y-133076671D02*
X261806539Y-133076671D01*
D33*
X215267247Y-128855839D02*
X216703162Y-130291754D01*
D34*
X268086234Y-132571671D02*
X267581234Y-133076671D01*
D33*
X206000000Y-160094215D02*
X206000000Y-164141167D01*
X217775441Y-132724559D02*
X211000000Y-139500000D01*
D34*
X268686844Y-132571671D02*
X268086234Y-132571671D01*
D33*
X214718739Y-151375476D02*
X215896692Y-151604446D01*
X206000000Y-164141167D02*
X209452420Y-167593587D01*
X209452421Y-167593587D02*
X211093368Y-170026392D01*
X211000000Y-139500000D02*
X211000000Y-146864880D01*
X218344110Y-132724559D02*
X219522063Y-132953530D01*
X216703163Y-130291754D02*
X218344110Y-132724559D01*
X213077792Y-148942671D02*
X214718739Y-151375476D01*
X214718739Y-151375476D02*
X206000000Y-160094215D01*
D34*
X269761539Y-133296671D02*
X269411844Y-133296671D01*
D33*
X221969481Y-114073643D02*
X223147434Y-114302614D01*
X211093368Y-170026392D02*
X212271321Y-170255363D01*
X215267247Y-120732753D02*
X215267247Y-128855839D01*
X221952110Y-114047890D02*
X215267247Y-120732753D01*
X221952110Y-114047890D02*
X221969481Y-114073643D01*
X211000000Y-146864880D02*
X213077791Y-148942671D01*
X218344110Y-132724559D02*
X217775441Y-132724559D01*
X220328533Y-111640838D02*
X221952110Y-114047890D01*
D34*
X269411844Y-133296671D02*
X268686844Y-132571671D01*
%TO.N,index_utils*%
D33*
X213062180Y-171224064D02*
X212118674Y-171040665D01*
X216000000Y-172996185D02*
X213994555Y-172606366D01*
X211529745Y-178470255D02*
X216000000Y-174000000D01*
X220370435Y-171957011D02*
X218196738Y-173423188D01*
X218196738Y-173423188D02*
X216000000Y-172996185D01*
X211941892Y-183129981D02*
X211529745Y-182717834D01*
X213650060Y-183129981D02*
X211941892Y-183129981D01*
X211529745Y-182717834D02*
X211529745Y-178470255D01*
X216000000Y-174000000D02*
X216000000Y-172996185D01*
X213994555Y-172606366D02*
X213062180Y-171224064D01*
%TO.N,index_bottom*%
X215155116Y-159440952D02*
X219500000Y-155096068D01*
X215155116Y-164066918D02*
X215567263Y-164479065D01*
X217619926Y-153955450D02*
X216687551Y-152573147D01*
X223995806Y-153306094D02*
X221822109Y-154772271D01*
X221822109Y-154772271D02*
X219500000Y-154320899D01*
X215155116Y-164066918D02*
X215155116Y-159440952D01*
X216687551Y-152573147D02*
X215744045Y-152389748D01*
X219500000Y-154320899D02*
X217619926Y-153955450D01*
X219500000Y-155096068D02*
X219500000Y-154320899D01*
X215567263Y-164479065D02*
X217275431Y-164479065D01*
%TO.N,index_home*%
X227621177Y-134655178D02*
X225447480Y-136121355D01*
X223500000Y-136070522D02*
X223500000Y-135742803D01*
X221245297Y-135304533D02*
X220312922Y-133922231D01*
X220312922Y-133922231D02*
X219369416Y-133738832D01*
X218780487Y-140790035D02*
X223500000Y-136070522D01*
X223500000Y-135742803D02*
X221245297Y-135304533D01*
X218780487Y-145416001D02*
X218780487Y-140790035D01*
X220900802Y-145828148D02*
X219192634Y-145828148D01*
X219192634Y-145828148D02*
X218780487Y-145416001D01*
X225447480Y-136121355D02*
X223500000Y-135742803D01*
%TO.N,index_top*%
X223938293Y-115271314D02*
X222994787Y-115087915D01*
X224870668Y-116653617D02*
X223938293Y-115271314D01*
X222405857Y-126765085D02*
X222405857Y-122258850D01*
X222405857Y-126765085D02*
X222818004Y-127177232D01*
X227500000Y-117164707D02*
X224870668Y-116653617D01*
X231246548Y-116004261D02*
X229072851Y-117470438D01*
X229072851Y-117470438D02*
X227500000Y-117164707D01*
X222818004Y-127177232D02*
X224526172Y-127177232D01*
X222405857Y-122258850D02*
X227500000Y-117164707D01*
%TO.N,C5*%
X236422600Y-139294812D02*
X237600553Y-139523782D01*
X233345737Y-135426092D02*
X233345737Y-127346129D01*
X232797229Y-157945728D02*
X233975182Y-158174699D01*
X240047971Y-120643895D02*
X241225923Y-120872866D01*
X231156281Y-155512923D02*
X232797229Y-157945728D01*
X234781652Y-136862007D02*
X236422600Y-139294812D01*
D34*
X267581234Y-135616671D02*
X261806539Y-135616671D01*
D33*
X233345737Y-127346129D02*
X240047971Y-120643895D01*
X229720366Y-154077008D02*
X229720366Y-145997046D01*
D34*
X269411844Y-135836671D02*
X268686844Y-135111671D01*
D33*
X226094995Y-164647962D02*
X232797229Y-157945728D01*
X231156281Y-155512923D02*
X229720366Y-154077008D01*
D34*
X268086234Y-135111671D02*
X267581234Y-135616671D01*
D33*
X238407023Y-118211090D02*
X240047971Y-120643895D01*
X227530910Y-174163840D02*
X229171858Y-176596645D01*
D34*
X268686844Y-135111671D02*
X268086234Y-135111671D01*
X269761539Y-135836671D02*
X269411844Y-135836671D01*
D33*
X229171858Y-176596645D02*
X230349811Y-176825615D01*
X234781652Y-136862007D02*
X233345737Y-135426092D01*
X226094995Y-172727925D02*
X226094995Y-164647962D01*
X227530910Y-174163840D02*
X226094995Y-172727925D01*
X229720366Y-145997046D02*
X236422600Y-139294812D01*
%TO.N,inner_bottom*%
X242074295Y-159876347D02*
X239900599Y-161342524D01*
X239900599Y-161342524D02*
X238500000Y-161070275D01*
X238500000Y-161070275D02*
X235698416Y-160525702D01*
X235698416Y-160525702D02*
X234766041Y-159143400D01*
X233233605Y-170637170D02*
X233645752Y-171049317D01*
X233233605Y-170637170D02*
X233233605Y-166336670D01*
X234766041Y-159143400D02*
X233822534Y-158960001D01*
X233233605Y-166336670D02*
X238500000Y-161070275D01*
X233645752Y-171049317D02*
X235353920Y-171049317D01*
%TO.N,inner_home*%
X237271123Y-152398401D02*
X236858976Y-151986254D01*
X241500000Y-142297799D02*
X239323787Y-141874786D01*
X238391412Y-140492483D02*
X237447905Y-140309084D01*
X236858976Y-151986254D02*
X236858976Y-151375024D01*
X236858976Y-151375024D02*
X241500000Y-146734000D01*
X241500000Y-146734000D02*
X241500000Y-142297799D01*
X239323787Y-141874786D02*
X238391412Y-140492483D01*
X245699666Y-141225430D02*
X243525970Y-142691607D01*
X243525970Y-142691607D02*
X241500000Y-142297799D01*
X238979291Y-152398401D02*
X237271123Y-152398401D01*
%TO.N,inner_top*%
X240896494Y-133747484D02*
X242604662Y-133747484D01*
X242016783Y-121841567D02*
X241073276Y-121658168D01*
X242949157Y-123223869D02*
X242016783Y-121841567D01*
X240484347Y-128735356D02*
X245500000Y-123719703D01*
X249325037Y-122574514D02*
X247151341Y-124040691D01*
X247151341Y-124040691D02*
X245500000Y-123719703D01*
X240484347Y-133335337D02*
X240484347Y-128735356D01*
X240484347Y-133335337D02*
X240896494Y-133747484D01*
X245500000Y-123719703D02*
X242949157Y-123223869D01*
%TO.N,home_lower*%
X230020381Y-189700234D02*
X229608234Y-189288087D01*
X231728549Y-189700234D02*
X230020381Y-189700234D01*
X231140670Y-177794316D02*
X230197164Y-177610917D01*
X229608234Y-189288087D02*
X229608234Y-184662122D01*
X238448925Y-178527263D02*
X236275228Y-179993440D01*
X229608234Y-184662122D02*
X234500000Y-179770356D01*
X232073045Y-179176619D02*
X231140670Y-177794316D01*
X236275228Y-179993440D02*
X234500000Y-179648371D01*
X234500000Y-179648371D02*
X232073045Y-179176619D01*
X234500000Y-179770356D02*
X234500000Y-179648371D01*
%TO.N,C6*%
X248316953Y-179347152D02*
X249649185Y-181961804D01*
D34*
X260561234Y-138376671D02*
X261286233Y-139101671D01*
X262381844Y-138606671D02*
X268156539Y-138606671D01*
X261886844Y-139101671D02*
X262381844Y-138606671D01*
D33*
X249649185Y-181961804D02*
X250790453Y-182332625D01*
D34*
X261286233Y-139101671D02*
X261886844Y-139101671D01*
X260211539Y-138376671D02*
X260561234Y-138376671D01*
%TO.N,far_lower*%
D33*
X254000000Y-189147438D02*
X254000000Y-185456314D01*
X258621818Y-185008622D02*
X256285642Y-186198964D01*
X249203088Y-195279304D02*
X248535611Y-194611827D01*
X256285642Y-186198964D02*
X254000000Y-185456314D01*
X250589893Y-195279304D02*
X249203088Y-195279304D01*
X248535611Y-194611827D02*
X254000000Y-189147438D01*
X251457362Y-183390486D02*
X250543239Y-183093470D01*
X252214327Y-184876113D02*
X251457362Y-183390486D01*
X254000000Y-185456314D02*
X252214327Y-184876113D01*
%TO.N,R0*%
D34*
X261886844Y-131481671D02*
X262381844Y-130986671D01*
D33*
X225956717Y-188246270D02*
X224248549Y-188246270D01*
D34*
X260561234Y-130756671D02*
X261286233Y-131481671D01*
X262381844Y-130986671D02*
X268156539Y-130986671D01*
D33*
X244729648Y-192924594D02*
X243342843Y-192924594D01*
X245397125Y-193592071D02*
X244729648Y-192924594D01*
X190211885Y-175517912D02*
X189799738Y-175105765D01*
X132702135Y-170119415D02*
X130993967Y-170119415D01*
X170576395Y-174425276D02*
X168868227Y-174425276D01*
X151765198Y-174156933D02*
X151353051Y-173744786D01*
X226368864Y-188658417D02*
X225956717Y-188246270D01*
X189799738Y-175105765D02*
X188091570Y-175105765D01*
D34*
X261286233Y-131481671D02*
X261886844Y-131481671D01*
D33*
X151353051Y-173744786D02*
X149644883Y-173744786D01*
X170988542Y-174837423D02*
X170576395Y-174425276D01*
X133114282Y-170531562D02*
X132702135Y-170119415D01*
X207878228Y-181676017D02*
X206170060Y-181676017D01*
D34*
X260211539Y-130756671D02*
X260561234Y-130756671D01*
D33*
X208290375Y-182088164D02*
X207878228Y-181676017D01*
%TO.N,R1*%
X174201766Y-155774359D02*
X174613913Y-156186506D01*
D34*
X260211539Y-140916671D02*
X260561234Y-140916671D01*
D33*
X193425109Y-156454848D02*
X193837256Y-156866995D01*
X136327506Y-151468499D02*
X136739653Y-151880646D01*
X229582088Y-169595353D02*
X229994235Y-170007500D01*
D34*
X261286233Y-141641671D02*
X261886844Y-141641671D01*
X260561234Y-140916671D02*
X261286233Y-141641671D01*
D33*
X155390569Y-155506017D02*
X154978422Y-155093870D01*
X154978422Y-155093870D02*
X153270254Y-155093870D01*
X172493598Y-155774359D02*
X174201766Y-155774359D01*
X227873920Y-169595353D02*
X229582088Y-169595353D01*
X209795431Y-163025101D02*
X211503599Y-163025101D01*
X191716941Y-156454848D02*
X193425109Y-156454848D01*
X134619338Y-151468499D02*
X136327506Y-151468499D01*
X211503599Y-163025101D02*
X211915746Y-163437248D01*
D34*
X261886844Y-141641671D02*
X262381844Y-141146671D01*
X262381844Y-141146671D02*
X268156539Y-141146671D01*
%TO.N,R2*%
D33*
X215128970Y-144374184D02*
X213420802Y-144374184D01*
X233619606Y-151356584D02*
X233207459Y-150944437D01*
X140365024Y-133229729D02*
X139952877Y-132817582D01*
X159015940Y-136855100D02*
X158603793Y-136442953D01*
X178239284Y-137535590D02*
X177827137Y-137123443D01*
X139952877Y-132817582D02*
X138244709Y-132817582D01*
D34*
X269411844Y-140916671D02*
X268686844Y-140191671D01*
D33*
X215541117Y-144786331D02*
X215128970Y-144374184D01*
X233207459Y-150944437D02*
X231499291Y-150944437D01*
X158603793Y-136442953D02*
X156895625Y-136442953D01*
D34*
X268686844Y-140191671D02*
X268086234Y-140191671D01*
D33*
X197050480Y-137803932D02*
X195342312Y-137803932D01*
X177827137Y-137123443D02*
X176118969Y-137123443D01*
D34*
X267581234Y-140696671D02*
X261806539Y-140696671D01*
X268086234Y-140191671D02*
X267581234Y-140696671D01*
X269761539Y-140916671D02*
X269411844Y-140916671D01*
D33*
X197462627Y-138216079D02*
X197050480Y-137803932D01*
%TO.N,R3*%
X200675851Y-119153015D02*
X201087998Y-119565162D01*
X141870079Y-114166666D02*
X143578247Y-114166666D01*
X143578247Y-114166666D02*
X143990394Y-114578813D01*
D34*
X269761539Y-138376671D02*
X269411844Y-138376671D01*
X268086234Y-137651671D02*
X267581234Y-138156671D01*
D33*
X160520996Y-117792037D02*
X162229164Y-117792037D01*
X162229164Y-117792037D02*
X162641311Y-118204184D01*
X235124662Y-132293520D02*
X236832830Y-132293520D01*
X236832830Y-132293520D02*
X237244977Y-132705667D01*
D34*
X267581234Y-138156671D02*
X261806539Y-138156671D01*
D33*
X179744339Y-118472526D02*
X181452507Y-118472526D01*
X181452507Y-118472526D02*
X181864654Y-118884673D01*
D34*
X268686844Y-137651671D02*
X268086234Y-137651671D01*
D33*
X198967683Y-119153015D02*
X200675851Y-119153015D01*
X217046172Y-125723268D02*
X218754340Y-125723268D01*
D34*
X269411844Y-138376671D02*
X268686844Y-137651671D01*
D33*
X218754340Y-125723268D02*
X219166487Y-126135415D01*
%TO.N,ENC_A*%
D34*
X260211539Y-133296671D02*
X260561234Y-133296671D01*
X261886844Y-134021671D02*
X262381844Y-133526671D01*
X262381844Y-133526671D02*
X268156539Y-133526671D01*
X260561234Y-133296671D02*
X261286233Y-134021671D01*
X261286233Y-134021671D02*
X261886844Y-134021671D01*
%TO.N,ENC_B*%
X261886844Y-136561671D02*
X262381844Y-136066671D01*
X260211539Y-135836671D02*
X260561234Y-135836671D01*
X260561234Y-135836671D02*
X261286233Y-136561671D01*
X262381844Y-136066671D02*
X268156539Y-136066671D01*
X261286233Y-136561671D02*
X261886844Y-136561671D01*
%TO.N,RAW*%
X269761539Y-112976671D02*
X269411844Y-112976671D01*
X268086234Y-112251671D02*
X267581234Y-112756671D01*
X267581234Y-112756671D02*
X261806539Y-112756671D01*
X268686844Y-112251671D02*
X268086234Y-112251671D01*
X269411844Y-112976671D02*
X268686844Y-112251671D01*
%TO.N,RST*%
X268086234Y-117331671D02*
X267581234Y-117836671D01*
X267581234Y-117836671D02*
X261806539Y-117836671D01*
X268686844Y-117331671D02*
X268086234Y-117331671D01*
X269761539Y-118056671D02*
X269411844Y-118056671D01*
X269411844Y-118056671D02*
X268686844Y-117331671D01*
%TO.N,VCC*%
X268686844Y-119871671D02*
X268086234Y-119871671D01*
X265000000Y-120376671D02*
X261806539Y-120376671D01*
X268086234Y-119871671D02*
X267581234Y-120376671D01*
X267581234Y-120376671D02*
X265000000Y-120376671D01*
D33*
X265000000Y-119000000D02*
X265000000Y-120376671D01*
D34*
X269761539Y-120596671D02*
X269411844Y-120596671D01*
X269411844Y-120596671D02*
X268686844Y-119871671D01*
%TO.N,P1*%
X260561234Y-112976671D02*
X261286233Y-113701671D01*
X261886844Y-113701671D02*
X262381844Y-113206671D01*
X262381844Y-113206671D02*
X268156539Y-113206671D01*
X260211539Y-112976671D02*
X260561234Y-112976671D01*
X261286233Y-113701671D02*
X261886844Y-113701671D01*
%TO.N,DISP_CS*%
X260211539Y-115516671D02*
X260561234Y-115516671D01*
X262381844Y-115746671D02*
X268156539Y-115746671D01*
D33*
X268676539Y-146853017D02*
X266029556Y-149500000D01*
D34*
X260561234Y-115516671D02*
X261286233Y-116241671D01*
D33*
X268676539Y-144316671D02*
X268676539Y-146853017D01*
X266029556Y-149500000D02*
X265000000Y-149500000D01*
D34*
X261886844Y-116241671D02*
X262381844Y-115746671D01*
X261286233Y-116241671D02*
X261886844Y-116241671D01*
D33*
X269266539Y-143726671D02*
X268676539Y-144316671D01*
X270066539Y-143726671D02*
X269266539Y-143726671D01*
%TO.N,P2*%
D34*
X260561234Y-123136671D02*
X261286233Y-123861671D01*
X262381844Y-123366671D02*
X268156539Y-123366671D01*
X261286233Y-123861671D02*
X261886844Y-123861671D01*
X261886844Y-123861671D02*
X262381844Y-123366671D01*
X260211539Y-123136671D02*
X260561234Y-123136671D01*
%TO.N,DISP_SCK*%
X261286233Y-126401671D02*
X261886844Y-126401671D01*
X260211539Y-125676671D02*
X260561234Y-125676671D01*
D33*
X262446539Y-143726671D02*
X264859868Y-143726671D01*
D34*
X261886844Y-126401671D02*
X262381844Y-125906671D01*
X260561234Y-125676671D02*
X261286233Y-126401671D01*
D33*
X264859868Y-143726671D02*
X265586539Y-143000000D01*
D34*
X262381844Y-125906671D02*
X268156539Y-125906671D01*
%TO.N,DISP_MOSI*%
D33*
X262943522Y-148500000D02*
X265000000Y-148500000D01*
D34*
X262381844Y-128446671D02*
X268156539Y-128446671D01*
X261286233Y-128941671D02*
X261886844Y-128941671D01*
D33*
X261296539Y-146853017D02*
X262943522Y-148500000D01*
D34*
X260211539Y-128216671D02*
X260561234Y-128216671D01*
D33*
X260706539Y-143726671D02*
X261296539Y-144316671D01*
D34*
X261886844Y-128941671D02*
X262381844Y-128446671D01*
X260561234Y-128216671D02*
X261286233Y-128941671D01*
D33*
X259906539Y-143726671D02*
X260706539Y-143726671D01*
X261296539Y-144316671D02*
X261296539Y-146853017D01*
%TO.N,MCU1_24*%
D34*
X257366539Y-112976671D02*
X259486539Y-112976671D01*
%TO.N,MCU1_1*%
X272606539Y-112976671D02*
X270486539Y-112976671D01*
%TO.N,MCU1_23*%
X257366539Y-115516671D02*
X259486539Y-115516671D01*
%TO.N,MCU1_2*%
X272606539Y-115516671D02*
X270486539Y-115516671D01*
%TO.N,MCU1_22*%
X257366539Y-118056671D02*
X259486539Y-118056671D01*
%TO.N,MCU1_3*%
X272606539Y-118056671D02*
X270486539Y-118056671D01*
%TO.N,MCU1_21*%
X257366539Y-120596671D02*
X259486539Y-120596671D01*
%TO.N,MCU1_4*%
X272606539Y-120596671D02*
X270486539Y-120596671D01*
%TO.N,MCU1_20*%
X257366539Y-123136671D02*
X259486539Y-123136671D01*
%TO.N,MCU1_5*%
X272606539Y-123136671D02*
X270486539Y-123136671D01*
%TO.N,MCU1_19*%
X257366539Y-125676671D02*
X259486539Y-125676671D01*
%TO.N,MCU1_6*%
X272606539Y-125676671D02*
X270486539Y-125676671D01*
%TO.N,MCU1_18*%
X257366539Y-128216671D02*
X259486539Y-128216671D01*
%TO.N,MCU1_7*%
X272606539Y-128216671D02*
X270486539Y-128216671D01*
%TO.N,MCU1_17*%
X257366539Y-130756671D02*
X259486539Y-130756671D01*
%TO.N,MCU1_8*%
X272606539Y-130756671D02*
X270486539Y-130756671D01*
%TO.N,MCU1_16*%
X257366539Y-133296671D02*
X259486539Y-133296671D01*
%TO.N,MCU1_9*%
X272606539Y-133296671D02*
X270486539Y-133296671D01*
%TO.N,MCU1_15*%
X257366539Y-135836671D02*
X259486539Y-135836671D01*
%TO.N,MCU1_10*%
X272606539Y-135836671D02*
X270486539Y-135836671D01*
%TO.N,MCU1_14*%
X257366539Y-138376671D02*
X259486539Y-138376671D01*
%TO.N,MCU1_11*%
X272606539Y-138376671D02*
X270486539Y-138376671D01*
%TO.N,MCU1_13*%
X257366539Y-140916671D02*
X259486539Y-140916671D01*
%TO.N,MCU1_12*%
X272606539Y-140916671D02*
X270486539Y-140916671D01*
%TO.N,DISP1_1*%
X259906539Y-146376671D02*
X259906539Y-144626671D01*
%TO.N,DISP1_2*%
X262446538Y-146376671D02*
X262446538Y-144626671D01*
%TO.N,DISP1_4*%
X267526539Y-146376671D02*
X267526539Y-144626671D01*
%TO.N,DISP1_5*%
X270066539Y-146376671D02*
X270066539Y-144626671D01*
%TD*%
M02*
